<svg enable-background="new 0 0 300 150" viewBox="0 0 300 150" xmlns="http://www.w3.org/2000/svg"><g fill="#8a3aff"><path d="m89.9 111.3v-11.5h14.2v11.5h7.5v12.7h-7.5v15.8h-14.2v-15.8h-26.5v-11.2l23.5-39h16l-22.4 37.5z"/><path d="m148.1 140.6c-9.1 0-16-3.1-20.5-9.3s-6.8-14.5-6.8-24.8c0-10.4 2.3-18.6 6.8-24.8s11.4-9.3 20.5-9.3 16 3.1 20.5 9.3 6.8 14.5 6.8 24.8c0 10.4-2.3 18.6-6.8 24.8-4.6 6.2-11.4 9.3-20.5 9.3zm-9.7-50.1c-2.1 4-3.1 9.3-3.1 16 0 6.6 1 11.9 3.1 16 2.1 4 5.3 6 9.7 6s7.6-2 9.7-6 3.1-9.3 3.1-16c0-6.6-1-11.9-3.1-16-2.1-4-5.3-6-9.7-6s-7.7 2-9.7 6z"/><path d="m210.6 111.3v-11.5h14.2v11.5h7.5v12.7h-7.5v15.8h-14.2v-15.8h-26.5v-11.2l23.5-39h16l-22.4 37.5z"/></g></svg>