<svg enable-background="new 0 0 960 960" viewBox="0 0 960 960" xmlns="http://www.w3.org/2000/svg" xmlns:xlink="http://www.w3.org/1999/xlink"><linearGradient id="a"><stop offset="0" stop-color="#808080" stop-opacity=".25"/><stop offset=".54" stop-color="#808080" stop-opacity=".12"/><stop offset="1" stop-color="#808080" stop-opacity=".1"/></linearGradient><linearGradient id="b" gradientTransform="matrix(1 0 0 -1 -145 809.22)" gradientUnits="userSpaceOnUse" x1="648.4281" x2="648.4281" xlink:href="#a" y1="48.48" y2="424.75"/><linearGradient id="c" gradientTransform="matrix(1 0 0 -1 -145 809.22)" gradientUnits="userSpaceOnUse" x1="611.7911" x2="611.7911" xlink:href="#a" y1="229.7619" y2="531.6147"/><path d="m316.6 695.2c9.3-.7 18.5 1 27.4 2.9 53.2 11 107.6 26.7 163 20.9 29.4-3.1 57-12.2 86.8-12.7 50.5-.9 96.4 23 146.6 19.8 10.3-.7 22.8-1.9 29 3.2 7.2 5.9-.6 16.1 8.6 20.8 2.8 1.4 6.6 2 8.7 3.8 3.2 2.8.1 6.7-4 8.9-25 13.5-67-6.6-96.9 2.6-6.6 2-12 5.3-18.4 7.6-9.1 3.2-19.8 4.2-30.2 5.1l-159 13.7c-38.1 3.3-76.6 6.5-114.8 3.9s-76.7-11.8-101.6-29.7c-5.4-3.8-10.2-8.2-11.6-13.2-6.5-23.6 26.9-54.6 66.4-57.6z" fill="#252223" opacity=".1"/><path d="m239.9 371.1 107.5 123.8 107.4 123.7h-214.9-214.9l107.4-123.7z" fill="#8a3aff" opacity=".3"/><path d="m375.6 372.9 107.5 123.7 107.4 123.7h-214.9-214.9l107.5-123.7z" fill="#8a3aff" opacity=".3"/><path d="m610.3 202-331.6 418.3 479.3-2.5h177z" fill="#8a3aff"/><path d="m935 617.8h-177l-147.7-415.8z" opacity=".1"/><path d="m698 441.7c-.8-5-3.6-11.2-12.3-12.3 0 0 7.9-24.9-46.5-24.5-2-7.3-9.5-11.5-16.8-9.5-1.1.3-2.2.8-3.2 1.3v-12.3s-31.9 11.1-5.9 40.4v20.1c0 .5.1 1 .2 1.5.1.4.2.8.2 1.2.3 6 2.1 52.9-24.1 63.9-28 11.7-32.6-42.4-32.6-42.4-3.4-70.3-34.4-75.9-42-76.2-.9 0-1.8-.1-2.7-.3-3.5-.5-14.9 1.4-26.3 39.4-13.7 45.6-29.3 30.6-29.3 30.6-35.7-29.3-67.7-15.6-67.7-15.6-77 27.6-32.5 115.2-23.1 132-8.9 22.3-25.9 61.2-35.1 61.2-13 0-45 39.7 5.9 120.5h17.6s-39.5-78.5 8.3-104.8c-1.4 2.3-2.9 4.6-4.7 6.7-30.6 35.2 39.1 97.7 39.1 97.7h19.5l-33.2-63.2c-13-26.1 22.8-38.4 22.8-38.4 44.3-24.8 31.9-67.1 31.9-67.1h92.5c-15.7 22.3-43.2 79.1-4.2 168.4h13l7.8-97.8s7-20 34.9-46.9c1.4 40.4 7 111.3 29.6 144.7h18.9s-10.2-68-6.3-91.8c1.6-9.7 3-19.4 4-29.2l5-51.1c16.9-6.7 27.9-23.1 27.6-41.3l-.4-90.4c0-5.2 4.2-9.4 9.3-9.4h.5l22.1 1.1c3 .1 5.6-2.2 5.7-5.2.1-.3.1-.6 0-1z" fill="url(#b)"/><path d="m580.1 585.2s-2.6 124.1 29.4 171.4h18.5s-10-66.7-6.1-90.2c1.6-9.5 3-19.1 3.9-28.7l8-82.6z" fill="#535461"/><path d="m580.1 585.2s-2.6 124.1 29.4 171.4h18.5s-10-66.7-6.1-90.2c1.6-9.5 3-19.1 3.9-28.7l8-82.6z" fill="#ffd037"/><path d="m374.2 564.1s-27.5 74.8-40.3 74.8-44.1 39 5.8 118.3h17.3s-43.5-86.3 17.3-106.8c-.1 0 21.6-62.6-.1-86.3z" fill="#535461"/><path d="m374.2 564.1s-27.5 74.8-40.3 74.8-44.1 39 5.8 118.3h17.3s-43.5-86.3 17.3-106.8c-.1 0 21.6-62.6-.1-86.3z" fill="#ffd037"/><path d="m611.5 447.3v-19.7c-25.6-28.8 5.8-39.6 5.8-39.6v21c74.8-7 65.2 23 65.2 23 8.5 1.1 11.3 7.2 12 12.1.4 2.9-1.6 5.7-4.5 6.1-.4.1-.7.1-1.1.1l-21.6-1c-5.1-.3-9.4 3.6-9.6 8.7v.5l.3 88.7c.1 12.9-5.5 25.1-15.3 33.5-7.5 6.3-18.5 11.3-34.6 10.8h-169s12.2 41.6-31.3 65.9c0 0-35.2 12.2-22.4 37.7l32.6 62h-19.2s-68.4-61.4-38.4-95.9c0 0 28.5-32.9 9.6-79.3 0 0-62.7-102.3 21.1-132.4 0 0 31.3-13.4 66.5 15.4 0 0 15.3 14.7 28.8-30.1 11.2-37.3 22.4-39.1 25.8-38.6.9.1 1.8.2 2.7.3 7.4.3 37.9 5.8 41.2 74.8 0 0 4.5 53.1 32 41.6 25.7-10.8 24-56.9 23.7-62.7 0-.4-.1-.8-.2-1.2-.1-.7-.1-1.2-.1-1.7z" fill="#ffd037"/><path d="m538.5 580.7s-63.3 60.1-12.8 175.9h12.8l7.7-95.9s13.4-38.4 77.4-79.9h-85.1z" fill="#ffd037"/><circle cx="623.9" cy="411.6" fill="#ffd037" r="13.4"/><path d="m551.9 487.7c19.6-20.3 10.8-23.6 6.1-30.8-3.2-4.9-36.8-12.9-57.7-17.5-.1-1.7-.3-4.6-.5-8 0 0-.5-6.4-.5-10.9v-.1l1.3.2s0-.5 0-1.3l26.2 3.5c22.3 3.3 25.1-5.2 25.1-5.2 3.4-15.1-24.4-5.2-24.4-5.2-5.4 1.5-18.2-2.8-28.2-6.8.1-2.2.4-4.4.7-6.6.8-3.3 1.2-6.7 1.2-10.2.2-2.9-.5-5.9-1.8-8.5-5-9.5-13.6-20.6-21.7-28.8.5-5.8 2.1-11.5 4.8-16.7 8.9-2.6 15-10.7 15.1-20 0-2.1-.3-4.1-.9-6.1 5.8-5.3 5.6-16.2.3-23.3-.6-.7-1.2-1.4-1.9-2.1-3.7-3.5-8.5-5.6-13.6-5.8-5.7-.3-11.3 1.2-16.6 3.4-6.2 2.6-12.3 6.2-19.1 5.7-4.8-.4-9.5-2.9-14.3-2.3-6.2.8-10.4 6.5-13.4 11.9s-6 11.4-11.7 13.9c-5 2.1-10.8 1-16.2 1.3-7.6.4-15.4 4.1-19 10.6-3.3 5.8-2.3 13.9 2.6 18.3.7.8 1.6 1.4 2.5 2 1 .5 2 1.2 2.9 1.8.5.5.8 1.3.8 2-.1.9-.5 1.7-1 2.5-1.9 3.4-2.3 7.4-1.1 11.1.4 1.3 1.1 2.5 2.2 3.4.3.3.6.6 1 .9 3.5 2.4 8.9-.5 12.3 1.9l.3.2c1.4 1.6 1.8 4 2.8 5.9.6 1.3 1.5 2.4 2.6 3.3 2.9 2.8 6.7 4.4 10.7 4.5 5.1.3 10.1-1.3 15-3 6.4-2.2 13.5-5.5 15.1-11.8 1-3.9-.3-8.1.9-11.9.6-1.8 1.7-3.4 3.1-4.7-1.3 3.2-2.1 6.5-2.6 9.9-.4 2.7-.6 5.5-.5 8.3-.1 7.2 1.2 14.3 3.7 21.1 2.6 7.1 5.7 17.5 5.8 27.5 0 4.1-.7 8.2-2.1 12.1-4.3 11.2-5 16.3-4.8 18.5-.2 2.9.7 3.1.7 3.1l.3-.1c-.6 4 .6 8.1 3.1 11.3 27.1 17.7 90.1 11.8 90.1 11.8-12.9 2-27.8 33.4-27.8 33.4-2.7 6.9-7 13.2-12.5 18.1v-.1c-6.4-2.2-15.4 3.6-22 6.8l-.5.3c-2.5 1.1-3.6 3.9-2.5 6.4l.3.6 18.4 29.6c11.5 11.9 19 13.9 21.6 11.7 1.7-1.5 1.4-4.8-1.3-8.4-6.5-8.8-.9-32.3-.4-34.2 5.6-7.3 24.5-31.3 41-48.4z" fill="url(#c)"/><path d="m485.1 332.3s-9.6 14.1-7.7 28.1l-22.4-17.9s8.3-.6 10.2-19.8z" fill="#f9d5c6"/><path d="m482.6 437.2s65.9 13.4 70.3 20.5 12.8 10.2-5.8 30.1-40.3 49.2-40.3 49.2l-15.3-10.9c7.3-5.3 12.9-12.6 16-21.1 0 0 14.1-30.7 26.2-32.6 0 0-59.5 5.8-85.1-11.5 0 0-6.4-7-.6-18.5s34.6-5.2 34.6-5.2z" fill="#353535"/><path d="m462.1 344.4s-15.7-7.2-19.3 18.3c-1.2 9.2-.2 18.6 3 27.4 3.6 10.2 8.2 27.3 3.5 40-7 19.2-3.8 19.8-3.8 19.8l9.4-3.5c12.7-4.8 26.4-6 39.8-3.6l3.9.7s-2.6-29.9-.3-42.5c1.1-6 2.2-11.5-.5-16.9-8.5-16.6-27.8-38.2-35.7-39.7z" opacity=".1"/><path d="m462.1 343.1s-15.7-7.2-19.3 18.3c-1.2 9.2-.2 18.6 3 27.4 3.6 10.2 8.2 27.3 3.5 40-7 19.2-3.8 19.8-3.8 19.8l9.4-3.5c12.7-4.8 26.4-6 39.8-3.6l3.9.7s-2.6-29.9-.3-42.5c1.1-6 2.2-11.5-.5-16.9-8.5-16.6-27.8-38.2-35.7-39.7z" fill="#fc6681"/><path d="m452.2 362.3c4.3-7.7 15.4-8 20.5-.7 2 3.2 3.5 6.7 4.2 10.3 4.5 19.2 8.3 31.3 8.3 31.3s9.9 3.5 14.2 6.3c-.4 6.2-.6 12.7-.6 12.7l-21.2-3-22.4-39.6c-.1-.1-7.7-9.1-3-17.3z" opacity=".1"/><path d="m452.2 361c4.3-7.7 15.4-8 20.5-.7 2 3.2 3.5 6.7 4.2 10.3 4.5 19.2 8.3 31.3 8.3 31.3s30.1 14.7 39 12.1c0 0 26.2-9.6 23 5.1 0 0-2.6 8.3-23.7 5.1l-46-6.4-22.4-39.6c0 .1-7.6-8.9-2.9-17.2z" fill="#f9d5c6"/><path d="m461.8 330.7c1.2-2.8 2.3-1.4 2.9-6.7l19.8 9.6c-1.3 1.9-2.4 4-3.3 6.1-2 .6-4.4 0-6.6 0-4.9-.1-9.3-6.1-12.8-9z" opacity=".1"/><circle cx="475.5" cy="318.8" fill="#f9d5c6" r="20.5"/><path d="m484.7 315.8c-3.6-.5-7.3-2.3-10.7-1-3.9 1.5-5.2 6.3-5.2 10.5s.8 8.5-.9 12.3c-2.3 5-8 7.2-13.1 9.1s-10.8 4.6-12.5 9.8c-1.2 3.7.1 7.8-.9 11.6-1.6 6.2-8.3 9.4-14.3 11.5-4.6 1.6-9.3 3.1-14.1 2.9s-9.8-2.6-11.9-7c-1.1-2.3-1.5-5.1-3.5-6.6-3.3-2.4-8.4.5-11.6-1.9-1.1-.9-1.9-2.2-2.3-3.6-1.1-3.6-.7-7.5 1.1-10.8.5-.7.9-1.5 1-2.4.1-2.1-2.3-3.3-4.1-4.4-6.1-3.8-7.7-12.8-4.2-19.2s10.7-10 17.9-10.4c5.2-.3 10.6.8 15.3-1.3 5.4-2.4 8.3-8.3 11.1-13.5 2.8-5.3 6.7-10.8 12.6-11.6 4.5-.6 8.9 1.9 13.5 2.3 6.3.5 12.2-3 18-5.5 4.9-2.1 10.3-3.6 15.7-3.3s10.8 2.7 14 7c7.1 9.7 4.3 27.5-10.9 25.5z" opacity=".1"/><path d="m484 315.1c-3.6-.5-7.3-2.3-10.7-1-3.9 1.5-5.2 6.3-5.2 10.5s.8 8.5-.9 12.3c-2.3 5-8 7.2-13.1 9.1s-10.8 4.6-12.5 9.8c-1.2 3.7.1 7.8-.9 11.6-1.6 6.2-8.3 9.4-14.3 11.5-4.6 1.6-9.3 3.1-14.1 2.9s-9.8-2.6-11.9-7c-1.1-2.3-1.5-5.1-3.5-6.6-3.3-2.4-8.4.5-11.6-1.9-1.1-.9-1.9-2.2-2.3-3.6-1.1-3.6-.8-7.5 1-10.9.5-.7.9-1.5 1-2.4.1-2.1-2.3-3.3-4.1-4.4-6.1-3.8-7.7-12.8-4.2-19.2s10.7-10 17.9-10.4c5.2-.3 10.6.8 15.3-1.3 5.4-2.4 8.3-8.3 11.1-13.5 2.8-5.3 6.7-10.8 12.6-11.6 4.5-.6 8.9 1.9 13.5 2.3 6.3.5 12.2-3 18-5.5 4.9-2.1 10.3-3.6 15.7-3.3s10.8 2.7 14 7c7.2 9.9 4.4 27.6-10.8 25.6z" fill="#2f302f"/><path d="m480.3 367.1s-26.2-3.2-27.5 15.4-5.1-22.4-5.1-22.4l12.2-9 14.1 4.5z" opacity=".1"/><path d="m479.7 366.5s-26.2-3.2-27.5 15.4-5.1-22.4-5.1-22.4l12.2-9 14.1 4.5z" fill="#fc6681"/><path d="m472.4 536.2 17.2 28.8c10.8 11.6 17.9 13.6 20.4 11.4 1.6-1.4 1.3-4.7-1.2-8.2-6.4-9-.3-33.6-.3-33.6-11.5-2.6-12.8-12.1-12.8-12.1-6-2.1-14.5 3.5-20.7 6.6l-.5.2c-2.4 1.2-3.4 4-2.3 6.4.1.3.2.4.2.5z" fill="#409cd6"/><path d="m508.5 534.7s-12.8-.6-12.8-12.1c0-.1 1.9 10.2 12.8 12.1z" opacity=".1"/><path d="m472.4 536.2 17.2 28.8c10.8 11.6 17.9 13.6 20.4 11.4-5.9-3.1-22.3-14.4-35-47.3l-.5.2c-2.4 1.1-3.4 4-2.3 6.4.1.3.2.4.2.5z" opacity=".1"/><path d="m77.8 661.8s-67.6 40.8 57 103.6c0 0 27.5-51-2.9-92.6-12.2-16.8-35-21.8-53.1-11.7z" fill="#8a3aff"/><path d="m78.6 661s57.9 44.2 56.3 104.5" fill="none" stroke="#535461" stroke-miterlimit="10"/><path d="m131.1 765.2s-21.2-72 4-124.9c10.7-22.1 13.9-47.2 9.2-71.3-2.3-11.4-5.7-22.6-10.1-33.5" fill="none" stroke="#535461" stroke-miterlimit="10" stroke-width="2"/><g fill="#8a3aff"><path d="m149.9 502.1c0 8.8-16 34.4-16 34.4s-16-25.6-16-34.4c-.6-8.8 6.1-16.4 14.9-17s16.4 6.1 17 14.9c.1.6.1 1.4.1 2.1z"/><path d="m176.3 550.9c-4.8 7.4-32.1 20.2-32.1 20.2s.5-30.1 5.3-37.5c4.3-7.7 14.1-10.5 21.8-6.2s10.5 14.1 6.2 21.8c-.4.6-.8 1.2-1.2 1.7z"/><path d="m175.1 634.4c-7.9 4-37.9 1.2-37.9 1.2s15.6-25.8 23.5-29.7c8.1-3.5 17.5.3 21 8.5 3.2 7.3.3 15.9-6.6 20z"/><path d="m160 697.3c-7.1 5.2-37.1 7.6-37.1 7.6s11.1-28 18.2-33.3c6.8-5.7 16.9-4.8 22.5 1.9 5.7 6.8 4.8 16.9-1.9 22.5-.6.6-1.1 1-1.7 1.3z"/><path d="m110.6 572.8c6.3 6.1 35.8 12.5 35.8 12.5s-7.2-29.3-13.5-35.4c-5.9-6.6-16-7.1-22.6-1.2s-7.1 16-1.2 22.6z"/><path d="m93.9 646.7c7.9 4 37.9 1.2 37.9 1.2s-15.6-25.8-23.5-29.7c-7.6-4.5-17.4-2-21.9 5.7-4.5 7.6-2 17.4 5.7 21.9.6.3 1.2.6 1.8.9z"/><path d="m87.5 720.7c7.1 5.2 37.1 7.6 37.1 7.6s-11.1-28-18.1-33.3c-6.8-5.7-16.9-4.8-22.5 1.9-5.7 6.8-4.8 16.9 1.9 22.5.5.5 1.1.9 1.6 1.3z"/></g><path d="m149.9 502.1c0 8.8-16 34.4-16 34.4s-16-25.6-16-34.4c-.6-8.8 6.1-16.4 14.9-17s16.4 6.1 17 14.9c.1.6.1 1.4.1 2.1z" opacity=".25"/><path d="m176.3 550.9c-4.8 7.4-32.1 20.2-32.1 20.2s.5-30.1 5.3-37.5c4.3-7.7 14.1-10.5 21.8-6.2s10.5 14.1 6.2 21.8c-.4.6-.8 1.2-1.2 1.7z" opacity=".25"/><path d="m175.1 634.4c-7.9 4-37.9 1.2-37.9 1.2s15.6-25.8 23.5-29.7c8.1-3.5 17.5.3 21 8.5 3.2 7.3.3 15.9-6.6 20z" opacity=".25"/><path d="m160 697.3c-7.1 5.2-37.1 7.6-37.1 7.6s11.1-28 18.2-33.3c6.8-5.7 16.9-4.8 22.5 1.9 5.7 6.8 4.8 16.9-1.9 22.5-.6.6-1.1 1-1.7 1.3z" opacity=".25"/><path d="m110.6 572.8c6.3 6.1 35.8 12.5 35.8 12.5s-7.2-29.3-13.5-35.4c-5.9-6.6-16-7.1-22.6-1.2s-7.1 16-1.2 22.6z" opacity=".25"/><path d="m93.9 646.7c7.9 4 37.9 1.2 37.9 1.2s-15.6-25.8-23.5-29.7c-7.6-4.5-17.4-2-21.9 5.7-4.5 7.6-2 17.4 5.7 21.9.6.3 1.2.6 1.8.9z" opacity=".25"/><path d="m87.5 720.7c7.1 5.2 37.1 7.6 37.1 7.6s-11.1-28-18.1-33.3c-6.8-5.7-16.9-4.8-22.5 1.9-5.7 6.8-4.8 16.9 1.9 22.5.5.5 1.1.9 1.6 1.3z" opacity=".25"/><path d="m192.2 789.6s-21.2-72 4-124.9c10.7-22.1 13.9-47.2 9.2-71.3-2.3-11.4-5.7-22.6-10.1-33.5" fill="none" stroke="#535461" stroke-miterlimit="10" stroke-width="2"/><path d="m210.9 526.4c0 8.8-16 34.4-16 34.4s-15.9-25.6-15.9-34.4c.6-8.8 8.2-15.5 17-14.9 8 .6 14.4 6.9 14.9 14.9z" fill="#8a3aff"/><path d="m237.3 575.3c-4.8 7.4-32.1 20.2-32.1 20.2s.5-30.1 5.3-37.5c4.3-7.7 14.1-10.5 21.8-6.2s10.5 14.1 6.2 21.8c-.4.5-.8 1.1-1.2 1.7z" fill="#8a3aff"/><path d="m236.2 658.8c-7.9 4-37.9 1.2-37.9 1.2s15.6-25.8 23.5-29.8c7.6-4.5 17.4-2 21.9 5.7s2 17.4-5.7 21.9c-.6.3-1.2.7-1.8 1z" fill="#8a3aff"/><path d="m221.1 721.7c-7.1 5.2-37.1 7.6-37.1 7.6s11.1-28 18.1-33.3c7.4-4.8 17.3-2.7 22.1 4.7 4.4 6.8 3 15.8-3.1 21z" fill="#8a3aff"/><path d="m171.7 597.2c6.3 6.1 35.8 12.5 35.8 12.5s-7.2-29.3-13.5-35.4c-6.7-5.7-16.8-4.9-22.6 1.8-5.2 6.2-5.1 15.2.3 21.1z" fill="#8a3aff"/><path d="m155 671c7.9 4 37.9 1.2 37.9 1.2s-15.6-25.8-23.5-29.7c-7.6-4.5-17.4-2-21.9 5.6s-2 17.4 5.6 21.9c.6.4 1.2.7 1.9 1z" fill="#8a3aff"/><path d="m148.6 745c7.1 5.2 37.1 7.6 37.1 7.6s-11.1-28-18.1-33.3c-6.8-5.7-16.9-4.8-22.5 1.9-5.7 6.8-4.8 16.9 1.9 22.5.5.6 1 1 1.6 1.3z" fill="#8a3aff"/><path d="m439.5 215.2h-5.9c2.3 0 4.1-1.9 4.1-4.1 0-2.3-1.9-4.1-4.1-4.1h-47.9c-2.3 0-4.1 1.9-4.1 4.1 0 2.3 1.9 4.1 4.1 4.1h5.9c-2.3 0-4.1 1.9-4.1 4.1 0 2.3 1.9 4.1 4.1 4.1h-8.3c-2.3 0-4.1 1.9-4.1 4.1 0 2.3 1.9 4.1 4.1 4.1h47.9c2.3 0 4.1-1.9 4.1-4.1 0-2.3-1.9-4.1-4.1-4.1h8.3c2.3 0 4.1-1.9 4.1-4.1s-1.8-4.1-4.1-4.1z" fill="#252223" opacity=".1"/><path d="m340.7 278.8h-5.9c2.3 0 4.1-1.9 4.1-4.1 0-2.3-1.9-4.1-4.1-4.1h-47.9c-2.3 0-4.1 1.9-4.1 4.1 0 2.3 1.9 4.1 4.1 4.1h5.9c-2.3 0-4.1 1.9-4.1 4.1 0 2.3 1.9 4.1 4.1 4.1h-8.3c-2.3 0-4.1 1.9-4.1 4.1 0 2.3 1.9 4.1 4.1 4.1h47.9c2.3 0 4.1-1.9 4.1-4.1 0-2.3-1.9-4.1-4.1-4.1h8.3c2.3 0 4.1-1.9 4.1-4.1.1-2.2-1.8-4.1-4.1-4.1z" fill="#252223" opacity=".1"/><path d="m832.9 266.8h-5.9c2.3 0 4.1-1.9 4.1-4.1 0-2.3-1.9-4.1-4.1-4.1h-47.8c-2.3 0-4.1 1.9-4.1 4.1 0 2.3 1.9 4.1 4.1 4.1h5.9c-2.3 0-4.1 1.9-4.1 4.1s1.9 4.1 4.1 4.1h-8.3c-2.3 0-4.1 1.9-4.1 4.1 0 2.3 1.9 4.1 4.1 4.1h47.9c2.3 0 4.1-1.9 4.1-4.1 0-2.3-1.9-4.1-4.1-4.1h8.3c2.3 0 4.1-1.9 4.1-4.1s-1.9-4.1-4.2-4.1z" fill="#252223" opacity=".1"/><circle cx="196.2" cy="251" fill="#8a3aff" opacity=".3" r="43.8"/><path d="m411 522.4s18 23.2 24.9 42.1 2.6 24.1 2.6 24.1" opacity=".05"/></svg>