<svg enable-background="new 0 0 960 960" viewBox="0 0 960 960" xmlns="http://www.w3.org/2000/svg" xmlns:xlink="http://www.w3.org/1999/xlink"><linearGradient id="a"><stop offset="0" stop-color="#808080" stop-opacity=".25"/><stop offset=".54" stop-color="#808080" stop-opacity=".12"/><stop offset="1" stop-color="#808080" stop-opacity=".1"/></linearGradient><linearGradient id="b" gradientTransform="matrix(1 0 0 -1 0 962)" gradientUnits="userSpaceOnUse" x1="413.247" x2="413.247" xlink:href="#a" y1="153.4552" y2="181.3883"/><linearGradient id="c" gradientTransform="matrix(1 0 0 -1 -108.19 884.85)" gradientUnits="userSpaceOnUse" x1="522.5063" x2="522.5063" xlink:href="#a" y1="235.0865" y2="754.7273"/><linearGradient id="d"><stop offset="0" stop-opacity=".12"/><stop offset=".55" stop-opacity=".09"/><stop offset="1" stop-opacity=".02"/></linearGradient><linearGradient id="e" gradientTransform="matrix(1 0 0 -1 0 962)" gradientUnits="userSpaceOnUse" x1="406.8265" x2="406.8265" xlink:href="#d" y1="501.6615" y2="730.7349"/><linearGradient id="f" gradientTransform="matrix(1 0 0 -1 0 962)" gradientUnits="userSpaceOnUse" x1="406.8265" x2="406.8265" xlink:href="#a" y1="517.9917" y2="545.1931"/><linearGradient id="g" gradientTransform="matrix(1 0 0 -1 0 962)" gradientUnits="userSpaceOnUse" x1="406.8265" x2="406.8265" xlink:href="#a" y1="553.6349" y2="634.3012"/><linearGradient id="h" gradientTransform="matrix(1 -.00139626 -.00143815 -1.03 -107.428 900.5811)" gradientUnits="userSpaceOnUse" x1="931.3909" x2="931.3909" y1="65.0517" y2="475.3803"><stop offset=".01" stop-color="#808080" stop-opacity=".25"/><stop offset=".54" stop-color="#808080" stop-opacity=".12"/><stop offset="1" stop-color="#808080" stop-opacity=".1"/></linearGradient><linearGradient id="i" gradientTransform="matrix(1 0 0 -1 0 962)" gradientUnits="userSpaceOnUse" x1="823.5428" x2="823.5428" xlink:href="#d" y1="344.775" y2="455.8881"/><linearGradient id="j" gradientTransform="matrix(1 0 0 -1 0 962)" gradientUnits="userSpaceOnUse" x1="823.5428" x2="823.5428" xlink:href="#a" y1="352.7009" y2="365.8889"/><linearGradient id="k" gradientTransform="matrix(1 0 0 -1 0 962)" gradientUnits="userSpaceOnUse" x1="823.5428" x2="823.5428" xlink:href="#a" y1="369.9879" y2="409.111"/><path d="m512.3 604.3s19.6 132.3 135.2 176.3h-468.2c115.6-44.1 135.2-176.3 135.2-176.3z" fill="#e0e0e0"/><path d="m176.9 780.6h472.6v27.9h-472.6z" fill="url(#b)"/><path d="m179.3 780.6h468.2v21.5h-468.2z" fill="#f5f5f5"/><path d="m799.8 130.1h-771c-5.8.1-10.4 4.8-10.3 10.5v489.5c-.1 10.7 8.5 19.5 19.3 19.6h753.2c10.7-.1 19.4-8.9 19.3-19.6v-489.5c-.1-5.7-4.7-10.4-10.5-10.5z" fill="url(#c)"/><path d="m799.8 569h-772.8v-417.4c0-5.6 4.5-10.1 10.1-10.1h752.6c5.6 0 10.1 4.5 10.1 10.1z" fill="#f5f5f5"/><path d="m781 639.6h-735.2c-10.4 0-18.8-8.4-18.8-18.8v-51.8h772.8v51.7c0 10.4-8.3 18.8-18.8 18.9z" fill="#fff"/><path d="m66.1 194.6h699.4v326.7h-699.4z" fill="#8a3aff"/><path d="m65.2 176.1h700.3v28.8h-700.3z" fill="#e0e0e0"/><circle cx="80.4" cy="190.8" fill="#ff5252" r="8.4"/><circle cx="100.1" cy="190.8" fill="#ff0" r="8.4"/><circle cx="119.8" cy="190.8" fill="#69f0ae" r="8.4"/><path d="m406.8 231.3-126.6 229h253.3z" fill="url(#e)"/><path d="m406.8 248.9-111.3 202.6h222.7z" fill="#fff"/><circle cx="406.8" cy="430.4" fill="url(#f)" r="13.6"/><circle cx="406.8" cy="430.4" fill="#8a3aff" r="11.3"/><path d="m403.1 327.7h7.5v80.7h-7.5z" fill="url(#g)"/><path d="m404.5 328.2h4.7v78.8h-4.7z" fill="#8a3aff"/><path d="m715.3 408.4 215.9-.3c5.2 0 9.4 4.2 9.4 9.4l.6 402.3c0 5.2-4.2 9.4-9.4 9.4l-215.9.3c-5.2 0-9.4-4.2-9.4-9.4l-.5-402.3c0-5.1 4.2-9.4 9.3-9.4z" fill="url(#h)"/><path d="m720.8 412.8 205.1-.3c5.2 0 9.4 4.2 9.4 9.4l.5 381.9c0 5.2-4.2 9.4-9.4 9.4l-205.1.3c-5.2 0-9.4-4.2-9.4-9.4l-.5-381.9c0-5.2 4.2-9.4 9.4-9.4z" fill="#fff"/><path d="m736.9 441h173.3v326.1h-173.3z" fill="#8a3aff" transform="matrix(-1 .00139633 -.00139633 -1 1647.9436 1206.8402)"/><g fill="#dbdbdb"><circle cx="823.8" cy="790.5" r="13.8"/><circle cx="796.5" cy="427" r="2.8"/><path d="m810.9 423.7 40-.1c.8 0 1.4.6 1.4 1.4v1.3c0 .8-.6 1.4-1.4 1.4l-40 .1c-.8 0-1.4-.6-1.4-1.4v-1.3c0-.8.6-1.4 1.4-1.4z"/></g><path d="m823.5 506.1-61.4 111.1h122.9z" fill="url(#i)"/><path d="m823.5 514.7-54 98.2h108.1z" fill="#fff"/><circle cx="823.5" cy="602.7" fill="url(#j)" r="6.6"/><circle cx="823.5" cy="602.7" fill="#8a3aff" r="5.5"/><path d="m821.7 552.9h3.6v39.1h-3.6z" fill="url(#k)"/><path d="m822.4 553.1h2.3v38.2h-2.3z" fill="#8a3aff"/></svg>