<svg enable-background="new 0 0 300 150" viewBox="0 0 300 150" xmlns="http://www.w3.org/2000/svg"><g fill="#fc6681"><path d="m73 85.3v9.3h-22.1v10.4h21v9.3h-21v18.7h-10.6v-47.7z"/><path d="m111.1 133h-9.6v-4.4c-2.6 3.3-5.9 5-9.8 5s-7.1-1.1-9.8-3.4c-2.6-2.2-4-5.2-4-9s1.4-6.6 4.1-8.4c2.7-1.9 6.5-2.8 11.2-2.8h7.6v-.2c0-3.9-2.1-5.9-6.2-5.9-1.8 0-3.6.4-5.6 1.1s-3.6 1.6-5 2.6l-4.6-6.6c4.8-3.5 10.3-5.2 16.5-5.2 4.5 0 8.1 1.1 10.9 3.3s4.2 5.7 4.2 10.6v23.3zm-10.3-14v-1.8h-6.4c-4.1 0-6.1 1.3-6.1 3.8 0 1.3.5 2.3 1.5 3s2.4 1.1 4.2 1.1 3.4-.6 4.8-1.7c1.3-1.1 2-2.5 2-4.4z"/><path d="m121.3 91.6c-1.2-1.2-1.7-2.6-1.7-4.3s.6-3.1 1.7-4.3c1.2-1.2 2.6-1.7 4.3-1.7s3.1.6 4.3 1.7c1.2 1.2 1.7 2.6 1.7 4.3s-.6 3.1-1.7 4.3c-1.2 1.2-2.6 1.7-4.3 1.7s-3.1-.5-4.3-1.7zm9.4 41.4h-10.2v-36.7h10.2z"/><path d="m150.6 133h-10.2v-50.6h10.2z"/><path d="m192 127.6c-4.1 3.9-9 5.9-14.6 5.9s-10.2-1.7-13.8-5.1-5.5-8-5.5-13.8 1.9-10.4 5.6-13.8 8.1-5.1 13.1-5.1 9.3 1.5 12.8 4.6c3.5 3 5.3 7.2 5.3 12.5v5.5h-26.7c.3 2 1.4 3.6 3.1 4.9 1.8 1.3 3.8 1.9 6 1.9 3.6 0 6.5-1.2 8.9-3.6zm-9.8-21.7c-1.4-1.2-3.1-1.8-5.1-1.8s-3.9.6-5.6 1.8-2.7 2.9-2.9 5h16.1c-.3-2.1-1.1-3.8-2.5-5z"/><path d="m217.1 133.5c-4.3 0-8.2-1.8-11.6-5.5s-5.1-8.2-5.1-13.7 1.7-9.9 5-13.4 7.2-5.2 11.7-5.2 8.1 1.6 10.9 4.7v-18h10.2v50.6h-10.2v-4.8c-3 3.5-6.6 5.3-10.9 5.3zm-6.5-18.8c0 3 .9 5.4 2.7 7.3s3.8 2.8 6.2 2.8 4.4-.9 6-2.8c1.7-1.9 2.5-4.3 2.5-7.3s-.8-5.5-2.5-7.4c-1.7-2-3.7-3-6.1-3s-4.5 1-6.2 3-2.6 4.4-2.6 7.4z"/><path d="m247.6 85.3h12.1v8.5l-2 24.5h-8l-2-24.5v-8.5zm1.8 46.5c-1.2-1.2-1.7-2.6-1.7-4.3s.6-3.1 1.7-4.3c1.2-1.2 2.6-1.7 4.3-1.7s3.1.6 4.3 1.7c1.2 1.2 1.7 2.6 1.7 4.3s-.6 3.1-1.7 4.3c-1.2 1.2-2.6 1.7-4.3 1.7-1.8 0-3.2-.6-4.3-1.7z"/></g></svg>