<svg enable-background="new 0 0 960 960" viewBox="0 0 960 960" xmlns="http://www.w3.org/2000/svg" xmlns:xlink="http://www.w3.org/1999/xlink"><linearGradient id="a" gradientTransform="matrix(-1 0 0 -1 1070.63 917.13)" gradientUnits="userSpaceOnUse" x1="508.1592" x2="508.1592" y1="71.0047" y2="620.67"><stop offset="0" stop-color="#808080" stop-opacity=".25"/><stop offset=".54" stop-color="#808080" stop-opacity=".12"/><stop offset="1" stop-color="#808080" stop-opacity=".1"/></linearGradient><path d="m895.3 453.6c-31.8 40.5-19.5 99.6.8 146.9 6.8 15.9 14.4 32.6 11.6 49.6-3.5 20.8-22 36-41.5 44-35.5 14.7-78 11.2-110.6-9.1-28.2-17.5-48.4-46.1-77-62.8-48-28-109.1-17.4-161.2 1.9-36.9 13.7-77.2 31.4-113.8 17.1-25.8-10-43.6-34.5-53.3-60.4-4.7-12.5-8.1-26-17-36-5.3-5.9-12.3-10.1-19.4-13.6-65-32.2-147-15-210.1-50.7-42.6-24.1-69.9-69.6-82-117.1s-10.7-97.2-7.6-146.1c2.2-34.7 6.1-71.8 28.3-98.6 23.4-28.1 63.7-38.7 100.1-33.3s69.4 24.6 98.5 47.2c36.3 28.3 69.9 63.5 114.5 74.9 30.3 7.8 62.3 3.5 93.6 2.1 52.3-2.5 104.7 3 156.7 9 49.8 5.8 100 12.1 147.4 28.3 33.6 11.5 60.5 32.3 92.2 46.8 20.7 9.5 43.2 12.1 62.8 24.2 24.1 14.9 46.2 40.7 40 71-6 28.8-36.1 43.2-53 64.7z" fill="#8a3aff" opacity=".1"/><path d="m85.9 784.7c7.1 3.7 14.6 6.8 21.9 10 27.2 11.5 54.8 23.1 84 27 54.8 7.4 111.4-12.6 165.3-.2 45.2 10.4 82.5 42.3 126.6 56.6 20.5 6.6 41.8 9.2 63.4 9.2h2.8c2.7 0 5.3-.1 7.9-.2 21.8-.8 43.8-4 65.2-8.2 67.6-13 136.3-36.8 188-80.7-150.3-27.5-460.2-69.7-725.1-13.5z" fill="#8a3aff" opacity=".1"/><path d="m122.8 781.8s24.7-83.8-4.6-145.4c-12.3-25.9-16.4-54.9-10.7-83 2.7-13.3 6.6-26.4 11.8-39" fill="none" stroke="#535461" stroke-miterlimit="10" stroke-width="2"/><g fill="#8a3aff"><path d="m101 475.5c0 10.3 18.6 40 18.6 40s18.6-29.8 18.6-40c-.2-10.3-8.8-18.4-19-18.2-10 .2-18 8.2-18.2 18.2z"/><path d="m70.3 532.3c5.6 8.6 37.4 23.5 37.4 23.5s-.6-35.1-6.2-43.7c-5.4-8.8-16.8-11.5-25.6-6.1s-11.5 16.8-6.1 25.6c.1.2.3.5.5.7z"/><path d="m71.6 629.5c9.2 4.6 44.1 1.4 44.1 1.4s-18.2-30-27.4-34.6c-9-4.9-20.3-1.4-25.2 7.6s-1.4 20.3 7.6 25.2c.4.1.6.3.9.4z"/><path d="m89.2 702.8c8.3 6.1 43.2 8.9 43.2 8.9s-12.9-32.6-21.1-38.8c-8.3-6-19.9-4.2-26 4.1-6 8.2-4.2 19.7 3.9 25.8z"/><path d="m146.6 557.8c-7.4 7.2-41.7 14.6-41.7 14.6s8.4-34.1 15.8-41.2c7.4-7.2 19.1-7 26.3.4 7.2 7.3 7 19.1-.4 26.2z"/><path d="m166.1 643.8c-9.2 4.6-44.1 1.4-44.1 1.4s18.2-30 27.4-34.6c9.3-4.4 20.4-.5 24.8 8.7 4.3 9 .7 19.8-8.1 24.5z"/><path d="m173.6 729.9c-8.3 6.1-43.2 8.9-43.2 8.9s12.9-32.6 21.1-38.8c8.3-6 19.9-4.2 26 4.1 5.9 8.3 4.2 19.7-3.9 25.8z"/></g><path d="m101 475.5c0 10.3 18.6 40 18.6 40s18.6-29.8 18.6-40c-.2-10.3-8.8-18.4-19-18.2-10 .2-18 8.2-18.2 18.2z" opacity=".25"/><path d="m70.3 532.3c5.6 8.6 37.4 23.5 37.4 23.5s-.6-35.1-6.2-43.7c-5.4-8.8-16.8-11.5-25.6-6.1s-11.5 16.8-6.1 25.6c.1.2.3.5.5.7z" opacity=".25"/><path d="m71.6 629.5c9.2 4.6 44.1 1.4 44.1 1.4s-18.2-30-27.4-34.6c-9-4.9-20.3-1.4-25.2 7.6s-1.4 20.3 7.6 25.2c.4.1.6.3.9.4z" opacity=".25"/><path d="m89.2 702.8c8.3 6.1 43.2 8.9 43.2 8.9s-12.9-32.6-21.1-38.8c-8.3-6-19.9-4.2-26 4.1-6 8.2-4.2 19.7 3.9 25.8z" opacity=".25"/><path d="m146.6 557.8c-7.4 7.2-41.7 14.6-41.7 14.6s8.4-34.1 15.8-41.2c7.4-7.2 19.1-7 26.3.4 7.2 7.3 7 19.1-.4 26.2z" opacity=".25"/><path d="m166.1 643.8c-9.2 4.6-44.1 1.4-44.1 1.4s18.2-30 27.4-34.6c9.3-4.4 20.4-.5 24.8 8.7 4.3 9 .7 19.8-8.1 24.5z" opacity=".25"/><path d="m173.6 729.9c-8.3 6.1-43.2 8.9-43.2 8.9s12.9-32.6 21.1-38.8c8.3-6 19.9-4.2 26 4.1 5.9 8.3 4.2 19.7-3.9 25.8z" opacity=".25"/><path d="m250.1 756.3s13.4-45.3-2.5-78.7c-6.7-14-8.8-29.7-5.8-44.9 1.5-7.2 3.6-14.3 6.4-21.1" fill="none" stroke="#535461" stroke-miterlimit="10" stroke-width="2"/><path d="m238.3 590.4c0 5.6 10.1 21.7 10.1 21.7s10.1-16.1 10.1-21.7-4.5-10.1-10.1-10.1-10.1 4.6-10.1 10.1z" fill="#8a3aff"/><path d="m221.6 621.2c3 4.7 20.2 12.7 20.2 12.7s-.3-19-3.3-23.7-9.3-6-13.9-3c-4.7 3.1-6 9.3-3 14z" fill="#8a3aff"/><path d="m222.4 673.8c5 2.5 23.9.8 23.9.8s-9.9-16.2-14.8-18.7c-5-2.5-11-.5-13.5 4.5-2.6 4.9-.6 10.9 4.4 13.4z" fill="#8a3aff"/><path d="m231.9 713.5c4.5 3.3 23.4 4.8 23.4 4.8s-7-17.7-11.4-21c-4.5-3.3-10.8-2.4-14.1 2.1-3.4 4.5-2.4 10.8 2.1 14.1z" fill="#8a3aff"/><path d="m263 635c-4 3.9-22.6 7.9-22.6 7.9s4.5-18.5 8.5-22.3c3.9-4 10.3-4 14.2-.2 4 3.9 4 10.3.2 14.2-.1.2-.2.3-.3.4z" fill="#8a3aff"/><path d="m273.5 681.6c-5 2.5-23.9.8-23.9.8s9.9-16.2 14.8-18.7c5-2.5 11-.5 13.5 4.5 2.6 4.8.6 10.9-4.4 13.4z" fill="#8a3aff"/><path d="m277.6 728.2c-4.5 3.3-23.4 4.8-23.4 4.8s7-17.7 11.4-21c4.5-3.3 10.8-2.4 14.1 2.1s2.4 10.8-2.1 14.1z" fill="#8a3aff"/><path d="m238.3 590.4c0 5.6 10.1 21.7 10.1 21.7s10.1-16.1 10.1-21.7-4.5-10.1-10.1-10.1-10.1 4.6-10.1 10.1z" fill="#fff" opacity=".5"/><path d="m221.6 621.2c3 4.7 20.2 12.7 20.2 12.7s-.3-19-3.3-23.7-9.3-6-13.9-3c-4.7 3.1-6 9.3-3 14z" fill="#fff" opacity=".5"/><path d="m222.4 673.8c5 2.5 23.9.8 23.9.8s-9.9-16.2-14.8-18.7c-5-2.5-11-.5-13.5 4.5-2.6 4.9-.6 10.9 4.4 13.4z" fill="#fff" opacity=".5"/><path d="m231.9 713.5c4.5 3.3 23.4 4.8 23.4 4.8s-7-17.7-11.4-21c-4.5-3.3-10.8-2.4-14.1 2.1-3.4 4.5-2.4 10.8 2.1 14.1z" fill="#fff" opacity=".5"/><path d="m263 635c-4 3.9-22.6 7.9-22.6 7.9s4.5-18.5 8.5-22.3c3.9-4 10.3-4 14.2-.2 4 3.9 4 10.3.2 14.2-.1.2-.2.3-.3.4z" fill="#fff" opacity=".5"/><path d="m273.5 681.6c-5 2.5-23.9.8-23.9.8s9.9-16.2 14.8-18.7c5-2.5 11-.5 13.5 4.5 2.6 4.8.6 10.9-4.4 13.4z" fill="#fff" opacity=".5"/><path d="m277.6 728.2c-4.5 3.3-23.4 4.8-23.4 4.8s7-17.7 11.4-21c4.5-3.3 10.8-2.4 14.1 2.1s2.4 10.8-2.1 14.1z" fill="#fff" opacity=".5"/><g opacity=".6"><path d="m221.3 131.3c-3 2.5-4.6 6.4-4.2 10.3 1.4 12.7 5.5 41.7 15.8 57.9.6 1 1.2 1.9 1.9 2.8h55.5s11.3-42.1 12.1-60.7c.2-4.3-1.7-8.5-5-11.3-8.3-6.9-27.9-22-38.9-21h-.2c-.1 0-4.4-4.8-37 22z" fill="#d6dbe6"/><path d="m217.1 141.6c1.4 12.7 5.5 41.7 15.8 57.9 2.2 1 4.5 1.9 6.7 2.8 14 5.5 27.2 8.7 25.1 0-.5-1.7-1.2-3.4-2.1-4.9-12.7-22.1-6.8-70.4-4.1-88h-.2s-4.2-4.8-36.8 21.9c-3.2 2.5-4.8 6.3-4.4 10.3z" fill="none"/><path d="m217.1 141.6c1.4 12.7 5.5 41.7 15.8 57.9 2.2 1 4.5 1.9 6.7 2.8 14 5.5 27.2 8.7 25.1 0-.5-1.7-1.2-3.4-2.1-4.9-12.7-22.1-6.8-70.4-4.1-88h-.2s-4.2-4.8-36.8 21.9c-3.2 2.5-4.8 6.3-4.4 10.3z" opacity=".05"/><path d="m234.4 200.8c0 2.4 2.1 4.7 5.6 6.5 2.4 1.2 4.9 2.1 7.5 2.7 4.9 1.1 10 1.7 15 1.7 6.1.1 12.1-.8 17.9-2.5 2.4-.7 4.6-1.8 6.7-3.1 2.2-1.6 3.5-3.3 3.5-5.2 0-2.8-2.7-5.3-7.1-7.2-.7-.3-1.5-.6-2.3-.9-6.1-1.9-12.4-2.9-18.8-2.8-8.9 0-16.9 1.6-22 4.1-.9.4-1.7.9-2.5 1.4-2.2 1.5-3.5 3.3-3.5 5.3z" fill="#d6dbe6"/><path d="m233.8 200.8c0 2.4 2.1 4.7 5.6 6.5 2.4 1.2 4.9 2.1 7.5 2.7 4.9 1.1 10 1.7 15 1.7 6.1.1 12.1-.8 17.9-2.5 2.4-.7 4.6-1.8 6.7-3.1 2.2-1.6 3.5-3.3 3.5-5.2 0-2.8-2.7-5.3-7.1-7.2-.7-.3-1.5-.6-2.3-.9-6.1-1.9-12.4-2.9-18.8-2.8-8.9 0-16.9 1.6-22 4.1-.9.4-1.7.9-2.5 1.4-2.2 1.5-3.5 3.3-3.5 5.3z" opacity=".1"/><path d="m267.9 203.7c1.7-3.1.9-7.1-1.9-9.3 0 0-1.9-2.3-.7-4.4 0 0-9.8 6.5-4.8 13.9z" fill="#ffd865"/><path d="m265.5 204c.8-1.4.4-3.2-.9-4.2-.5-.6-.6-1.3-.3-2 0 0-4.4 2.9-2.2 6.3z" fill="#ffd865"/><path d="m265.5 204c.8-1.4.4-3.2-.9-4.2-.5-.6-.6-1.3-.3-2 0 0-4.4 2.9-2.2 6.3z" opacity=".1"/><path d="m240 207.3c2.4 1.2 4.9 2.1 7.5 2.7 8-1.9 31-7.8 36-16.4-.7-.3-1.5-.6-2.3-.9-3.2 3.7-16.2 16.7-41.2 14.6z" fill="#565387"/><path d="m238 195.5c3 5.4 31 11.4 42.4 13.7 2.4-.7 4.6-1.8 6.7-3.1-16.3-.2-32.3-4.3-46.6-12-.9.3-1.7.8-2.5 1.4z" fill="#565387"/><path d="m273.6 130.8c1.6 1.6 1.2 4.3 1 6.6-.3 4.3.8 8.6 3.1 12.2 1.5 2.2 3.5 4.5 3.1 7.1s-3.1 4.4-4.6 6.7-1.6 5.4-1.1 8.3 1.3 5.6 1.5 8.4c.1.6 0 1.3-.2 1.9-.4.6-.8 1.1-1.4 1.5-.9.8-1.7 1.8-2.3 2.9-.3.7-.7 1.3-1.2 1.8-.4.4-.9.7-1.4.9-3.8 1.6-8.1 1.3-11.9.1-3.8-1.4-7.5-3.2-10.9-5.5-1-.5-1.8-1.2-2.5-2-.8-1.2-1.2-2.6-1.2-4.1-.2-3.1.4-6.3.1-9.4s-1.8-6.3-2.7-9.4c-1.7-6-1.4-12.4.7-18.2.8-2.5 2.2-4.6 4.2-6.3 4.4-3.3 10.7-2 15.8-4.1 3.7-1.6 8.5-2.8 11.9.6z" fill="#ffd865" opacity=".35"/></g><g opacity=".6"><path d="m135.5 281.5c-1.8 1.4-2.7 3.7-2.4 6 .8 7.4 3.2 24.1 9.1 33.5.4.6.7 1.1 1.1 1.6h32.1s6.5-24.3 7-35.1c.1-2.5-1-4.9-2.9-6.5-4.8-4-16.1-12.7-22.5-12.1h-.1c-.1 0-2.6-2.8-21.4 12.6z" fill="#d6dbe6"/><path d="m133.1 287.5c.8 7.4 3.2 24.1 9.1 33.5 1.3.5 2.6 1.1 3.9 1.6 8.1 3.2 15.7 5 14.5 0-.3-1-.7-1.9-1.2-2.8-7.4-12.8-4-40.7-2.4-50.9h-.1s-2.4-2.8-21.3 12.7c-1.9 1.4-2.8 3.6-2.5 5.9z" fill="none"/><path d="m133.1 287.5c.8 7.4 3.2 24.1 9.1 33.5 1.3.5 2.6 1.1 3.9 1.6 8.1 3.2 15.7 5 14.5 0-.3-1-.7-1.9-1.2-2.8-7.4-12.8-4-40.7-2.4-50.9h-.1s-2.4-2.8-21.3 12.7c-1.9 1.4-2.8 3.6-2.5 5.9z" opacity=".05"/><path d="m143.1 321.7c0 1.4 1.2 2.7 3.2 3.8 1.4.7 2.9 1.2 4.4 1.6 2.8.7 5.7 1 8.6 1 3.5 0 7-.5 10.3-1.5 1.4-.4 2.7-1 3.9-1.8 1.1-.6 1.9-1.7 2-3 0-1.6-1.5-3.1-4.1-4.2-.4-.2-.9-.4-1.3-.5-3.5-1.1-7.2-1.7-10.9-1.6-5.1 0-9.8.9-12.7 2.4-.5.2-1 .5-1.4.8-1.1.6-1.9 1.7-2 3z" fill="#d6dbe6"/><path d="m142.7 321.7c0 1.4 1.2 2.7 3.2 3.8 1.4.7 2.9 1.2 4.4 1.6 2.8.7 5.7 1 8.6 1 3.5 0 7-.4 10.4-1.5 1.4-.4 2.7-1 3.9-1.8 1.1-.6 1.9-1.7 2-3 0-1.6-1.5-3.1-4.1-4.2-.4-.2-.9-.4-1.3-.5-3.5-1.1-7.2-1.7-10.9-1.6-5.1 0-9.8.9-12.7 2.4-.5.2-1 .5-1.4.8-1.1.6-1.9 1.7-2.1 3z" opacity=".1"/><path d="m162.4 323.4c1-1.8.5-4.1-1.1-5.4-.6-.7-.8-1.7-.4-2.5 0 0-5.7 3.8-2.8 8z" fill="#ffd865"/><path d="m161 323.5c.5-.8.2-1.8-.5-2.4-.3-.3-.3-.8-.2-1.1 0 0-2.5 1.7-1.3 3.6z" fill="#ffd865"/><path d="m161 323.5c.5-.8.2-1.8-.5-2.4-.3-.3-.3-.8-.2-1.1 0 0-2.5 1.7-1.3 3.6z" opacity=".1"/><path d="m146.3 325.5c1.4.7 2.9 1.2 4.4 1.6 4.6-1.1 17.9-4.5 20.8-9.5-.4-.2-.9-.4-1.3-.5-1.9 2.1-9.4 9.6-23.9 8.4z" fill="#565387"/><path d="m145.1 318.6c1.7 3.1 17.9 6.6 24.5 7.9 1.4-.4 2.7-1 3.9-1.8-9.4-.1-18.7-2.5-27-6.9-.4.2-.9.5-1.4.8z" fill="#565387"/><path d="m165.8 281.3c1 .9.7 2.5.6 3.8-.2 2.5.5 5 1.8 7.1.8 1.3 2 2.6 1.8 4.1s-1.8 2.5-2.6 3.9c-.8 1.5-1 3.2-.7 4.8s.8 3.2.9 4.8c.1.4 0 .8-.1 1.1-.2.3-.5.6-.8.9-.5.5-1 1-1.3 1.7-.2.4-.4.7-.7 1.1-.2.2-.5.4-.8.5-2.2.8-4.7.8-6.9 0s-4.3-1.9-6.3-3.2c-.6-.3-1.1-.7-1.5-1.2-.5-.7-.7-1.5-.7-2.4-.1-1.8.3-3.6 0-5.4-.4-1.9-.9-3.7-1.6-5.4-1-3.5-.8-7.1.4-10.5.4-1.4 1.3-2.7 2.4-3.6 2.5-1.9 6.2-1.1 9.1-2.4 2.2-1 4.9-1.7 7 .3z" fill="#ffd865" opacity=".35"/></g><g opacity=".6"><path d="m645.5 262.2c-1.8 1.4-2.7 3.7-2.4 5.9.8 7.4 3.2 24.1 9.1 33.5.4.6.7 1.1 1.1 1.6h32.1s6.5-24.3 7-35.1c.1-2.5-1-4.9-2.9-6.5-4.8-4-16.1-12.7-22.5-12.1h-.1c-.1 0-2.6-2.7-21.4 12.7z" fill="#d6dbe6"/><path d="m643 268.1c.8 7.4 3.2 24.1 9.1 33.5 1.3.5 2.6 1.1 3.9 1.6 8.1 3.2 15.7 5 14.5 0-.3-1-.7-1.9-1.2-2.8-7.4-12.8-4-40.7-2.4-50.9h-.1s-2.4-2.8-21.3 12.7c-1.8 1.4-2.7 3.7-2.5 5.9z" fill="none"/><path d="m643 268.1c.8 7.4 3.2 24.1 9.1 33.5 1.3.5 2.6 1.1 3.9 1.6 8.1 3.2 15.7 5 14.5 0-.3-1-.7-1.9-1.2-2.8-7.4-12.8-4-40.7-2.4-50.9h-.1s-2.4-2.8-21.3 12.7c-1.8 1.4-2.7 3.7-2.5 5.9z" opacity=".05"/><path d="m653.1 302.4c0 1.4 1.2 2.7 3.2 3.8 1.4.7 2.9 1.2 4.4 1.6 2.8.7 5.7 1 8.6 1 3.5 0 7-.5 10.3-1.5 1.4-.4 2.7-1 3.9-1.8 1.1-.6 1.9-1.7 2-3 0-1.6-1.5-3.1-4.1-4.2-.4-.2-.8-.4-1.3-.5-3.5-1.1-7.2-1.7-10.8-1.6-5.2 0-9.8.9-12.7 2.4-.5.2-1 .5-1.4.8-1.2.6-2 1.7-2.1 3z" fill="#d6dbe6"/><path d="m652.7 302.4c0 1.4 1.2 2.7 3.2 3.8 1.4.7 2.9 1.2 4.4 1.6 2.8.7 5.7 1 8.6 1 3.5 0 7-.4 10.4-1.5 1.4-.4 2.7-1 3.9-1.8 1.1-.6 1.9-1.7 2-3 0-1.6-1.5-3.1-4.1-4.2-.4-.2-.8-.4-1.3-.5-3.5-1.1-7.2-1.7-10.8-1.6-5.2 0-9.8.9-12.7 2.4-.5.2-1 .5-1.4.8-1.3.6-2 1.7-2.2 3z" opacity=".1"/><path d="m672.4 304.1c1-1.8.5-4.1-1.1-5.4-.6-.7-.8-1.7-.4-2.5 0 0-5.7 3.8-2.8 8z" fill="#ffd865"/><path d="m671 304.2c.5-.8.2-1.8-.5-2.4-.3-.3-.3-.8-.2-1.1 0 0-2.5 1.7-1.3 3.6z" fill="#ffd865"/><path d="m671 304.2c.5-.8.2-1.8-.5-2.4-.3-.3-.3-.8-.2-1.1 0 0-2.5 1.7-1.3 3.6z" opacity=".1"/><path d="m656.3 306.1c1.4.7 2.9 1.2 4.4 1.6 4.6-1.1 17.9-4.5 20.8-9.5-.4-.2-.8-.4-1.3-.5-1.9 2.2-9.4 9.7-23.9 8.4z" fill="#565387"/><path d="m655.1 299.3c1.7 3.1 17.9 6.6 24.5 7.9 1.4-.4 2.7-1 3.9-1.8-9.4-.1-18.7-2.5-27-6.9-.4.2-.9.5-1.4.8z" fill="#565387"/><path d="m675.8 262c1 .9.7 2.5.6 3.8-.2 2.5.5 5 1.8 7.1.8 1.3 2 2.6 1.8 4.1s-1.8 2.6-2.6 3.9c-.8 1.5-1 3.2-.7 4.8s.8 3.2.9 4.8c.1.4 0 .8-.1 1.1-.2.3-.5.6-.8.9-.5.5-1 1-1.3 1.7-.2.4-.4.7-.7 1.1-.2.2-.5.4-.8.5-2.2.8-4.7.8-6.9 0s-4.3-1.9-6.3-3.2c-.6-.3-1.1-.7-1.5-1.2-.5-.7-.7-1.5-.7-2.4-.1-1.8.3-3.6 0-5.4-.4-1.9-.9-3.7-1.6-5.4-1-3.5-.8-7.1.4-10.5.4-1.4 1.3-2.7 2.4-3.6 2.5-1.9 6.2-1.1 9.1-2.4 2.2-1 4.9-1.7 7 .3z" fill="#ffd865" opacity=".35"/></g><g opacity=".6"><path d="m734.3 99.3c-3 2.5-4.6 6.4-4.2 10.3 1.4 12.7 5.5 41.6 15.8 57.9.6 1 1.2 1.9 1.9 2.8h55.5s11.3-42.1 12.1-60.7c.2-4.3-1.7-8.5-5-11.3-8.3-6.9-27.8-22-38.9-21h-.2c-.1 0-4.4-4.8-37 22z" fill="#d6dbe6"/><path d="m730.1 109.6c1.4 12.7 5.5 41.6 15.8 57.9 2.2 1 4.5 1.9 6.7 2.8 14 5.5 27.2 8.7 25.1 0-.5-1.7-1.2-3.4-2.1-4.9-12.7-22.2-6.8-70.4-4.1-88h-.2s-4.2-4.8-36.8 21.9c-3.2 2.5-4.8 6.3-4.4 10.3z" fill="none"/><path d="m730.1 109.6c1.4 12.7 5.5 41.6 15.8 57.9 2.2 1 4.5 1.9 6.7 2.8 14 5.5 27.2 8.7 25.1 0-.5-1.7-1.2-3.4-2.1-4.9-12.7-22.2-6.8-70.4-4.1-88h-.2s-4.2-4.8-36.8 21.9c-3.2 2.5-4.8 6.3-4.4 10.3z" opacity=".05"/><path d="m747.4 168.8c0 2.4 2.1 4.7 5.6 6.5 2.4 1.2 4.9 2.1 7.5 2.7 4.9 1.1 10 1.7 15 1.7 6.1.1 12.1-.8 17.9-2.5 2.4-.7 4.6-1.8 6.7-3.1 2.2-1.6 3.5-3.3 3.5-5.2 0-2.8-2.7-5.3-7.1-7.2-.7-.3-1.5-.6-2.3-.9-6.1-1.9-12.4-2.9-18.8-2.8-8.9 0-16.9 1.6-22 4.1-.9.4-1.7.9-2.5 1.4-2.2 1.5-3.5 3.3-3.5 5.3z" fill="#d6dbe6"/><path d="m746.8 168.8c0 2.4 2.1 4.7 5.6 6.5 2.4 1.2 4.9 2.1 7.5 2.7 4.9 1.1 10 1.7 15 1.7 6.1.1 12.1-.8 17.9-2.5 2.4-.7 4.6-1.8 6.7-3.1 2.2-1.6 3.5-3.3 3.5-5.2 0-2.8-2.7-5.3-7.1-7.2-.7-.3-1.5-.6-2.3-.9-6.1-1.9-12.4-2.9-18.8-2.8-8.9 0-16.9 1.6-22 4.1-.9.4-1.7.9-2.5 1.4-2.2 1.5-3.5 3.3-3.5 5.3z" opacity=".1"/><path d="m780.9 171.7c1.7-3.1.9-7.1-1.9-9.3 0 0-1.9-2.3-.7-4.4 0 0-9.8 6.5-4.8 13.9z" fill="#ffd865"/><path d="m778.5 172c.8-1.4.4-3.2-.9-4.2-.5-.6-.6-1.3-.3-2 0 0-4.4 2.9-2.2 6.3z" fill="#ffd865"/><path d="m778.5 172c.8-1.4.4-3.2-.9-4.2-.5-.6-.6-1.3-.3-2 0 0-4.4 2.9-2.2 6.3z" opacity=".1"/><path d="m753 175.3c2.4 1.2 4.9 2.1 7.5 2.7 8-1.9 31-7.8 36-16.4-.7-.3-1.5-.6-2.3-.9-3.2 3.7-16.2 16.7-41.2 14.6z" fill="#565387"/><path d="m751 163.5c3 5.4 31 11.4 42.4 13.7 2.4-.7 4.6-1.8 6.7-3.1-16.3-.2-32.3-4.3-46.6-12-.9.3-1.7.8-2.5 1.4z" fill="#565387"/><path d="m786.6 98.8c1.7 1.6 1.2 4.3 1 6.6-.3 4.3.8 8.6 3.1 12.2 1.5 2.2 3.5 4.5 3.1 7.1s-3.1 4.4-4.6 6.7-1.6 5.4-1.2 8.3c.4 2.8 1.3 5.6 1.5 8.4.1.6 0 1.3-.2 1.9-.4.6-.8 1.1-1.4 1.5-.9.8-1.7 1.8-2.3 2.9-.3.7-.7 1.3-1.2 1.8-.4.4-.9.7-1.4.8-3.8 1.6-8.1 1.3-11.9.1-3.8-1.4-7.5-3.2-10.9-5.5-1-.5-1.8-1.2-2.5-2-.8-1.2-1.2-2.6-1.2-4.1-.2-3.1.4-6.3.1-9.4-.4-3.1-1.8-6.3-2.7-9.4-1.7-6-1.4-12.4.7-18.2.8-2.5 2.2-4.6 4.2-6.3 4.4-3.3 10.7-2 15.8-4.1 3.8-1.5 8.6-2.7 12 .7z" fill="#ffd865" opacity=".35"/></g><path d="m452.2 181c-5.1 4.2-7.8 10.7-7.1 17.3 2.3 21.4 9.2 70 26.5 97.3 1 1.6 2.1 3.2 3.2 4.6h93.2s19-70.7 20.3-101.9c.3-7.3-2.8-14.3-8.5-19-14-11.6-46.8-36.9-65.4-35.2h-.4c.1 0-7-8-61.8 36.9z" fill="#d6dbe6"/><path d="m445.1 198.3c2.3 21.4 9.2 70 26.5 97.3 3.7 1.6 7.5 3.2 11.3 4.6 23.4 9.2 45.8 14.6 42.1 0-.8-2.9-2-5.6-3.6-8.2-21.4-37.2-11.5-118.3-7-147.9h-.4s-7.1-8.1-61.9 36.8c-5.1 4.3-7.7 10.8-7 17.4z" fill="none"/><path d="m445.1 198.3c2.3 21.4 9.2 70 26.5 97.3 3.7 1.6 7.5 3.2 11.3 4.6 23.4 9.2 45.8 14.6 42.1 0-.8-2.9-2-5.6-3.6-8.2-21.4-37.2-11.5-118.3-7-147.9h-.4s-7.1-8.1-61.9 36.8c-5.1 4.3-7.7 10.8-7 17.4z" opacity=".05"/><path d="m474.2 297.8c0 4.1 3.5 7.9 9.4 10.9 4 2 8.3 3.5 12.7 4.5 8.2 1.9 16.7 2.9 25.1 2.8 11.5 0 21.9-1.6 30.1-4.2 4-1.2 7.8-3 11.3-5.3 3.7-2.6 5.8-5.6 5.8-8.8 0-4.6-4.5-8.9-11.9-12.1-1.2-.5-2.5-1-3.8-1.5-8.3-2.9-19.4-4.7-31.5-4.7-15 0-28.3 2.7-37 6.9-1.5.7-2.9 1.5-4.2 2.4-3.8 2.8-6 5.8-6 9.1z" fill="#d6dbe6"/><path d="m473.2 297.8c0 4.1 3.5 7.9 9.4 10.9 4 2 8.3 3.5 12.7 4.5 8.2 1.9 16.7 2.9 25.1 2.8 11.5 0 21.9-1.6 30.1-4.2 4-1.2 7.8-3 11.3-5.3 3.7-2.6 5.8-5.6 5.8-8.8 0-4.6-4.5-8.9-11.9-12.1-1.2-.5-2.5-1-3.8-1.5-8.3-2.9-19.4-4.7-31.5-4.7-15 0-28.3 2.7-37 6.9-1.5.7-2.9 1.5-4.2 2.4-3.8 2.8-6 5.8-6 9.1z" opacity=".1"/><path d="m530.4 302.7s5.1-8.4-3.2-15.6c0 0-3.2-3.9-1.3-7.4 0 0-16.5 10.9-8.1 23.4z" fill="#ffd865"/><path d="m526.4 303.1c1.3-2.4.7-5.3-1.5-7 0 0-1.5-1.8-.6-3.3 0 0-7.4 4.9-3.6 10.5z" fill="#ffd865"/><path d="m526.4 303.1c1.3-2.4.7-5.3-1.5-7 0 0-1.5-1.8-.6-3.3 0 0-7.4 4.9-3.6 10.5z" opacity=".1"/><path d="m483.6 308.7c4 2 8.3 3.5 12.7 4.5 13.5-3.1 52-13.2 60.4-27.6-1.2-.5-2.5-1-3.8-1.5-5.4 6.4-27.3 28.2-69.3 24.6z" fill="#565387"/><path d="m480.3 288.8c5 9.1 52.1 19.2 71.3 23 4-1.2 7.8-3 11.3-5.3-27.3-.3-54.2-7.3-78.3-20.1-1.6.7-3 1.5-4.3 2.4z" fill="#565387"/><path d="m540.2 180.3c2.8 2.7 2 7.2 1.7 11.1-.5 7.2 1.3 14.4 5.3 20.5 2.5 3.8 5.8 7.6 5.2 12s-5.2 7.4-7.7 11.3-2.7 9.2-1.9 13.9 2.2 9.3 2.6 14.1c.2 1.1 0 2.2-.4 3.2-.6 1-1.4 1.9-2.3 2.6-1.6 1.4-2.9 3-3.8 4.9-.5 1.1-1.1 2.2-2 3.1-.7.6-1.5 1.1-2.4 1.4-6.3 2.6-13.5 2.2-20.1.1s-12.4-5.7-18.2-9.2c-1.6-.9-3.1-2-4.3-3.4-1.4-2-2.1-4.4-2.1-6.9-.3-5.3.7-10.6.1-15.8-.7-5.4-3-10.5-4.6-15.8-2.8-10.1-2.4-20.8 1.2-30.6 1.5-4 3.6-8 7-10.6 7.3-5.6 18-3.3 26.5-6.9 6.3-2.7 14.3-4.8 20.2 1z" fill="#ffd865" opacity=".35"/><path d="m469.9 844.3c6.6 3.7 22.9.9 33-1.4 3.3-.7 5.4-4 4.6-7.3-.2-.8-.5-1.5-.9-2.1l-2.8-4.1-1.1-.2h.9l10.3-44.3c6-20 2.7-35.3 0-47.3-1.3-5.7 1.7-18.5 5.2-30.2 5.7 2.5 11.4 4.4 16.1 4.9 2.9.3 6.2.7 9.6.9 3.6 9.6 6.8 18 7.1 19.1 4.3 17.2 25.3 25.3 25.3 25.3l53.6 60.9s-3.3 8.7-10 11.3c0 0-16.6 4-6 8 7.1 2.7 22.8-2.7 32.5-6.5 3.1-1.2 4.6-4.8 3.4-7.9-.3-.7-.7-1.3-1.2-1.9l-3.4-3.6h-.3l-16.7-35.6c-2-10-20.6-37.9-32-43.3-6.6-3.1-12.3-17.5-15.9-29 5.1-1.8 9.7-4.9 13.2-9 12.7-15.3 18-6.7 42.6-12.7 31.2-7.6 19.2-29 15.6-29.1-16.7-7.6-60-47.7-64.5-51.8.8-.4 1.3-.7 1.3-.7l-1.6.4-.1-.1c-.7-3-1.7-5.9-2.9-8.7 2 1.8 4.2 3.4 6.5 4.9 7.8 5.1 17.5 8.4 26.3 5.5l-.2-.2c.5-.1 1-.3 1.5-.4-5.2-5.6-8.4-12.8-9-20.5 4.3-.7 8.4-2.1 12.3-4.2 15.3-7.3 26.2-23.8 25.7-40.9-.2-6.5-1.9-13.1-.4-19.5 1.4-5.9 2.8-8.3 3.9-14.2 3.3-18 6.7-14.6 3.7-28.1-1.5-6.9-9.7-10.4-13.4-16.5-5.3-8.9-5.5-19.8-7-30.1s-5.2-21.5-14.4-26.3c-13.1-6.8-22.2-23.5-35.3-21.5-.7.1-1.4.2-2.1.3-5-2.8-10.6-4-16.3-3.6-3.3.3-6.7 1.1-10 1.1-3.7 0-7.3-1.1-10.4-3-.2.4-.3.8-.4 1.2-.3-.2-.6-.3-.9-.5-.9 2.3-1.2 4.7-1 7.1-5.2 1.3-9.8 4.1-13.3 8.1-.8-5.4-1.2-8.8-1.2-8.8l-1.3-65.9s15.3-26 .7-26-14 23.3-14 23.3l-4 50.6c-2.7 18 0 30 0 30 6.9 18.2 10.9 45.2 12.5 58-20.2 15.3-25.8 28.8-25.6 40-.3 11.5 5.8 20.7 9.1 27.1.8 1.6 1.2 4.8 1.2 9.4-.3 38-21.5 154.6-21.5 154.6l.2.1-.2 1.2 1.1.5c-1.3 4-2.7 8-4.1 11.9-7.3 19.3 0 32.6 0 32.6l6.9 91.6-.6-.1s-5.8 8.4-12.8 10c.1.2-17 1.6-7.1 7.2zm95.6-276.8c-6.4-7.1-9.9-16.3-10-25.7.1-6.8 1.7-13.5 4.6-19.6 2.2-8.5 3.7-17.2 4.6-26 .4 4.8.4 9.7.2 14.5-.9 19-4.4 38.4.6 56.8z" fill="url(#a)"/><path d="m558.5 470.8c5.7 9.7 4.7 27.5-3.3 59.9 0 0-9.1 24.7 9.1 45.5s22.1 39 22.1 39 57.2 35.4 64.4 51.4c-10.7-23.8 24.5 10.3-16.3 20.2-24.1 5.9-29.3-2.6-41.6 12.4s-40.3 13-57.9 11.1-47.5-22.8-47.5-22.8 33.2-139.9 26-153.6c-6.8-12.9-31.1-37.5 16.6-69.3 9.5-6.2 22.5-3.6 28.4 6.2z" fill="#f0898b"/><path d="m558.5 470.8c5.7 9.7 4.7 27.5-3.3 59.9 0 0-9.1 24.7 9.1 45.5s22.1 39 22.1 39 57.6 35.3 64.4 51.4c-10.1-23.8 24.5 10.3-16.3 20.2-24.1 5.9-29.3-2.6-41.6 12.4s-40.3 13-57.9 11.1-47.5-22.8-47.5-22.8 33.2-139.9 26-153.6c-6.8-12.9-31.1-37.5 16.6-69.3 9.5-6.2 22.5-3.6 28.4 6.2z" fill="#ffdf9c"/><path d="m558.5 470.8c5.7 9.7 4.7 27.5-3.3 59.9 0 0-9.1 24.7 9.1 45.5s22.1 39 22.1 39 57.6 35.3 64.4 51.4c-10.1-23.8 24.5 10.3-16.3 20.2-24.1 5.9-29.3-2.6-41.6 12.4s-40.3 13-57.9 11.1-47.5-22.8-47.5-22.8 33.2-139.9 26-153.6c-6.8-12.9-31.1-37.5 16.6-69.3 9.5-6.2 22.5-3.6 28.4 6.2z" fill="#ef4d70"/><path d="m576 693.4s8.5 37.7 19.5 42.9 29.3 32.5 31.2 42.3l16.6 35.5h-15l-52.3-59.5s-20.5-8-24.7-24.7c-.7-2.6-18.2-48.2-18.2-48.2z" fill="#fec2be"/><path d="m527.3 681.7s-15.6 41.6-13 53.4 5.9 26.7 0 46.2l-10.1 43.3-13-.7-6.8-90.8s-7.2-13 0-31.9 12.3-42.3 12.3-42.3z" fill="#fec2be"/><path d="m524 468.9s-3.9-39.7-13-63.8c0 0-2.6-11.7 0-29.3l3.9-49.5s-.7-22.8 13.7-22.8-.7 25.4-.7 25.4l1.3 64.4s8.5 65.7 14.3 72.9z" fill="#fec2be"/><path d="m524 468.9s-3.9-39.7-13-63.8c0 0-2.6-11.7 0-29.3l3.9-49.5s-.7-22.8 13.7-22.8-.7 25.4-.7 25.4l1.3 64.4s8.5 65.7 14.3 72.9z" opacity=".05"/><path d="m527.3 422.1s2.6 31.2-5.2 41.6c0 0 18.2-9.8 33.8-1.3 0 0-9.8-26.7-6.5-38.4z" fill="#fec2be"/><path d="m558.5 463c5.7 9.7 8.6 27.5.6 59.9 0 0-13 24.7 5.2 45.5s22.1 39 22.1 39 48.2 44.9 64.4 51.4c0 0 7.8 14.3-16.3 20.2s-29.3-2.6-41.6 12.4-40.3 13-57.9 11.1-47.8-14.6-47.8-14.6 27-148 19.8-161.7c-6.8-12.9-24.6-37.5 23.1-69.3 9.5-6.4 22.5-3.7 28.4 6.1z" fill="#fc6681"/><circle cx="539" cy="478.7" fill="#fec2be" r="22.1"/><path d="m546.8 487.8 4.5 68.3-15 72.9s13.7 48.2 0 43.6-14.3-44.2-14.3-44.2l9.1-76.1s-11.1-57.3-9.1-69 24.8 4.5 24.8 4.5z" opacity=".1"/><path d="m546.8 486.5 4.5 68.3-15 72.9s13.7 48.2 0 43.6-14.3-44.2-14.3-44.2l9.1-76.1s-11.1-57.3-9.1-69 24.8 4.5 24.8 4.5z" fill="#fec2be"/><path d="m549.7 443.2c-9.2 0-17.6-2.6-22-10-.1-5.8-.4-9.9-.4-9.9l22.1 2c-1.4 5-.6 9.3 1 16.6-.5.1-.3 1.3-.7 1.3z" opacity=".03"/><circle cx="549.4" cy="418.8" fill="#fec2be" r="25.4"/><path d="m521.7 516.8s-2 9.8-14.6 10.7" opacity=".03"/><path d="m589.1 691.5c12.4-15 17.6-6.5 41.6-12.4s16.3-20.2 16.3-20.2c-16.3-6.5-64.4-51.4-64.4-51.4s-3.9-18.2-22.1-39-5.2-45.5-5.2-45.5c8-32.5 5.1-50.2-.6-59.9-3.2-5.4-8.8-8.9-15.1-9.5 7.6-.8 15.1 2.9 19 9.5 5.7 9.7 8.6 27.5.6 59.9 0 0-13 24.7 5.2 45.5s22.1 39 22.1 39 48.2 44.9 64.4 51.4c0 0 7.8 14.3-16.3 20.2s-29.3-2.6-41.6 12.4c-8.5 10.3-24.6 12.6-39.4 12.4 13.6-.3 27.7-3 35.5-12.4z" opacity=".03"/><path d="m540.2 448.3c.8-1.8 2.6-3 3.9-4.5 4.3-4.9 3.5-12.2 3.8-18.7.3-6.2 1.6-12.3 4.1-18-1.5-.8-2.9-1.8-4.1-3-4.2-4.5-5.5-11.1-3.3-16.9 3.1 1.9 6.6 2.9 10.1 2.9 3.3 0 6.5-.8 9.8-1 5.5-.4 11.1.8 15.9 3.5.7-.1 1.4-.1 2-.3 12.8-1.9 21.7 14.4 34.5 21 9 4.7 12.6 15.6 14 25.7s1.6 20.7 6.8 29.4c3.6 5.9 11.6 9.4 13.1 16.1 2.9 13.2-.3 9.9-3.6 27.5-1.1 5.8-2.5 8.1-3.8 13.9-1.5 6.2.2 12.7.4 19 .7 20.9-16.3 41-37.1 43.6.6 7.6 3.8 14.9 9 20.5-8.6 2.8-18.1-.4-25.7-5.4-12.3-8.1-21.3-20.3-25.3-34.5-5.1-18.1-1.6-37.4-.8-56.3s-2.2-39.8-16.5-52c-4.1-3.2-9.4-7.7-7.2-12.5z" opacity=".1"/><path d="m541.5 447.6c.8-1.8 2.6-3 3.9-4.5 4.3-4.9 3.5-12.2 3.8-18.7.3-6.2 1.6-12.3 4.1-18-1.5-.8-2.9-1.8-4.1-3-4.2-4.5-5.5-11.1-3.3-16.9 3.1 1.9 6.6 2.9 10.2 2.9 3.3 0 6.5-.8 9.8-1 5.5-.4 11 .8 15.9 3.5.7-.1 1.4-.1 2-.3 12.8-1.9 21.7 14.4 34.5 21 9 4.7 12.6 15.6 14 25.7s1.6 20.7 6.8 29.4c3.6 5.9 11.6 9.4 13.1 16.1 2.9 13.2-.3 9.9-3.6 27.5-1.1 5.8-2.5 8.1-3.8 13.9-1.5 6.2.2 12.7.4 19 .7 20.9-16.3 41-37.1 43.6.6 7.6 3.7 14.8 8.9 20.5-8.6 2.8-18.1-.4-25.7-5.4-12.3-8.1-21.3-20.3-25.3-34.5-5.1-18.1-1.6-37.4-.8-56.3s-2.2-39.8-16.5-52c-4.1-3.2-9.4-7.7-7.2-12.5z" fill="#af637c"/><path d="m628.4 814.1s-3.3 8.5-9.8 11.1c0 0-16.3 3.9-5.9 7.8 7 2.6 22.3-2.6 31.8-6.4 3.1-1.3 4.5-4.8 3.3-7.8-.3-.6-.6-1.2-1.1-1.8l-3.3-3.5z" fill="#4c4981"/><path d="m490.5 822.6s-5.6 8.2-12.5 9.8c0 0-16.7 1.3-7 6.8 6.4 3.6 22.4.9 32.3-1.3 3.2-.7 5.3-3.9 4.5-7.2-.2-.7-.5-1.4-.9-2l-2.7-4z" fill="#4c4981"/><path d="m588.1 607.2s-15 8.5-31.9 7.8" opacity=".03"/><path d="m669.8 846.8c-2.3-2.2-4.5-4.7-5.2-7.8s.7-6.8 3.6-8c3.3-1.3 6.9 1 9.6 3.4s5.8 5 9.3 4.5c-3.7-3.4-5.4-8.4-4.4-13.3.2-1 .6-1.9 1.2-2.7 1.8-2 5.2-1.1 7.4.4 7 5 9 14.5 9 23.2.7-3.1.1-6.3.1-9.5s.9-6.7 3.6-8.4c1.7-.9 3.6-1.3 5.5-1.3 3.2-.1 6.7.2 8.9 2.5 2.7 2.9 2 7.7-.3 10.9s-5.9 5.2-9.2 7.3c-2.6 1.6-4.9 3.7-6.5 6.3-.2.4-.4.7-.5 1.1h-19.9c-4.4-2.4-8.6-5.3-12.2-8.6z" fill="#8a3aff"/><path d="m851.8 689.8s74.3 54.1-76.6 114.5c0 0-26.7-61.9 12.7-107.1 15.8-18.2 42.8-21.7 62.8-8.2z" fill="#8a3aff"/><path d="m851 688.7s-71.6 45.5-75.7 115.5" fill="none" stroke="#535461" stroke-miterlimit="10"/><path d="m773.7 796.1s24.7-83.8-4.6-145.4c-12.3-25.9-16.4-54.9-10.7-83 2.7-13.3 6.6-26.4 11.8-39" fill="none" stroke="#535461" stroke-miterlimit="10" stroke-width="2"/><path d="m751.9 489.8c0 10.3 18.6 40 18.6 40s18.6-29.8 18.6-40c-.2-10.3-8.8-18.4-19-18.2-9.9.3-17.9 8.3-18.2 18.2z" fill="#8a3aff"/><path d="m721.2 546.7c5.6 8.6 37.4 23.5 37.4 23.5s-.6-35.1-6.2-43.7c-5.8-8.5-17.4-10.6-25.8-4.9-8.2 5.6-10.6 16.6-5.4 25.1z" fill="#8a3aff"/><path d="m722.5 643.9c9.2 4.6 44.1 1.4 44.1 1.4s-18.2-30-27.4-34.6c-9.3-4.4-20.4-.5-24.8 8.7-4.2 9-.7 19.8 8.1 24.5z" fill="#8a3aff"/><path d="m740.1 717.1c8.3 6.1 43.2 8.9 43.2 8.9s-12.9-32.6-21.1-38.8-19.9-4.5-26 3.7c-6.2 8.2-4.5 19.9 3.7 26 .1.1.1.2.2.2z" fill="#8a3aff"/><path d="m797.6 572.2c-7.4 7.2-41.7 14.6-41.7 14.6s8.4-34.1 15.8-41.2c7.4-7.2 19.1-7 26.3.4 7.2 7.3 7 19-.4 26.2z" fill="#8a3aff"/><path d="m817 658.1c-9.2 4.6-44.1 1.4-44.1 1.4s18.2-30 27.4-34.6c9-4.9 20.3-1.4 25.2 7.6s1.4 20.3-7.6 25.2c-.3.2-.6.3-.9.4z" fill="#8a3aff"/><path d="m824.5 744.3c-8.3 6.1-43.2 8.9-43.2 8.9s12.9-32.6 21.1-38.8c8.3-6 19.9-4.2 26 4.1 5.9 8.2 4.2 19.7-3.9 25.8z" fill="#8a3aff"/><path d="m751.9 489.8c0 10.3 18.6 40 18.6 40s18.6-29.8 18.6-40c-.2-10.3-8.8-18.4-19-18.2-9.9.3-17.9 8.3-18.2 18.2z" opacity=".25"/><path d="m721.2 546.7c5.6 8.6 37.4 23.5 37.4 23.5s-.6-35.1-6.2-43.7c-5.8-8.5-17.4-10.6-25.8-4.9-8.2 5.6-10.6 16.6-5.4 25.1z" opacity=".25"/><path d="m722.5 643.9c9.2 4.6 44.1 1.4 44.1 1.4s-18.2-30-27.4-34.6c-9.3-4.4-20.4-.5-24.8 8.7-4.2 9-.7 19.8 8.1 24.5z" opacity=".25"/><path d="m740.1 717.1c8.3 6.1 43.2 8.9 43.2 8.9s-12.9-32.6-21.1-38.8-19.9-4.5-26 3.7c-6.2 8.2-4.5 19.9 3.7 26 .1.1.1.2.2.2z" opacity=".25"/><path d="m797.6 572.2c-7.4 7.2-41.7 14.6-41.7 14.6s8.4-34.1 15.8-41.2c7.4-7.2 19.1-7 26.3.4 7.2 7.3 7 19-.4 26.2z" opacity=".25"/><path d="m817 658.1c-9.2 4.6-44.1 1.4-44.1 1.4s18.2-30 27.4-34.6c9-4.9 20.3-1.4 25.2 7.6s1.4 20.3-7.6 25.2c-.3.2-.6.3-.9.4z" opacity=".25"/><path d="m824.5 744.3c-8.3 6.1-43.2 8.9-43.2 8.9s12.9-32.6 21.1-38.8c8.3-6 19.9-4.2 26 4.1 5.9 8.2 4.2 19.7-3.9 25.8z" opacity=".25"/></svg>