<svg enable-background="new 0 0 300 150" viewBox="0 0 300 150" xmlns="http://www.w3.org/2000/svg"><g fill="#8a3aff"><path d="m28.4 87.1h-4.2v-7.4l-6.5-11.3h4.5l4.1 7 4.1-7h4.5l-6.5 11.3z"/><path d="m49.6 79.9c0 2.1-.7 3.9-2.2 5.3-1.4 1.4-3.3 2.1-5.5 2.1s-4-.7-5.5-2.1c-1.4-1.4-2.2-3.2-2.2-5.3s.7-3.9 2.2-5.3c1.4-1.4 3.3-2.2 5.5-2.2s4 .7 5.5 2.2c1.4 1.4 2.2 3.2 2.2 5.3zm-11.3 0c0 1.2.3 2.1 1 2.9.7.7 1.5 1.1 2.6 1.1s1.9-.4 2.6-1.1 1-1.7 1-2.9-.3-2.1-1-2.9-1.5-1.1-2.6-1.1-1.9.3-2.5 1.1c-.7.7-1.1 1.7-1.1 2.9z"/><path d="m61.8 80.4v-7.8h4.1v14.4h-4.1v-1.9c-1 1.4-2.3 2.1-3.9 2.1s-2.9-.5-4-1.5-1.6-2.5-1.6-4.4v-8.7h4.1v7.9c0 2.2.8 3.3 2.4 3.3.8 0 1.5-.3 2.1-.9.6-.5.9-1.3.9-2.5z"/><path d="m77.3 76.2c-1.2 0-2.1.4-2.7 1.3-.6.8-.9 2-.9 3.4v6.3h-4v-14.5h4v1.9c.5-.6 1.2-1.1 1.9-1.5.8-.4 1.6-.6 2.4-.6v3.8h-.7z"/><path d="m88.1 70.8c-.5-.5-.7-1-.7-1.7s.2-1.2.7-1.7 1-.7 1.7-.7 1.2.2 1.7.7.7 1 .7 1.7-.2 1.2-.7 1.7-1 .7-1.7.7c-.6 0-1.2-.2-1.7-.7zm3.7 16.3h-4v-14.4h4z"/><path d="m99.7 79.1v8h-4v-14.4h4v1.6c1.2-1.2 2.6-1.9 4.1-1.9s2.8.5 3.8 1.6 1.5 2.5 1.5 4.3v8.8h-4v-8.2c0-2.2-.8-3.3-2.4-3.3-.8 0-1.5.3-2.1.9s-.9 1.4-.9 2.6z"/><path d="m116.4 87.1-5.7-14.5h4.2l3.6 9.1 3.6-9.1h4.2l-5.7 14.5z"/><path d="m130.8 92.8c-1.4 0-2.7-.6-4-1.7l1.8-3c.7.7 1.4 1 2.1 1 .4 0 .7-.2 1-.5.3-.4.4-.8.4-1.2s-1.9-5.3-5.6-14.7h4.3l3.5 9 3.5-9h4.3l-6.7 17c-.4 1-1 1.7-1.8 2.3-.9.5-1.8.8-2.8.8z"/><path d="m148.9 75.6v6.4c0 .6.1 1 .4 1.3s.6.5 1 .5c.8 0 1.4-.3 1.9-1l1.5 2.8c-1.3 1.1-2.6 1.7-4 1.7s-2.6-.5-3.5-1.4c-1-.9-1.4-2.2-1.4-3.7v-6.7h-1.7v-2.9h1.7v-4.3h4.1v4.3h3.5v2.9h-3.5z"/><path d="m167 79.3v7.8h-4v-19.9h4v7.1c1.2-1.2 2.6-1.9 4.1-1.9s2.8.5 3.8 1.6 1.6 2.5 1.6 4.3v8.8h-4v-7.9c0-2.2-.8-3.3-2.4-3.3-.8 0-1.5.3-2.1.9s-1 1.4-1 2.5z"/><path d="m192.4 87.1h-3.8v-1.7c-1 1.3-2.3 2-3.8 2s-2.8-.4-3.8-1.3-1.6-2.1-1.6-3.5.5-2.6 1.6-3.3 2.5-1.1 4.4-1.1h3v-.2c0-1.5-.8-2.3-2.4-2.3-.7 0-1.4.1-2.2.4s-1.4.6-2 1l-1.8-2.6c1.9-1.4 4.1-2.1 6.5-2.1 1.8 0 3.2.4 4.3 1.3s1.7 2.3 1.7 4.2v9.2zm-4.1-5.5v-.7h-2.5c-1.6 0-2.4.5-2.4 1.5 0 .5.2.9.6 1.2s.9.4 1.7.4c.7 0 1.3-.2 1.9-.7.4-.4.7-1 .7-1.7z"/><path d="m206.9 82.6c0 1.4-.5 2.6-1.6 3.4-1 .9-2.4 1.3-4 1.3-1.1 0-2.2-.2-3.4-.6s-2.2-1-3.1-1.7l1.8-2.5c1.5 1.2 3.1 1.7 4.8 1.7.5 0 .9-.1 1.2-.3s.5-.5.5-.8-.2-.7-.6-.9c-.4-.3-1-.6-1.8-.8-.8-.3-1.4-.5-1.8-.6-.4-.2-.9-.4-1.4-.8-1.1-.7-1.6-1.7-1.6-3s.5-2.4 1.6-3.3c1.1-.8 2.5-1.3 4.2-1.3s3.4.6 5.1 1.7l-1.5 2.7c-1.3-.9-2.5-1.3-3.7-1.3s-1.9.3-1.9 1c0 .4.2.7.6.9s1 .5 2 .8c.9.3 1.6.5 1.9.7l1.4.7c.8.6 1.3 1.6 1.3 3z"/><path d="m225.4 72.4c1.8 0 3.3.7 4.6 2.1s2 3.1 2 5.3c0 2.1-.7 3.9-2 5.4-1.3 1.4-2.9 2.2-4.6 2.2s-3.1-.7-4.3-2.1v1.9h-4v-20h4v7.1c1.1-1.3 2.5-1.9 4.3-1.9zm-4.4 7.5c0 1.2.3 2.1 1 2.9.7.7 1.4 1.1 2.4 1.1.9 0 1.7-.4 2.4-1.1s1-1.7 1-2.9-.3-2.1-1-2.9-1.5-1.2-2.4-1.2-1.7.4-2.4 1.2c-.6.8-1 1.7-1 2.9z"/><path d="m247.4 85c-1.6 1.5-3.5 2.3-5.7 2.3s-4-.7-5.4-2-2.1-3.2-2.1-5.4c0-2.3.7-4.1 2.2-5.4s3.2-2 5.2-2 3.7.6 5.1 1.8 2.1 2.8 2.1 4.9v2.1h-10.5c.1.8.5 1.4 1.2 1.9s1.5.8 2.4.8c1.4 0 2.6-.5 3.5-1.4zm-3.8-8.6c-.6-.5-1.2-.7-2-.7s-1.5.2-2.2.7-1 1.1-1.2 2h6.3c-.1-.8-.4-1.5-.9-2z"/><path d="m264 85c-1.6 1.5-3.5 2.3-5.7 2.3s-4-.7-5.4-2-2.1-3.2-2.1-5.4c0-2.3.7-4.1 2.2-5.4s3.2-2 5.2-2 3.7.6 5.1 1.8 2.1 2.8 2.1 4.9v2.1h-10.5c.1.8.5 1.4 1.2 1.9s1.5.8 2.4.8c1.4 0 2.6-.5 3.5-1.4zm-3.9-8.6c-.6-.5-1.2-.7-2-.7s-1.5.2-2.2.7-1 1.1-1.2 2h6.3c0-.8-.3-1.5-.9-2z"/><path d="m272.1 79.1v8h-4v-14.4h4v1.6c1.2-1.2 2.6-1.9 4.1-1.9s2.8.5 3.8 1.6 1.5 2.5 1.5 4.3v8.8h-4v-8.2c0-2.2-.8-3.3-2.4-3.3-.8 0-1.5.3-2.1.9s-.9 1.4-.9 2.6z"/><path d="m106.2 115.9c1.3 0 2.5-.7 3.6-2l2.4 2.7c-1.9 1.9-3.9 2.9-6 2.9s-4-.7-5.5-2.1-2.2-3.2-2.2-5.4.8-4 2.3-5.4 3.3-2.1 5.4-2.1c1 0 2.1.2 3.2.6s2 1.1 2.8 1.9l-2.1 2.7c-.5-.6-1-1-1.7-1.3s-1.3-.5-2-.5c-1.1 0-2 .3-2.7 1-.8.7-1.1 1.6-1.1 2.9s.4 2.2 1.1 2.9c.6.9 1.5 1.2 2.5 1.2z"/><path d="m122.5 108.4c-1.2 0-2.1.4-2.7 1.3-.6.8-.9 2-.9 3.4v6.3h-4v-14.4h4v1.9c.5-.6 1.2-1.1 1.9-1.5.8-.4 1.6-.6 2.4-.6v3.8h-.7z"/><path d="m138.4 117.2c-1.6 1.5-3.5 2.3-5.7 2.3s-4-.7-5.4-2-2.1-3.2-2.1-5.4.7-4.1 2.2-5.4 3.2-2 5.2-2 3.7.6 5.1 1.8 2.1 2.8 2.1 4.9v2.1h-10.5c.1.8.5 1.4 1.2 1.9s1.5.8 2.4.8c1.4 0 2.6-.5 3.5-1.4zm-3.8-8.6c-.6-.5-1.2-.7-2-.7s-1.5.2-2.2.7-1 1.1-1.2 2h6.3c-.1-.8-.4-1.5-.9-2z"/><path d="m154.8 119.3h-3.8v-1.7c-1 1.3-2.3 2-3.8 2s-2.8-.4-3.8-1.3-1.6-2.1-1.6-3.5.5-2.6 1.6-3.3 2.5-1.1 4.4-1.1h3v-.1c0-1.5-.8-2.3-2.4-2.3-.7 0-1.4.1-2.2.4s-1.4.6-2 1l-1.8-2.6c1.9-1.4 4.1-2.1 6.5-2.1 1.8 0 3.2.4 4.3 1.3s1.7 2.3 1.7 4.2v9.1zm-4.1-5.5v-.7h-2.5c-1.6 0-2.4.5-2.4 1.5 0 .5.2.9.6 1.2s.9.4 1.7.4c.7 0 1.3-.2 1.9-.7.4-.4.7-1 .7-1.7z"/><path d="m163.1 107.8v6.5c0 .6.1 1 .4 1.3s.6.5 1 .5c.8 0 1.4-.3 1.9-1l1.5 2.8c-1.3 1.1-2.6 1.7-4 1.7s-2.6-.5-3.5-1.4c-1-.9-1.4-2.2-1.4-3.7v-6.7h-1.7v-2.9h1.7v-4.3h4.1v4.3h3.5v2.9z"/><path d="m182.6 117.2c-1.6 1.5-3.5 2.3-5.7 2.3s-4-.7-5.4-2-2.1-3.2-2.1-5.4.7-4.1 2.2-5.4 3.2-2 5.2-2 3.7.6 5.1 1.8 2.1 2.8 2.1 4.9v2.1h-10.5c.1.8.5 1.4 1.2 1.9s1.5.8 2.4.8c1.4 0 2.6-.5 3.5-1.4zm-3.9-8.6c-.6-.5-1.2-.7-2-.7s-1.5.2-2.2.7-1 1.1-1.2 2h6.3c0-.8-.3-1.5-.9-2z"/><path d="m192.4 119.5c-1.7 0-3.2-.7-4.6-2.2-1.3-1.4-2-3.2-2-5.4 0-2.1.7-3.9 2-5.3s2.8-2.1 4.6-2.1 3.2.6 4.3 1.9v-7.1h4v19.9h-4v-1.9c-1.1 1.5-2.6 2.2-4.3 2.2zm-2.5-7.4c0 1.2.3 2.1 1 2.9.7.7 1.5 1.1 2.4 1.1s1.7-.4 2.4-1.1 1-1.7 1-2.9-.3-2.1-1-2.9-1.5-1.2-2.4-1.2-1.8.4-2.4 1.2c-.7.8-1 1.7-1 2.9z"/><path d="m204.5 100.5h4.7v3.3l-.8 9.7h-3.2l-.8-9.7v-3.3zm.7 18.3c-.5-.5-.7-1-.7-1.7s.2-1.2.7-1.7 1-.7 1.7-.7 1.2.2 1.7.7.7 1 .7 1.7-.2 1.2-.7 1.7-1 .7-1.7.7-1.3-.2-1.7-.7z"/></g></svg>