<svg enable-background="new 0 0 720 680" viewBox="0 0 720 680" xmlns="http://www.w3.org/2000/svg" xmlns:xlink="http://www.w3.org/1999/xlink"><linearGradient id="a"><stop offset="0" stop-color="#808080" stop-opacity=".25"/><stop offset=".54" stop-color="#808080" stop-opacity=".12"/><stop offset="1" stop-color="#808080" stop-opacity=".1"/></linearGradient><linearGradient id="b" gradientTransform="matrix(1 0 0 -1 0 682)" gradientUnits="userSpaceOnUse" x1="340.4969" x2="340.4969" xlink:href="#a" y1="57.4611" y2="506.1643"/><linearGradient id="c" gradientTransform="matrix(1 0 0 -1 -100 652.78)" gradientUnits="userSpaceOnUse" x1="440.4969" x2="440.4969" xlink:href="#a" y1="33.0432" y2="178.1143"/><linearGradient id="d" gradientTransform="matrix(-.9428 -.3335 .3335 -.9428 -803.2805 510.4316)" gradientUnits="userSpaceOnUse" x1="-1041.514" x2="-1041.514" xlink:href="#a" y1="605.1253" y2="654.761"/><linearGradient id="e" gradientTransform="matrix(-.9328 .3605 -.3605 -.9328 -318.5668 841.6302)" gradientUnits="userSpaceOnUse" x1="-925.447" x2="-925.447" xlink:href="#a" y1="255.9687" y2="305.6044"/><linearGradient id="f" gradientTransform="matrix(-.9908 -.135 .135 -.9908 -987.0525 602.248)" gradientUnits="userSpaceOnUse" x1="-1315.3931" x2="-1315.3931" xlink:href="#a" y1="551.7946" y2="601.4302"/><linearGradient id="g" gradientTransform="matrix(-.9908 -.135 .135 -.9908 -987.0428 602.2203)" gradientUnits="userSpaceOnUse" x1="-1200.7135" x2="-1200.7135" xlink:href="#a" y1="453.9584" y2="503.5941"/><linearGradient id="h" gradientTransform="matrix(-.9908 -.135 .135 -.9908 -987.0243 602.2286)" gradientUnits="userSpaceOnUse" x1="-1177.1737" x2="-1177.1737" xlink:href="#a" y1="503.8498" y2="553.4855"/><linearGradient id="i" gradientTransform="matrix(-.9583 .2857 -.2857 -.9583 -587.3224 795.5148)" gradientUnits="userSpaceOnUse" x1="-1027.6141" x2="-1027.6141" xlink:href="#a" y1="230.4901" y2="280.1258"/><linearGradient id="j" gradientTransform="matrix(-.9583 .2857 -.2857 -.9583 -587.3259 795.521)" gradientUnits="userSpaceOnUse" x1="-912.105" x2="-912.105" xlink:href="#a" y1="249.1448" y2="298.7805"/><linearGradient id="k" gradientTransform="matrix(-.9328 .3605 -.3605 -.9328 -318.566 841.6305)" gradientUnits="userSpaceOnUse" x1="-1043.5427" x2="-1043.5427" xlink:href="#a" y1="331.6232" y2="381.2589"/><linearGradient id="l" gradientTransform="matrix(-.9328 .3605 -.3605 -.9328 -318.577 841.6334)" gradientUnits="userSpaceOnUse" x1="-874.9197" x2="-874.9197" xlink:href="#a" y1="362.6274" y2="397.1699"/><linearGradient id="m" gradientTransform="matrix(-.9328 .3605 -.3605 -.9328 -318.5746 841.6431)" gradientUnits="userSpaceOnUse" x1="-640.3275" x2="-640.3275" xlink:href="#a" y1="395.3707" y2="429.9131"/><linearGradient id="n" gradientTransform="matrix(-.9328 .3605 -.3605 -.9328 -318.5675 841.6324)" gradientUnits="userSpaceOnUse" x1="-974.4829" x2="-974.4829" xlink:href="#a" y1="282.4189" y2="316.9614"/><linearGradient id="o" gradientTransform="matrix(-.9328 .3605 -.3605 -.9328 -318.5681 841.6299)" gradientUnits="userSpaceOnUse" x1="-915.4132" x2="-915.4132" xlink:href="#a" y1="389.4645" y2="424.007"/><linearGradient id="p" gradientTransform="matrix(-.9328 .3605 -.3605 -.9328 -318.5651 841.6305)" gradientUnits="userSpaceOnUse" x1="-1080.7583" x2="-1080.7583" xlink:href="#a" y1="315.5125" y2="350.055"/><linearGradient id="q" gradientTransform="matrix(-.9328 .3605 -.3605 -.9328 -318.5783 841.6324)" gradientUnits="userSpaceOnUse" x1="-670.6482" x2="-670.6482" xlink:href="#a" y1="457.8111" y2="492.3536"/><linearGradient id="r" gradientTransform="matrix(-.9908 -.135 .135 -.9908 -987.0385 602.2292)" gradientUnits="userSpaceOnUse" x1="-1208.8956" x2="-1208.8956" xlink:href="#a" y1="537.995" y2="587.6307"/><linearGradient id="s" gradientTransform="matrix(1 0 0 -1 -131.56 647)" gradientUnits="userSpaceOnUse" x1="449.1818" x2="449.1818" xlink:href="#a" y1="273.6326" y2="273.778"/><linearGradient id="t" gradientTransform="matrix(1 0 0 -1 -131.56 647)" gradientUnits="userSpaceOnUse" x1="440.3814" x2="440.3814" xlink:href="#a" y1="197.535" y2="413.0351"/><linearGradient id="u" gradientTransform="matrix(1 0 0 -1 -125.1 562.76)" gradientUnits="userSpaceOnUse" x1="244.6129" x2="244.6129" xlink:href="#a" y1="-117.24" y2="140.9958"/><linearGradient id="v" gradientTransform="matrix(1 0 0 -1 -125.1 562.76)" gradientUnits="userSpaceOnUse" x1="654.695" x2="654.695" xlink:href="#a" y1="-45.4885" y2="201.6746"/><path d="m525 63.5c-33.3-1.6-67.2-1.3-99.4 6.6s-62.8 24.3-81.1 49.4c-10.5 14.4-16.7 31.2-29 44.4-21.2 22.9-55.8 30.8-87.8 38.7-75 18.5-150.5 45.2-204.9 95.2-7.8 7.2-15.4 15.3-17.2 25.3-2.7 15.2 9.2 29.5 22.5 39.2 13.3 9.8 28.9 17.5 38.8 30.1 12.5 16.1 13.2 37.5 9.7 56.8s-10.9 38.2-12.8 57.8c-.5 4.8-.6 9.9 1.5 14.3 2.8 5.9 9 9.9 15 13.3 21.5 12 44.6 20.8 68.7 25.9 41.5 8.9 84.7 7.2 127.2 10.9s86.7 13.9 116.5 41.2c18.3 16.8 34.8 41.3 60.9 40.4 14.6-.5 27.5-9.4 42.1-10.4 16.4-1.1 31.3 7.8 46.7 12.9 22 7.2 47.4 6.5 68.1-3.4 20.6-10 35.6-29.6 36.8-50.6 1.2-20.6-10-39.9-16.4-59.7-21.2-64.9 8.6-133.4 38.2-195.5s60.1-130.2 40.4-195.4c-22.9-75.6-111.4-83.9-184.5-87.4z" fill="#8a3aff"/><path d="m173.6 431.5s-24.6-13.5-31.9-34.2c-3-8.7-8.8-16.2-16.4-21.4-3.6-2.4-7.5-4.5-11.5-6.2" fill="none" stroke="#ffd037" stroke-miterlimit="10" stroke-width="2"/><g fill="#ffd037"><path d="m109 356.7c2.3 2.3 4.8 13.3 4.8 13.3s-11-2.6-13.3-4.9c-2.3-2.4-2.2-6.2.2-8.5 2.4-2.2 6-2.2 8.3.1z"/><path d="m129 362.7c.7 3.2-3.2 13.8-3.2 13.8s-7.8-8.1-8.5-11.4c-.8-3.2 1.2-6.4 4.4-7.2s6.4 1.2 7.2 4.4c0 .1 0 .2.1.4z"/><path d="m150.7 385.1c-1 3.1-9.7 10.3-9.7 10.3s-2.6-11-1.6-14.1 4.4-4.8 7.6-3.8c3.1 1.1 4.8 4.5 3.7 7.6z"/></g><path d="m163.3 405.8c-.5 3.3-7.9 11.8-7.9 11.8s-4.5-10.4-4-13.6c.6-3.2 3.7-5.4 7-4.8 3.2.6 5.3 3.5 4.9 6.6z" fill="#8a3aff"/><path d="m117.3 385.8c3.3 0 12.8-6.1 12.8-6.1s-9.6-5.9-12.9-5.8-5.9 2.9-5.7 6.2c.1 3.1 2.6 5.6 5.8 5.7z" fill="#ffd037"/><path d="m132.4 409.8c3.1-1 10.4-9.7 10.4-9.7s-11-2.7-14.1-1.7c-3.1 1.1-4.7 4.6-3.6 7.7 1.1 3 4.3 4.6 7.3 3.7z" fill="#ffd037"/><path d="m150.2 431.2c3.3-.5 11.9-7.8 11.9-7.8s-10.3-4.5-13.6-4-5.5 3.5-5.1 6.8c.5 3.2 3.6 5.5 6.8 5z" fill="#ffd037"/><path d="m192.9 373.4s-17-22.3-15.3-44.2c.8-9.2-1.4-18.4-6.3-26.2-2.3-3.7-5-7.2-8-10.4" fill="none" stroke="#fc6681" stroke-miterlimit="10" stroke-width="2"/><path d="m164.3 278.9c1.2 3.1-1 14.2-1 14.2s-9-6.8-10.2-9.9c-1.3-3 .1-6.6 3.1-7.9s6.6.1 7.9 3.1c0 .2.1.4.2.5z" fill="#fc6681"/><path d="m180 292.4c-.7 3.2-8.5 11.4-8.5 11.4s-3.9-10.6-3.2-13.8c.6-3.2 3.8-5.4 7-4.7 3.2.6 5.4 3.8 4.7 7z" fill="#fc6681"/><path d="m190.8 321.8c-2.2 2.4-13.1 5.5-13.1 5.5s2-11.1 4.3-13.5c2.2-2.5 5.9-2.8 8.4-.6s2.8 5.9.6 8.4c-.1 0-.1.1-.2.2z" fill="#fc6681"/><path d="m193.9 345.8c-1.8 2.8-12 7.6-12 7.6s.1-11.3 1.9-14.1c1.9-2.7 5.6-3.4 8.3-1.5 2.6 1.9 3.4 5.3 1.8 8z" fill="#8a3aff"/><path d="m160 308.9c3 1.3 14.2-.4 14.2-.4s-6.4-9.3-9.5-10.6c-3.1-1.2-6.5.3-7.8 3.3-1.1 3 .2 6.4 3.1 7.7z" fill="#fc6681"/><path d="m164 336.9c3.3.3 13.4-4.6 13.4-4.6s-8.9-6.9-12.2-7.3c-3.3-.2-6.1 2.3-6.3 5.6-.2 3.2 2 5.9 5.1 6.3z" fill="#fc6681"/><path d="m171.7 363.7c3.2.9 14-2.3 14-2.3s-7.6-8.3-10.8-9.2c-3.2-1-6.5.8-7.5 4s.8 6.5 4 7.5c.1-.1.2-.1.3 0z" fill="#8a3aff"/><path d="m507.4 402.6s-3.4-27.9 9.1-45.9c5.3-7.5 8-16.6 7.7-25.8-.2-4.4-.7-8.7-1.7-13" fill="none" stroke="#ffd037" stroke-miterlimit="10" stroke-width="2"/><path d="m530.3 306.6c-.5 3.3-8 11.7-8 11.7s-4.3-10.4-3.8-13.7c.6-3.2 3.8-5.4 7-4.8 3.2.7 5.3 3.6 4.8 6.8z" fill="#ffd037"/><path d="m537.1 326.2c-2.2 2.4-13.1 5.5-13.1 5.5s2-11.1 4.3-13.5 6.1-2.4 8.5-.1c2.2 2.2 2.3 5.7.3 8.1z" fill="#ffd037"/><path d="m531.6 357c-3.2 1-14.1-1.9-14.1-1.9s7.4-8.6 10.5-9.6c3.2-.8 6.5 1.1 7.3 4.3.8 3.1-.8 6.1-3.7 7.2z" fill="#ffd037"/><path d="m522.2 379.3c-2.9 1.5-14.2.5-14.2.5s5.8-9.7 8.7-11.2 6.5-.3 8.1 2.6.3 6.6-2.6 8.1z" fill="#8a3aff"/><path d="m511.5 330.3c2 2.7 12.5 6.8 12.5 6.8s-.9-11.3-2.8-13.9c-2-2.6-5.8-3-8.4-1-2.5 2-3.1 5.5-1.3 8.1z" fill="#ffd037"/><path d="m500.9 356.6c2.7 1.9 13.9 2.8 13.9 2.8s-4.2-10.5-6.9-12.4-6.4-1.2-8.3 1.5c-1.8 2.6-1.2 6.1 1.3 8.1z" fill="#8a3aff"/><path d="m494 383.5c2.3 2.4 13.3 5.1 13.3 5.1s-2.4-11-4.7-13.4c-2.2-2.4-6-2.6-8.4-.4s-2.6 6-.4 8.4c0 .1.1.2.2.3z" fill="#8a3aff"/><path d="m340.5 175.8-194.8 181.5v267.2h389.6v-267.2z" fill="url(#b)"/><path d="m531.1 619.7h-381.2v-261.5l190.6-177.6 190.6 177.6z" fill="#e8eaf1"/><path d="m150.2 358.4h379.5v261h-379.5z" opacity=".1"/><path d="m324.8 586.3s9.4 17.6 17.6 21.6c8.2 3.9 1.6 9.4-6.3 8.2-7.8-1.2-33.7-20-33.7-20s.2-12.3 2.6-13.2 19.8 3.4 19.8 3.4z" fill="#575988"/><path d="m300.1 557.7s13.3 13.3 19.2 14.5-5.1 9-15.7 4.7-25.1-12.1-25.1-12.1-.4-12.5 6.3-13.7c6.7-1.3 15.3 6.6 15.3 6.6z" fill="#575988"/><path d="m330.5 534.3s-.4 1.2 4.7 2.7c5.1 1.6 6.7 3.1 6.7 3.1" opacity=".05"/><path d="m149.9 358.2 190.6 130.8-190.6 130.7z" fill="#e8eaf1"/><path d="m531.1 358.2-190.6 130.8 190.6 130.7z" fill="#e8eaf1"/><path d="m149.9 619.7 183.1-142.4c4.4-3.5 10.6-3.5 15 0l183.1 142.5h-381.2z" fill="url(#c)"/><path d="m149.9 619.7 183.1-136.2c4.4-3.3 10.5-3.3 15 0l183.1 136.2z" fill="#e8eaf1"/><path d="m342.3 273.8 16.6-46.8 76.1 26.9-16.5 46.8z" fill="url(#d)"/><path d="m365.3 224.3h46.3v78h-46.3z" fill="#f4f6f7" transform="matrix(-.3335 .9428 -.9428 -.3335 766.2935 -15.0698)"/><g fill="#8a3aff" opacity=".6"><path d="m359.9 234.4h9.9v7.3h-9.9z" transform="matrix(.9428 .3335 -.3335 .9428 100.2914 -108.0492)"/><path d="m361.2 260.2h38.1v2.4h-38.1z" transform="matrix(.9428 .3335 -.3335 .9428 108.9183 -111.8438)"/><path d="m369.7 269.3h27.7v1.6h-27.7z" transform="matrix(.9435 .3312 -.3312 .9435 111.1173 -111.8098)"/></g><path d="m396.8 237.5 75.4-29.1 17.9 46.3-75.4 29.1z" fill="url(#e)"/><path d="m403.9 222.7h78v46.3h-78z" fill="#fff" transform="matrix(-.9328 .3605 -.3605 -.9328 944.7226 315.5076)"/><g fill="#8a3aff" opacity=".6"><path d="m403.6 238.3h9.9v7.3h-9.9z" transform="matrix(.9328 -.3605 .3605 .9328 -59.7587 163.5535)"/><path d="m416.3 248.4h38.1v2.4h-38.1z" transform="matrix(.9328 -.3605 .3605 .9328 -60.7086 173.7258)"/><path d="m428.3 252.1h27.8v1.6h-27.8z" transform="matrix(.9328 -.3605 .3605 .9328 -61.4471 176.4065)"/></g><path d="m350.8 227.7 6.7-49.2 80 10.9-6.7 49.2z" fill="url(#f)"/><path d="m372.4 170h46.3v78h-46.3z" fill="#fff" transform="matrix(-.14 .9901 -.9901 -.14 657.8986 -153.3734)"/><g fill="#8a3aff" opacity=".6"><path d="m360.6 184.5h9.9v7.3h-9.9z" transform="matrix(.9908 .135 -.135 .9908 28.7506 -47.6427)"/><path d="m366.3 206.6h38.1v2.4h-38.1z" transform="matrix(.9908 .135 -.135 .9908 31.5816 -50.1322)"/><path d="m375.8 213.2h27.8v1.6h-27.8z" transform="matrix(.9908 .135 -.135 .9908 32.4596 -50.6647)"/></g><path d="m224 309.1 6.7-49.2 80 10.9-6.7 49.2z" fill="url(#g)"/><path d="m243.9 250.5h46.3v78h-46.3z" fill="#fff" transform="matrix(-.135 .9908 -.9908 -.135 589.9029 64.0062)"/><g fill="#8a3aff" opacity=".6"><path d="m233.8 265.9h9.9v7.3h-9.9z" transform="matrix(.9908 .135 -.135 .9908 38.5829 -29.7709)"/><path d="m240.7 287h38.1v2.4h-38.1z" transform="matrix(.9901 .14 -.14 .9901 42.915 -33.5368)"/><path d="m249 294.6h27.8v1.6h-27.8z" transform="matrix(.9908 .135 -.135 .9908 42.2918 -32.7921)"/></g><path d="m207.4 256.5 6.7-49.2 80 10.9-6.7 49.2z" fill="url(#h)"/><path d="m227.3 197.9h46.3v78h-46.3z" fill="#fff" transform="matrix(-.135 .9908 -.9908 -.135 518.9621 20.7154)"/><g fill="#8a3aff" opacity=".6"><path d="m217.2 213.3h9.9v7.3h-9.9z" transform="matrix(.9908 .135 -.135 .9908 31.328 -28.0159)"/><path d="m222.9 235.4h38.1v2.4h-38.1z" transform="matrix(.9908 .135 -.135 .9908 34.1597 -30.5045)"/><path d="m232.4 242h27.8v1.6h-27.8z" transform="matrix(.9908 .135 -.135 .9908 35.037 -31.0372)"/></g><path d="m278.7 245 77.4-23.1 14.2 47.6-77.4 23.1z" fill="url(#i)"/><path d="m285 233.8h78v46.3h-78z" fill="#f4f6f7" transform="matrix(-.9583 .2857 -.2857 -.9583 708.0023 410.6635)"/><g fill="#8a3aff" opacity=".6"><path d="m285.1 246.7h9.9v7.3h-9.9z" transform="matrix(.9583 -.2857 .2857 .9583 -59.444 93.3142)"/><path d="m297.2 258.9h38.1v2.4h-38.1z" transform="matrix(.9583 -.2857 .2857 .9583 -61.1338 101.1785)"/><path d="m308.8 263.2h27.8v1.6h-27.8z" transform="matrix(.9583 -.2857 .2857 .9583 -61.9617 103.2061)"/></g><path d="m162.7 260.2 77.4-23.1 14.2 47.5-77.4 23.1z" fill="url(#j)"/><path d="m169 248.9h78v46.3h-78z" fill="#f4f6f7" transform="matrix(-.9583 .2857 -.2857 -.9583 485.0902 473.4327)"/><g fill="#8a3aff" opacity=".6"><path d="m169.1 261.9h9.9v7.3h-9.9z" transform="matrix(.9583 -.2857 .2857 .9583 -68.607 60.7993)"/><path d="m181.1 274.1h38.1v2.4h-38.1z" transform="matrix(.9583 -.2857 .2857 .9583 -70.2942 68.6629)"/><path d="m191.6 278.7h27.9v1.6h-27.9z" transform="matrix(.9573 -.2892 .2892 .9573 -72.0554 71.3823)"/></g><path d="m479.7 124.4 75.3-29.1 17.9 46.3-75.3 29.1z" fill="url(#k)"/><path d="m486.8 109.6h78v46.3h-78z" fill="#fff" transform="matrix(-.9328 .3605 -.3605 -.9328 1064.1331 66.9573)"/><g fill="#8a3aff" opacity=".6"><path d="m486.5 125.2h9.9v7.3h-9.9z" transform="matrix(.9328 -.3605 .3605 .9328 -13.4001 185.8182)"/><path d="m499.2 135.3h38.1v2.4h-38.1z" transform="matrix(.9328 -.3605 .3605 .9328 -14.3481 195.9901)"/><path d="m511.2 139h27.8v1.6h-27.8z" transform="matrix(.9328 -.3605 .3605 .9328 -15.0885 198.6713)"/></g><path d="m328.1 165.9 52.5-20.3 12.4 32.3-52.4 20.2z" fill="url(#l)"/><path d="m333.1 155.6h54.3v32.2h-54.3z" fill="#fff" transform="matrix(-.9328 .3605 -.3605 -.9328 758.1151 201.996)"/><g fill="#8a3aff" opacity=".6"><path d="m332.8 166.4h6.9v5.1h-6.9z" transform="matrix(.9328 -.3605 .3605 .9328 -38.3094 132.5938)"/><path d="m341.7 173.5h26.5v1.7h-26.5z" transform="matrix(.9328 -.3605 .3605 .9328 -38.9691 139.6719)"/><path d="m350 176.1h19.3v1.1h-19.3z" transform="matrix(.9328 -.3605 .3605 .9328 -39.4837 141.5364)"/></g><path d="m97.5 219.9 52.4-20.2 12.5 32.2-52.4 20.3z" fill="url(#m)"/><path d="m102.4 209.6h54.3v32.2h-54.3z" fill="#fff" transform="matrix(-.9328 .3605 -.3605 -.9328 331.8541 389.5791)"/><g fill="#8a3aff" opacity=".6"><path d="m102.2 220.5h6.9v5.1h-6.9z" transform="matrix(.9328 -.3605 .3605 .9328 -73.3044 53.1006)"/><path d="m111.1 227.5h26.5v1.7h-26.5z" transform="matrix(.9328 -.3605 .3605 .9328 -73.9631 60.1767)"/><path d="m119.4 230.1h19.3v1.1h-19.3z" transform="matrix(.9328 -.3605 .3605 .9328 -74.4786 62.0432)"/></g><path d="m449.9 204.8 52.4-20.2 12.5 32.2-52.4 20.2z" fill="url(#n)"/><path d="m454.9 194.5h54.3v32.2h-54.3z" fill="#f4f6f7" transform="matrix(-.9328 .3605 -.3605 -.9328 1007.5486 233.3308)"/><g fill="#8a3aff" opacity=".6"><path d="m454.6 205.3h6.9v5.1h-6.9z" transform="matrix(.9328 -.3605 .3605 .9328 -44.1458 179.1141)"/><path d="m463.5 212.4h26.5v1.7h-26.5z" transform="matrix(.9328 -.3605 .3605 .9328 -44.8064 186.1905)"/><path d="m471.8 215h19.3v1.1h-19.3z" transform="matrix(.9328 -.3605 .3605 .9328 -45.3219 188.0571)"/></g><path d="m356.2 126.3 52.5-20.3 12.4 32.2-52.4 20.3z" fill="url(#o)"/><path d="m361.2 115.9h54.3v32.2h-54.3z" fill="#f4f6f7" transform="matrix(-.9328 .3605 -.3605 -.9328 798.1492 115.2622)"/><g fill="#8a3aff" opacity=".6"><path d="m360.9 126.8h6.9v5.1h-6.9z" transform="matrix(.9328 -.3605 .3605 .9328 -22.1315 140.0584)"/><path d="m369.8 133.8h26.5v1.7h-26.5z" transform="matrix(.9328 -.3605 .3605 .9328 -22.7911 147.1364)"/><path d="m378.1 136.4h19.3v1.1h-19.3z" transform="matrix(.9328 -.3605 .3605 .9328 -23.3066 149.003)"/></g><path d="m537.1 135.6 52.5-20.2 12.4 32.2-52.4 20.3z" fill="url(#p)"/><path d="m542.1 125.3h54.3v32.2h-54.3z" fill="#f4f6f7" transform="matrix(-.9328 .3605 -.3605 -.9328 1151.1483 68.186)"/><g fill="#8a3aff" opacity=".6"><path d="m541.8 136.2h6.9v5.1h-6.9z" transform="matrix(.9328 -.3605 .3605 .9328 -13.3419 205.8949)"/><path d="m550.7 143.2h26.5v1.7h-26.5z" transform="matrix(.9328 -.3605 .3605 .9328 -14.0026 212.9713)"/><path d="m559 145.8h19.3v1.1h-19.3z" transform="matrix(.9328 -.3605 .3605 .9328 -14.5197 214.8389)"/></g><path d="m103.3 150.8 52.4-20.3 12.5 32.2-52.5 20.3z" fill="url(#q)"/><path d="m108.2 140.4h54.3v32.2h-54.3z" fill="#fff" transform="matrix(-.9328 .3605 -.3605 -.9328 318.0761 253.7825)"/><g fill="#8a3aff" opacity=".6"><path d="m108 151.3h6.9v5.1h-6.9z" transform="matrix(.9328 -.3605 .3605 .9328 -47.9766 50.5249)"/><path d="m116.8 158.4h26.5v1.7h-26.5z" transform="matrix(.9328 -.3605 .3605 .9328 -48.6362 57.603)"/><path d="m125.2 160.9h19.3v1.1h-19.3z" transform="matrix(.9328 -.3605 .3605 .9328 -49.1528 59.4679)"/></g><path d="m243.4 226.9 6.7-49.1 80 10.9-6.7 49.1z" fill="url(#r)"/><path d="m263.3 168.3h46.3v78h-46.3z" fill="#fff" transform="matrix(-.135 .9908 -.9908 -.135 530.5854 -48.5089)"/><g fill="#8a3aff" opacity=".6"><path d="m253.3 183.7h9.9v7.3h-9.9z" transform="matrix(.9908 .135 -.135 .9908 27.6688 -33.1514)"/><path d="m258.9 205.8h38.1v2.4h-38.1z" transform="matrix(.9908 .135 -.135 .9908 30.5005 -35.6409)"/><path d="m268.5 212.4h27.8v1.6h-27.8z" transform="matrix(.9908 .135 -.135 .9908 31.3785 -36.1733)"/></g><path d="m317.3 373.2c.2.2.4.2.6.1-.2 0-.4 0-.6-.1z" fill="url(#s)"/><path d="m383.1 266.4c-1.2-.3-2.8-.9-4.8-1.6 2.1-2.7 3.6-5.7 4.5-9l-.2.1c.1-.2.1-.4.2-.6-3.8 1.6-8.1-1.1-10.8-4.5s-4.5-7.6-7.5-10.7c-1.2-1.2-2.6-2.4-4-3.4-.9-.7-1.8-1.4-2.9-1.4-1.7 0-3.1 1.6-4.7 2.2-1.1.2-2.2.2-3.3-.1-4.3-1-8.4-2.8-12.8-3.3-2.3-.3-4.7 0-6.9.8s-3.2 2.5-5 3.8c-1.9 1.4-5.7 1.4-8 1.6-2.7.3-5.5.4-8.2.3-1.6-.1-3.2-.1-4.7.2-3.3.7-5.9 3.3-8.4 5.8-.7.6-1.1 1.3-1.4 2.2v.7c0 .6.1 1.3.3 1.9.8 2.2 1.8 4.4 3.2 6.3 1 1.4 2.2 2.8 2.7 4.5.3.8.4 1.7.4 2.6s-.1 1.9-.3 2.8c-.4 2.5-1.1 5-2.1 7.4-.5 1.3-1.1 2.5-1.2 3.9v.8c-.2 4.3 4.1 7.3 5 11.6.1.4.1.7.1 1.1-.1 2.6-1.6 5.2-3.8 6.2.2.1.4.1.6.2-.2.1-.4.2-.6.3.4.2.8.3 1.2.4-2.5 2.2-4.6 4.8-6.3 7.7-7.4 13.9-57.9 41.1-57.9 41.1s.3.2.7.4l-.6.4c-4.4 2.9-14.6 11.4-5.4 22.1 0 0 7.2-11.4 12.3-16.3.2-.2.4-.4.7-.6.2.3.3.8.2 1.2l33.2-18.7s11.8-8.3 15.1-10.1c1.1-.6 4-2.4 7.5-3.2l-.4.2c1.2-.3 2.5-.5 3.8-.5 5.9.1 12.3 4.4 14.4 21.5 2.8 22.9 1.5 27 .6 27.5-.1 0-.2 0-.3 0 0 0 .1 0 .1.1-.1 0-.2 0-.4-.1.1.1.3.2.5.1h.4.4v.6s-.3.1 0 .1c-.1 1.3-.1 2.7 0 4.2-2.9.2-5.8.3-8.4.5l.2-1.2.1-.5c2.2-.2 4.4-.8 4.6-2.7.5-4-4.9-6.1-9.6-6.4s-32.7 1.6-32.7 1.6-4.2 5.4 9.1 7.1c.4.2.8.4 1.2.7 5.2 3 12.3 8.4 15.7 11.2l.5.4-1.5 1.2c8.2 1.9 16.2 33.3 20.6 47.8 4.4 14.4 14 13.9 22 11.7 7.5-2 8.4-23.7 8.5-26.4v-.3l13.4 16.1 1 1.2c.4.2.8.4 1.1.6 10.1 4.8 21.2-4.4 18-14.8-3.2-10.5-8.1-26.1-11.5-32.7-2.8-5.5-6.3-14.7-8.5-20.4.3-.1.6-.2.8-.4 0 0 0-.3-.1-.7l.1-.1s-3.2-16.6-3.4-28.4c0-.2 0-.4 0-.6 0-.1 0-.3 0-.4 2.4-.5 3.9-.8 3.9-.8v-.5l-.3.1 1.3-15.3s4.9-10.4 1.1-14.8c-1.1-1.3-1.9-2.8-2.2-4.5-.6-4 0-10.7 8.7-16.2 13.5-8.5 18.7-15.5 18.7-15.5s.6-5-7.6-7.4zm-26.7 10.6v-7.1c2.5-.1 5 .2 7.5 0 1.2-.1 2.5-.3 3.6-.6l.6.4c-3.6 2.8-7.6 5.3-11.7 7.3zm-38.2 110.7c1 .7 2 1.4 3 2.1.6 3.5 1.1 5.9 1.2 6.1-1.2-2.9-2.6-5.6-4.2-8.2z" fill="url(#t)"/><path d="m339.5 381.9-.6 3.2-.4 2.4-.8 4.4-7.9 5.5s-.7-.6-1.9-1.6c-3.2-2.7-10-8.1-15-11-1.3-.8-2.7-1.5-4.1-1.9z" fill="#ffbdc6"/><path d="m339.5 381.9-.6 3.2c-1.7.1-3.5 0-5.2-.3l-18.4.3c-.9-.1-1.7-.1-2.4-.2-1.3-.8-2.7-1.5-4.1-1.9z" opacity=".1"/><path d="m333.7 384.2s9.2 1.6 9.7-2.4c.5-3.9-4.7-6-9.2-6.3s-31.3 1.6-31.3 1.6-4.7 6.3 12.3 7.4z" fill="#7679b4"/><path d="m339.5 381.9-.6 3.2-.4 2.4-.8 4.4-7.9 5.5s-.7-.6-1.9-1.6c-3.2-2.7-10-8.1-15-11-1.3-.8-2.7-1.5-4.1-1.9z" opacity=".1"/><path d="m339.5 381.9-.6 3.2c-1.7.1-3.5 0-5.2-.3l-18.4.3c-.9-.1-1.7-.1-2.4-.2-1.3-.8-2.7-1.5-4.1-1.9z" opacity=".1"/><path d="m333.7 384.2s9.2 1.6 9.7-2.4c.5-3.9-4.7-6-9.2-6.3s-31.3 1.6-31.3 1.6-4.7 6.3 12.3 7.4z" opacity=".1"/><path d="m305.8 254.7h48.1v57h-48.1z" fill="#a66477"/><path d="m305.8 254.7h48.1v57h-48.1z" opacity=".1"/><path d="m249.4 352.3c-.8.2-1.8 1-2.9 2.1-4.8 4.8-11.8 16.1-11.8 16.1-8.9-10.6.9-18.9 5.1-21.8 1-.7 1.7-1.1 1.7-1.1z" fill="#ffbdc6"/><path d="m339 272.7s2.4 16.6 10.5 20.5-10.5 11.3-10.5 11.3l-25.5-9.5s14.5-4.7 11.6-18.7z" fill="#ffbdc6"/><path d="m311.7 372.3-.6 3.2-.4 2.4-.8 4.4-7.9 5.5s-.7-.6-1.9-1.6c-3.2-2.7-10-8.1-15-11-1.3-.8-2.7-1.5-4.1-1.9z" fill="#ffbdc6"/><path d="m311.7 372.3-.6 3.2c-1.7.1-3.5 0-5.2-.3l-18.4.3c-.9-.1-1.7-.1-2.4-.2-1.3-.8-2.7-1.5-4.1-1.9z" opacity=".1"/><path d="m305.9 374.7s9.2 1.6 9.7-2.4c.5-3.9-4.7-6-9.2-6.3s-31.3 1.6-31.3 1.6-4.7 6.3 12.3 7.4z" fill="#7679b4"/><path d="m310.6 377.9-.8 4.4-7.9 5.5s-.7-.6-1.9-1.6l10.4-8.6z" opacity=".1"/><path d="m362.7 438c-.4-.2-.7-.4-1.1-.5l-1-1.2-12.7-16.1v.3c-.1 2.7-1 24-8.1 26-7.6 2.1-16.8 2.6-21-11.6s-11.8-45.2-19.7-47l11.7-9.6s7.7 9.1 10.9 17.7c-.1-.5-5.5-25.5-1.1-29.9h38.4s5.9 16.9 10 25.2c3.2 6.5 7.9 21.8 11 32.2 2.9 10.2-7.7 19.2-17.3 14.5z" fill="#7679b4"/><path d="m361.6 370.7c-5.9 3.5-31.9 2.1-40.4 1.5l-2.3-.2c-.2 0 0-.1 0-.1l.2-2.4 6.3-16 33.8-19.6c-.7 2.1-.9 5.2-.9 8.8.2 11.7 3.3 28 3.3 28z" opacity=".1"/><path d="m361.6 369.9c-5.9 3.5-31.9 2.1-40.4 1.5l-2.3-.2h-.4l.4-.1 2.1-.5 4.5-17.9 33.8-19.6c-.7 2.1-.9 5.2-.9 8.8.1 11.7 3.2 28 3.2 28z" fill="#f2f1f2"/><path d="m358.4 342c-6.9 1.6-22 6.2-27.8 17.4-3.9 7.5-7.1 10.7-9.4 12l-2.3-.2v-.1l2.1-.5 4.5-17.9 33.8-19.6c-.8 2.1-1 5.3-.9 8.9z" opacity=".1"/><path d="m241.5 347.6 7.9 4.7c-.8.2-1.8 1-2.9 2.1-.7-1.9-4.8-4.6-6.7-5.7 1-.7 1.7-1.1 1.7-1.1z" opacity=".1"/><path d="m317.5 371.6c-.2.1-.4.1-.5-.1.1.1.3.1.5.1z" opacity=".1"/><path d="m335.3 292.2s-7.1.8-12.1-4.5c0 0-21 6-28.1 19.7s-55.5 40.5-55.5 40.5 8.4 4.7 7.6 7.1l31.8-18.4s11.3-8.1 14.5-10c3.1-1.8 20.5-13.1 24.2 17.6s0 27.1 0 27.1 5.3 1.8 12.9-12.9 31.3-18.1 31.3-18.1l1.3-15.5s4.7-10.3 1.1-14.5c-1.1-1.3-1.8-2.8-2.1-4.4-.6-3.9 0-10.5 8.4-15.9 12.9-8.4 17.9-15.2 17.9-15.2s.3-5-7.6-7.4-39.9-15.2-39.9-15.2l-1.1 4.5 25.2 17.9s-12.6 10.2-22.6 10c-.1-.3 1.7 7.3-7.2 7.6z" fill="#565388"/><path d="m340.2 279.9c-.6-2.1-1.1-4.3-1.5-6.4l-13.9 3.7c.6 2.7.5 5.4-.3 8 5.8 1.6 12-.5 15.7-5.3z" opacity=".1"/><circle cx="328.6" cy="270" fill="#ffbdc6" r="15"/><path d="m336.6 235.9c4.2.5 8.1 2.3 12.2 3.2 1 .3 2.1.4 3.2.1 1.6-.5 2.9-2.2 4.5-2.1 1 0 1.9.7 2.7 1.4 1.3 1 2.6 2.1 3.8 3.4 2.8 3.1 4.6 7.2 7.2 10.5s6.6 5.9 10.3 4.4c-2.5 9.7-10.6 17.1-19.4 17.7-3.5.2-7.1-.5-10.5.5-.8.3-1.7.6-2.7.6-2 0-3.5-1.8-4.8-3.5-2.9-4.1-5.1-8.8-8.4-12.5-1.1-1.2-2.3-2.4-3.8-2.6s-2.9.5-4.2 1.2c-2.2 1.1-4.5 2.3-6.2 4.3s-2.8 4.9-2.1 7.5c.4 1.4 1.3 2.7 1.3 4.2 0 2.4-2.1 4.1-2.5 6.5-.1 1-.1 2-.1 2.9-.2 3.2-2.3 5.8-4.4 7.8-.8.8-1.8 1.6-2 2.8-.2.8 0 1.7-.1 2.5-.3 2.1-2.4 3.1-4.2 3.4-2.1.3-4.3.1-6.3-.7 2.6-1.2 4.1-4.6 3.5-7.7-.8-4.3-5.1-7.3-4.7-11.7.2-1.3.6-2.6 1.2-3.8.9-2.3 1.6-4.8 2-7.3.3-1.9.5-4-.1-5.8-.5-1.7-1.7-3-2.6-4.4-1.3-1.9-2.3-4-3-6.2-.3-.7-.4-1.4-.3-2.1.2-.8.7-1.6 1.3-2.1 2.3-2.5 4.8-5 8-5.7 1.5-.2 3-.3 4.5-.2 2.6.1 5.3 0 7.9-.3 2.2-.3 5.8-.2 7.6-1.6 1.7-1.3 2.7-2.9 4.8-3.8 1.9-.8 4.1-1.1 6.4-.8z" opacity=".1"/><path d="m344.9 390.6s8.7 17.1 6 22.3" opacity=".1"/><path d="m360.6 436.2-12.7-16.1v.3s-.7-5.2 1.7-3.5c5.3 3.8 13.8 10.1 14 11.2.1 1.1-1.8 5.5-3 8.1z" opacity=".1"/><g opacity=".1"><path d="m342.7 284.3s1.1 4.4-2.4 6.7c5.3-.9 5.6-5.1 5.4-6.9-1 .1-2 .2-3 .2z"/><path d="m242.8 346.8s48.3-26.8 55.5-40.5c5.1-9.8 17.4-15.7 23.9-18.2-4.8 1.6-20.8 7.7-26.8 19.3-7.1 13.7-55.5 40.5-55.5 40.5z"/><path d="m352.1 282.2c8.2-2.6 16.1-8.9 16.1-8.9l-25.2-17.9.6-2.5-2.4-1-1.1 4.5 25.2 17.9c-4.1 3.2-8.5 5.8-13.2 7.9z"/><path d="m352.2 342.7c3.2-1.1 6.5-1.9 9.9-2.5v-.5c-3.3.8-6.6 1.8-9.9 3z"/><path d="m321.7 370.3h-.2c-.2.1-.4.1-.5-.1.2.1.4.1.5.1.9-.5 2.2-4.4-.5-27.1-2.9-24.2-14.3-22.3-20.5-19.6 6.4-1.8 15.1-.2 17.6 20.6 2.7 22.7 1.4 26.6.5 27.1 1 0 2.1-.4 3.1-1z"/><path d="m318.5 371.3c-.2 0-.4 0-.5-.1.1.2.3.2.5.1z"/></g><path d="m336.6 235.4c4.2.5 8.1 2.3 12.2 3.2 1 .3 2.1.4 3.2.1 1.6-.5 2.9-2.2 4.5-2.1 1 0 1.9.7 2.7 1.4 1.3 1 2.6 2.1 3.8 3.4 2.8 3.1 4.6 7.2 7.2 10.5s6.6 5.9 10.3 4.4c-2.5 9.7-10.6 17.1-19.4 17.7-3.5.2-7.1-.5-10.5.5-.8.3-1.7.6-2.7.6-2 0-3.5-1.8-4.8-3.5-2.9-4.1-5.1-8.8-8.4-12.5-1.1-1.2-2.3-2.4-3.8-2.6s-2.9.5-4.2 1.2c-2.2 1.1-4.5 2.3-6.2 4.3s-2.8 4.9-2.1 7.5c.4 1.4 1.3 2.7 1.3 4.2 0 2.4-2.1 4.1-2.5 6.5-.1 1-.1 2-.1 2.9-.2 3.2-2.3 5.8-4.4 7.8-.8.8-1.8 1.6-2 2.8-.2.8 0 1.7-.1 2.5-.3 2.1-2.4 3.1-4.2 3.4-2.1.3-4.3.1-6.3-.7 2.6-1.2 4.1-4.6 3.5-7.7-.8-4.3-5.1-7.3-4.7-11.7.2-1.3.6-2.6 1.2-3.8.9-2.3 1.6-4.8 2-7.3.3-1.9.5-4-.1-5.8-.5-1.7-1.7-3-2.6-4.4-1.3-1.9-2.3-4-3-6.2-.3-.7-.4-1.4-.3-2.1.2-.8.7-1.6 1.3-2.1 2.3-2.5 4.8-5 8-5.7 1.5-.2 3-.3 4.5-.2 2.6.1 5.3 0 7.9-.3 2.2-.3 5.8-.2 7.6-1.6 1.7-1.3 2.7-2.9 4.8-3.8 1.9-.9 4.1-1.1 6.4-.8z" fill="#a66477"/><path d="m207.7 465.6c-2.7-6.9-9.5-23.3-14.1-20-5.7 4.1 5.7 22.2 5.7 22.2.3 3.3-6.1 10.2-9.5 13.7 0-.3 0-.4 0-.4 0 .1-.1.3-.1.4l-.3-.2c-.1.3-.2.5-.4.7 0-.5 0-.7 0-.7-.7 2.8-12.2 6.4-12.2 6.4s-.3 0-.8 0c-3.2 0-11.6-.7-15.4-6.9-2-3.4-4.6-6.3-7.6-8.8-1-.8-2.3-1.3-3.6-1.4-10.7-.7-19.3-6.1-21.1-7.2l-.3-.2-.1.2c-.4-.6-.8-1.2-1.2-1.8l-.2-.3c5.3-2.6 8.6-8 8.6-13.9 0-.1 0-.2 0-.3.9-1.6 1.4-3.5 1.4-5.3v-1.9l2.4-2.2c1.1-1 2.3-2 2.8-3.4.2-.6.3-1.1.3-1.7.1-1-.3-2.1-1.1-2.7-1.9-1.3-5 0-6.3-1.8-.6-.8-.5-1.9-.8-2.9-.6-1.9-2.9-3-4.9-3s-4.1.7-6.1 1.3c-4.2 1.2-8.6 1.6-12.9 1.2-1.2-.2-2.4-.2-3.5.1-1.4.6-2.5 1.8-2.9 3.3-.2.6-.2 1.1-.3 1.7-1.7 2-2.7 4.5-2.7 7.1v4.8c0 2.6.9 5 2.6 7 .4 4.6 2.8 8.7 6.5 11.4v.4h.1c-.1 1.5-.3 3-.7 4.4v-.3s-8.7 4.6-18.1 4.8h-1c-1.8-.1-3.6.6-5 1.9-2.8 2.6-7.6 6.7-10.6 6.7-.6 0-16.4 3.1-19 3.6l-4.9-4.8-.1.3-.3-.3c-.5 0-1.1.1-1.6.2-2.5-3-7.5-9.8-8.6-19.1 0 0 10.8-12.3 6.8-23.7-3.4-9.7-12.7 11.1-15.3 17.4-.5 1.1-.5 2.3-.2 3.5l8.8 28.2c-.8 2.2-1.1 4.6-.7 6.9h-.1l6.4 8.2s4.8 2 12.3 2c5.5 0 11-1 16.1-3.1h1.5l-.3.1h7.6l4.8 14.6c-.2 1.3-2.5 19.9-4.4 24-.6 1.4-.8 2.9-.7 4.4.1 2.9.6 5.7 1.4 8.5l4.2-.2-.2.3c-3.6 7.3-9.6 20.4-13.1 32.7l-6.2 12.5 4.6 56h.2l.4.1c.5.1 1.2.2 2.2.3l-.4.6-10.2 16.8s-7.3 14.9 8.8 12.1c0 0 5.9-1.7 8.4-11.9l10.6-9.9s.5-6.6-2.5-9.2c-.2-3-.7-11.9.1-14 .9-2.6-3.7-32.3-3.7-32.3s16.7-34.7 26.8-35.5c.7-.1 1.5 0 2.2.3 8.3 2.7 18.4 22.8 21.4 29.1l.1.3v.1l.1.2v.1l.1.2v.1l.1.2.1.2v.1l.1.1v.1.1.1l1.3 39 .1.1h.1l-.1.8-.6 4s7.3 15.3 6.8 17.2c-.4 1.9 4.8 9.7 12.3 7.5s3-14.3 3-14.3l-7.2-14.8-.3-.7c.7-.4 1.4-.9 2-1.5 0 0-2.2-15.9 0-19.4 2.2-3.4 2.9-19.2 2.9-19.2s-1.5-10.8-4.2-15.5l-11.1-39.9c3.3 3.1 5.9 4.3 8 4.2h.4c.9 0 1.9-.2 2.7-.7.4-.3.9-.5 1.2-.9.1-.1.1-.1.2-.2 3.1-2.6-3.5-12.7-7.3-18.7-3.6-5.8 1.4-21.6 1.7-22.7.3-.2.7-.5 1.1-.6.8-.3 1.6-.5 2.4-.5 3.6.1 8 2.2 13.4 3.2 3.8.6 7.6.9 11.5.9h.2c1.5 0 2.9 0 4-.1 1 0 2-.3 2.9-.8.8-.5 1.5-1 2.1-1.7l9.6-10.8-.2.1c.5-1.2.5-2.6 0-3.8l10.1-17.5c1.2-1.7 1.4-3.9.7-5.7z" fill="url(#u)"/><path d="m94.1 656.4-10.2 9.8c-2.3 10-8.1 11.7-8.1 11.7-15.5 2.8-8.5-11.9-8.5-11.9l9.8-16.6 1.2-2.1s7-2.1 11.7-.8c.6.2 1.1.5 1.6.9 3 2.5 2.5 9 2.5 9z" fill="#444176"/><path d="m156.9 665.1c-7.2 2.1-12.3-5.5-11.9-7.4.5-1.9-6.6-17-6.6-17l.5-4 .5-3.7 11.9.8 1.1 2.3 6.9 14.6c.1.2 4.8 12.3-2.4 14.4z" fill="#444176"/><path d="m91.7 649c-1.1 1.9-10.2.9-14.6.3l1.2-2.1s7-2.1 11.7-.8c.6.2 1.1.5 1.6.9.1 1 .1 1.7.1 1.7z" opacity=".1"/><path d="m152.5 636.3c-6.1 4-12.5 1-13.5.5l.5-3.7 11.9.8z" opacity=".1"/><path d="m154.1 615c-2.1 3.4 0 19.1 0 19.1-7 6.4-15.3 1.7-15.3 1.7l-1.2-38.4s-13.8-31.6-23.6-30.8-25.9 35-25.9 35 4.5 29.3 3.6 31.8 0 14.9 0 14.9c-1.5 2.5-17 0-17 0l-4.5-55.2 5.9-12.3c3.4-12.1 9.2-25 12.6-32.2 1.7-3.6 2.9-5.8 2.9-5.8l11.3-2.4 36.6-7.6 13.2 47.9c2.5 4.7 4 15.3 4 15.3s-.4 15.6-2.6 19z" fill="#565387"/><g opacity=".1"><path d="m142.3 635.8-1.2-38.4s-13.8-31.6-23.6-30.8c-.4 0-.9.1-1.3.3 9.5 3.2 21.4 30.5 21.4 30.5l1.2 38.4c2.6 1.3 5.5 1.9 8.4 1.5-1.7-.1-3.4-.7-4.9-1.5z"/><path d="m78.2 648.4-4.5-55.2 5.9-12.3c3.4-12.1 9.2-25 12.6-32.2 1.7-3.6 2.9-5.8 2.9-5.8l11.3-2.4 33.5-7-.2-.7-36.7 7.6-11.3 2.4s-1.1 2.2-2.9 5.8c-3.5 7.2-9.2 20.2-12.6 32.2l-5.9 12.3 4.5 55.2s8.5 1.4 13.5 1.1c-3.4-.2-6.8-.5-10.1-1z"/></g><path d="m52.4 477.4s-12.1.6-10.4 13.4l3.4.4 5.1-5.5 2.5-4.7v-1z" fill="#ced2df"/><path d="m52.4 477.4s-12.1.6-10.4 13.4l3.4.4 5.1-5.5 2.5-4.7v-1z" opacity=".1"/><path d="m114.3 427.3h8.5c7.3 0 13.2 5.9 13.2 13.2 0 7.3-5.9 13.2-13.2 13.2h-8.5c-7.3 0-13.2-5.9-13.2-13.2.1-7.3 6-13.2 13.2-13.2z" fill="#88455e"/><path d="m52.3 479.2-7.4 11.9-.6-2.1-10.1-32.9c-.3-1.1-.3-2.3.2-3.4 2.6-6.2 11.5-26.8 14.8-17.2 3.8 11.2-6.6 23.3-6.6 23.3 1.2 9.8 6.7 17 8.9 19.4.4.7.8 1 .8 1z" fill="#ec8c9c"/><path d="m185.3 484.3s11.7-11 11.2-15.5c0 0-11-17.8-5.5-21.8 4.4-3.2 11 12.9 13.6 19.7.7 1.8.5 3.9-.4 5.6l-13.9 24.7z" fill="#ec8c9c"/><path d="m109.8 453.6s2.1 13.6-4 18.7c-6.2 5.1 17.6 5.1 17.6 5.1l8.5-7.9s-9.8-9.1-6.8-15.9z" fill="#ec8c9c"/><path d="m109.4 469s9.1 6.8 18.2-.8l14.9 30.8-.8 37.6s-30.8 15.9-43.5 6.2-2.2-15-2.2-15l-3-28.8 3.2-18.7s5.7-8.9 6.2-8.9c.4 0 7-2.4 7-2.4z" opacity=".1"/><path d="m109.4 468.6s9.1 6.8 18.3-.8l14.9 30.8-.8 37.6s-30.8 15.9-43.5 6.2-2.3-15-2.3-15l-3-28.9 3.2-18.7s5.7-8.9 6.2-8.9c.4.1 7-2.3 7-2.3z" fill="#ebf1f6"/><path d="m109.4 465.4s-8.7 4.9-18 4.7c-1.8-.1-3.5.6-4.8 1.8-2.7 2.6-7.4 6.6-10.3 6.6-.6 0-18.7 3.6-18.7 3.6l-4.8-4.8s-7.1 13.9-10.5 13.3l6.2 8.1s11.7 5.1 26.9-1.1h8.9l4.7 14.4s-2.3 19.5-4.2 23.8.6 12.5.6 12.5l16.8-.6s.8-8.3 2.1-9.4-4.5-37.6-4.5-37.6-3.8-20.6 10.2-28z" opacity=".1"/><path d="m103 540.5c-.6 2.5-1.1 5.1-1.3 7.7l-12.8.5c1.7-3.6 2.9-5.8 2.9-5.8z" opacity=".1"/><path d="m52.3 479.2-7.4 11.9-.6-2.1c2.7-2.7 5.9-8.4 7.2-10.7.4.6.8.9.8.9z" opacity=".1"/><path d="m109.4 465.4s-9.1 4.9-18.5 4.7c-1.8-.1-3.5.6-4.8 1.8-2.7 2.6-7.4 6.6-10.3 6.6-.6 0-18.7 3.6-18.7 3.6l-4.8-4.8s-7.1 13.9-10.5 13.3l6.2 8.1s11.7 5.1 26.9-1.1h8.9l4.7 14.4s-2.3 19.5-4.2 23.8c-1.9 4.2.6 12.5.6 12.5l16.8-.6s.8-8.3 2.1-9.4-4.5-37.6-4.5-37.6-3.8-20.6 10.2-28z" fill="#ced2df"/><path d="m127.6 464.2s8.7 6.6 20.2 7.4c1.3.1 2.5.5 3.5 1.3 2.9 2.5 5.4 5.4 7.3 8.7 4.7 7.6 16.1 6.8 16.1 6.8s11.1-3.5 11.8-6.2c0 0 .3 15 7.3 11.4l-9.2 10.6c-1.2 1.4-2.9 2.2-4.6 2.2-3.5.1-9.5.2-14.6-.8-7.6-1.5-13.2-5.1-17.2-1.9 0 0-5.3 16.5-1.7 22.5 3.6 5.9 10 15.9 7 18.5s-6.6 2.3-12.5-3.8c-5.9-6.2-6.6-16.5-6.6-16.5l1.5-26.7s-5.7-20.2-11.2-24.2z" opacity=".1"/><path d="m194.7 493.2-9.2 10.7c-.6.7-1.4 1.3-2.2 1.7-.8.3-1.6.5-2.4.6-3.5.1-9.5.2-14.6-.8-7.1-1.4-12.4-4.6-16.4-2.4-.3.2-.5.3-.8.5 0 0-5.3 16.5-1.7 22.5 3.6 5.9 10 15.9 7 18.5-.5.4-1.1.8-1.7 1.1-2.7 1.2-6 .2-10.9-4.9-5.9-6.2-6.6-16.5-6.6-16.5l1.5-26.7s-5.7-20.2-11.2-24.2l2.4-8.7c1.7 1.1 10 6.5 20.3 7.1 1.3.1 2.5.5 3.5 1.3 2.9 2.5 5.4 5.4 7.3 8.7 4.7 7.6 16.1 6.8 16.1 6.8 2.7-.9 5.4-1.9 8-3.2 1.6-.8 3.1-1.7 3.7-2.5.2-.2.3-.5.4-.7s.5 14.7 7.5 11.1z" opacity=".1"/><path d="m194.2 493.4-9.2 10.7c-.5.6-1.1 1.1-1.8 1.4-.9.5-1.8.7-2.8.8-3.5.1-9.5.2-14.6-.8-6.9-1.3-12.1-4.4-16-2.7-.4.2-.9.4-1.2.7 0 0-5.3 16.5-1.7 22.5 3.6 5.9 10 15.9 7 18.5-.4.3-.8.6-1.2.9-2.7 1.5-6.1.6-11.3-4.7-5.9-6.2-6.6-16.5-6.6-16.5l1.5-26.7s-5.7-20.2-11.2-24.2l2.5-9.1.3.2c1.7 1.1 10 6.5 20.3 7.1 1.3.1 2.5.5 3.5 1.3 2.9 2.5 5.4 5.4 7.3 8.7 4.7 7.6 16.1 6.8 16.1 6.8 2.7-.9 5.4-1.9 8-3.2 1.9-1 3.5-2.1 3.7-3.1v.5c.3 2.8 1.2 14.1 7.4 10.9z" fill="#ced2df"/><path d="m125.3 453.9h-15.6c.3 2.5.4 5 .3 7.5 4.9 3.4 11.2 3.9 16.5 1.2-1.6-2.8-2.5-6-1.2-8.7z" opacity=".1"/><circle cx="119.1" cy="448.5" fill="#ec8c9c" r="15.5"/><path d="m115.9 445.7c1.7-.2 3.5-.8 5.2-.5 1.5.3 2.9 1.4 4.4 1.7 3 .6 5.8-1.6 8-3.6l4.9-4.4c1.1-1 2.2-2 2.7-3.4.6-1.3.4-3.1-.8-4-1.8-1.2-4.8 0-6.1-1.8-.6-.8-.5-1.9-.8-2.8-.6-1.9-2.8-3-4.8-3s-3.9.7-5.9 1.2c-4 1.2-8.3 1.6-12.5 1.2-1.1-.2-2.3-.2-3.4.1-1.4.6-2.4 1.8-2.8 3.3-1 3.4.7 8.9 2.3 11.9 1.7 3.2 6.3 4.5 9.6 4.1z" opacity=".1"/><path d="m115.9 445.3c1.7-.2 3.5-.8 5.2-.5 1.5.3 2.9 1.4 4.4 1.7 3 .6 5.8-1.6 8-3.6l4.9-4.4c1.1-1 2.2-2 2.7-3.4.6-1.3.4-3.1-.8-4-1.8-1.2-4.8 0-6.1-1.8-.6-.8-.5-1.9-.8-2.8-.6-1.9-2.8-3-4.8-3s-3.9.7-5.9 1.2c-4 1.2-8.3 1.6-12.5 1.2-1.1-.2-2.3-.2-3.4.1-1.4.6-2.4 1.8-2.8 3.3-1 3.4.7 8.9 2.3 11.9 1.7 3.1 6.3 4.5 9.6 4.1z" fill="#88455e"/><path d="m88.9 512.2s3.4.4 5.1 2.5 4.7 2.8 4.7 2.8" opacity=".1"/><path d="m58.3 484.2s2.8 6.2 1.1 6.8-1.1 5.1-1.1 5.1" opacity=".1"/><g opacity=".1"><path d="m59.3 482.1s18-3.6 18.7-3.6c2.9 0 7.6-4.1 10.3-6.6.8-.8 1.8-1.3 2.9-1.6h-.2c-1.8-.1-3.5.6-4.8 1.8-2.7 2.6-7.4 6.6-10.3 6.6-.5 0-12 2.3-16.7 3.2z"/><path d="m109.4 466.3v-.8c-4.3 2.2-9 3.7-13.8 4.4 4.7-.4 9.4-1.6 13.8-3.6z"/><path d="m87.1 548.3s-2.5-8.3-.6-12.5 4.2-23.8 4.2-23.8l-4.7-14.4h-8.9l-.5.2h7.3l4.6 14.4s-2.3 19.5-4.2 23.8.6 12.5.6 12.5l16.8-.6v-.1z"/></g><g opacity=".1"><path d="m154.1 541.2c-.4.3-.8.6-1.2.9-2.7 1.5-6.1.6-11.3-4.7-4.7-4.9-6.1-12.5-6.5-15.4l-.1 2.2s.6 10.4 6.6 16.5c5.1 5.3 8.5 6.2 11.3 4.7.4-.2.9-.5 1.2-.9.9-.8.9-2.2.5-4-.1.3-.3.5-.5.7z"/><path d="m191.2 493.8-6 6.9c-.5.6-1.1 1.1-1.8 1.4-.9.5-1.8.7-2.8.8-3.5.1-9.5.2-14.6-.8-6.9-1.3-12.1-4.4-16-2.7-.4.2-.9.4-1.2.7 0 0-3.4 10.7-2.9 18 .4-6.8 2.9-14.6 2.9-14.6.4-.3.8-.5 1.2-.7 3.9-1.8 9.1 1.3 16 2.7 5.1 1 11.1.9 14.6.8 1 0 2-.3 2.8-.8.7-.4 1.3-.8 1.8-1.4l9.2-10.7c-.9.7-2.1.8-3.2.4z"/></g><path d="m593.9 376.9c0-.1 0-.2 0-.2 0-.1 0-.2 0-.2h-.1c0-.2 0-.3 0-.5-.2-5.6-8-17.6-11.1-14.1-2.7 3.1 1.4 10.8 3.5 14.3l.2.3-.1-.1s-8.7 25.9-9.7 26.9-8.2 21.4-17.6 23.7c-1.9.4-3.4.8-4.7 1.2l.1-.3c.6-2 1.4-3.9 1.7-6.1s0-4.9-1.1-6c-.5-.5-1.2-.6-1.7-1.5-.3-.7-.4-1.5-.5-2.3l-.8-9.8.6-.2c3.4-1.1 6.6-3.6 7-7.1-.1 0-.2.1-.4.1 0-.2.1-.4.1-.6-2.8 1.1-5.5-1.8-8.2-3.1-4.5-2.2-9.6-.1-14.3.4-5.3.6-10.3-1.6-15.6-1.2-2.9.2-6.2 2.2-6 5.1.1 1.6 1.2 2.9 1.7 4.4 1.2 3.7-1.4 7.4-3.7 10.5-1.5 2.1-2.9 4.6-3.2 7-5.2-5.5-10.9-11.8-11.5-14.2l-15.1-25.9s-.4.4-.9.9c-.1-.3-.2-.6-.3-.9-1.9-5.4-7.4-18.5-14.3-16.1s2.9 15.8 7.1 21.2l.6.7c-.4.1-.7.1-1.1 0l16.9 28.9s3.1 5.5 5.9 7c0 0 21 26.4 21.2 31.7.3 5.3 9.4 19.4 9.4 19.4s3.1 22.9-2.3 26.9h.1.1.1.1.1.1.1.1.1.1c-.3.2-.5.5-.8.8-4 4.4-9.1 13.9-2.1 29.9 10.2 23.7 11.8 33 11.8 33s-19.4 1-23.3 1.8c-3.4.7-16.6 1.1-19.6 1.2-1.1-1.3-4.3-4-8.5 0-5.4 5-9.2 21.9-9.2 21.9s-2 13.6 4.9 10.1c0 0 8.2-11.3 10.5-11.8 1.1-.2 2.4-1.9 3.3-3.6.1 0 .3-.1.6-.3 1.7-.7 6.4-2.3 10.1-1.5 2 .4 10.7.5 19.8.5-2.1 4.9-5.7 17.6-5.7 17.6s-1.5 11.8 3.6 11.3c3.6-.4 9.2-9.7 12.1-15 2.1-1.5 8.2-7.1 12.6-6.7l30.2-11.6s7.2-4 3.3-17.4c-3-10.6-11.7-32.3-15.1-40.8l-.1-.2c-.8-2-1.3-3.3-1.3-3.3-1.4-3.9-2.3-7.9-2.7-12 0-.3-.1-.6-.1-1 .4-.2.8-.4 1.2-.7 0 0-2.8-28.4 0-31.5v-.1-.1l.1-.1.1-.2c.2-.2.3-.4.5-.8 1.6-2.4 4.6-7.7 3.7-14.1 0-.3-.1-.6-.1-.8-.3-1.7-.9-3.4-1.7-4.9-.1-.6-.2-1.3-.2-1.9 0-.4 0-.8 0-1.2v.4c0-.1 0-.2 0-.4v-.1c0-.3 0-.6.1-.9v-.1c0-.1 0-.2.1-.3v-.1c0-.1 0-.2.1-.3v-.1c0-.1.1-.3.1-.4v-.1c0-.1.1-.2.1-.4l.1-.1.1-.3.1-.1c0-.1.1-.2.2-.3v-.1c.1-.1.1-.3.2-.4l.1-.1.2-.3.1-.1.2-.3.1-.1c.1-.1.2-.2.3-.3 3.3-3 18.1-25.4 18.1-25.4s3.6-5 3.6-8.3c-.2-.2 6.2-21.3 5.5-27.7zm-39.8 188.1c-.4-3.4-.7-7.7-1.1-12.1l5.8 9s-.5 2.7-4.7 3.1z" fill="url(#v)"/><path d="m493.9 563.1s-3.5-5.5-8.7-.5-8.9 21.5-8.9 21.5-2 13.4 4.7 9.9c0 0 7.9-11.1 10.1-11.6s4.7-6.7 4.7-6.7z" fill="#493545"/><path d="m531 576.5s-4.7-2.2-6.2-.5-6.4 19-6.4 19-1.5 11.4 3.5 10.9c4.9-.5 13.6-18.3 13.6-18.3z" fill="#493545"/><path d="m531 576.5s-4.7-2.2-6.2-.5-6.4 19-6.4 19-1.5 11.4 3.5 10.9c4.9-.5 13.6-18.3 13.6-18.3z" opacity=".05"/><path d="m547.3 542.8 10.6 16.6s-.7 3.7-7.2 3l-22 13.9s-1.9 16.9 4.2 15.3c1-.2 7.9-7.4 12.9-6.9l29.2-11.4s6.9-4 3.2-17.1-16-43.5-16-43.5l-19.4 10.8z" fill="#3e3d77"/><path d="m547.3 542.8 10.6 16.6s-.7 3.7-7.2 3l-22 13.9s-1.9 16.9 4.2 15.3c1-.2 7.9-7.4 12.9-6.9l29.2-11.4s6.9-4 3.2-17.1-16-43.5-16-43.5l-19.4 10.8z" opacity=".05"/><path d="m554 567.3c1.5 9.4-6.9 10.1-6.9 10.1s-37.8.7-42.3-.2c-4.5-1-10.4 1.7-10.4 1.7-7.7-4.7-1.5-16.3-1.5-16.3s15.8-.5 19.5-1.2 22.5-1.7 22.5-1.7-1.5-9.2-11.4-32.4c-6.7-15.8-1.8-25.1 2-29.4 1-1.1 2.1-2.2 3.4-3l30.4 1.5c0 1.5 0 3.1.2 4.6.5 5.2 1.9 10.4 4 15.2-1.7 0-12.9 10.4-12.9 10.4s1.9 31.3 3.4 40.7z" fill="#3e3d77"/><path d="m495.1 563.6s15.8-.5 19.5-1.2 22.5-1.7 22.5-1.7-1.5-9.2-11.4-32.4c-6.7-15.8-1.8-25.1 2-29.4 1-1.1 2.1-2.2 3.4-3l28.2 1.4c0-.3 0-.6 0-.9l-30.4-1.5c-1.3.8-2.4 1.8-3.4 3-3.8 4.3-8.8 13.6-2 29.4 9.9 23.2 11.4 32.4 11.4 32.4s-18.8 1-22.5 1.7-19.5 1.2-19.5 1.2-6.2 11.6 1.5 16.3c0 0 .2-.1.6-.3-5.1-5.2.1-15 .1-15z" opacity=".1"/><path d="m525 404.1h15.3v38.8h-15.3z" fill="#493545"/><path d="m525 404.1h15.3v38.8h-15.3z" opacity=".1"/><path d="m549.1 398.4c.5.1 1.1.2 1.5.9.2.6.3 1.2.4 1.8l1 12c0 .8.2 1.6.4 2.3.4.8 1.1.9 1.6 1.4 1.1 1.1 1.4 3.7 1.1 5.9s-1 4-1.6 6c-.8 2.8-1.4 5.9-2.5 8.3-1.2 2.4-3.3 3.6-4.6 1.7s-1.2-6-1.4-9.2c-.4-5.5-2.6-10.2-2.7-15.7-.1-4.5 1.1-8.6 1.8-12.8.5-2.9.6-6.4 1.3-9 .6 2.9 1.8 5.9 3.7 6.4z" fill="#493545"/><path d="m549.1 398.4c.5.1 1.1.2 1.5.9.2.6.3 1.2.4 1.8l1 12c0 .8.2 1.6.4 2.3.4.8 1.1.9 1.6 1.4 1.1 1.1 1.4 3.7 1.1 5.9s-1 4-1.6 6c-.8 2.8-1.4 5.9-2.5 8.3-1.2 2.4-3.3 3.6-4.6 1.7s-1.2-6-1.4-9.2c-.4-5.5-2.6-10.2-2.7-15.7-.1-4.5 1.1-8.6 1.8-12.8.5-2.9.6-6.4 1.3-9 .6 2.9 1.8 5.9 3.7 6.4z" opacity=".1"/><path d="m484.2 381.3-5.9 4.9s-.7-.8-1.8-2.2c-4.1-5.3-13.6-18.5-6.9-20.8 6.7-2.4 12 10.5 13.9 15.8.5 1.5.7 2.3.7 2.3z" fill="#c77485"/><path d="m591.3 379.6c-2.5 3.7-5.9 0-5.9 0s-.4-.7-1.1-1.7c-2-3.4-6-11.1-3.4-14.1 3-3.5 10.6 8.3 10.8 13.9.1.6-.1 1.3-.4 1.9z" fill="#c77485"/><path d="m530.5 419.7s4.9 15.8 3.5 20.5c-1.5 4.7 10.6 10.2 10.6 10.2h13.9s4.9-10.1 3.7-13.1-11.9-5.2-11.9-5.2-6.2 0-5.9-16.6z" fill="#c77485"/><path d="m484.2 381.3-5.9 4.9s-.7-.8-1.8-2.2c2.2-.4 5.5-3.5 7-5 .5 1.5.7 2.3.7 2.3z" opacity=".1"/><path d="m591.3 379.6c-2.5 3.7-5.9 0-5.9 0s-.4-.7-1.1-1.7l.1-.2c1.6 1.1 6.6.2 7.3 0 .1.6-.1 1.3-.4 1.9z" opacity=".1"/><path d="m559.6 500.9c-7.7 3.5-32.5-2.7-34-3.1 1-1.1 2.1-2.2 3.4-3l30.4 1.5c-.1 1.6 0 3.1.2 4.6z" opacity=".1"/><path d="m533.7 433.3s-5.9 2-14.3-5.7c0 0-18.8-18.6-20-23l-14.6-25.5s-6.2 6.7-8.7 5.7l16.3 28.4s3 5.5 5.7 6.9c0 0 20.3 26 20.5 31.2s9.1 19.1 9.1 19.1 3 22.5-2.2 26.5c0 0 28.9 7.4 35.1 2.5 0 0-2.7-27.9 0-30.9 0 0 8.4-9.9 2.7-20.8 0 0-1.2-5.9 2-8.9s17.6-25 17.6-25 3.5-4.9 3.5-8.2c0 0 6.4-21.8 5.5-27.5 0 0-5.7 1.2-7.4 0 0 0-8.4 25.5-9.4 26.5s-7.9 21-17.1 23.3c-9.2 2.2-10.6 3.2-10.6 3.2s17.8 11.1 9.2 16.1c-8.8 4.9-22.9-13.9-22.9-13.9z" fill="#ff8aa1"/><path d="m544.9 423.5c-.3-2.3-.4-4.7-.4-7l-13.9 4.2c.4.9.7 1.9.9 2.8 1.6.7 3.7 2.4 5.6 2.4 2.8 0 5.6-.8 7.8-2.4z" opacity=".1"/><circle cx="536.9" cy="412.2" fill="#c77485" r="12.9"/><path d="m521.6 392.4c-2.8.2-6 2.2-5.8 5 .1 1.6 1.2 2.9 1.6 4.4 1.1 3.6-1.4 7.2-3.6 10.3s-4.3 7.2-2.4 10.4c.5.8 1.1 1.5 1.7 2.3 2.3 3.1 2.3 7.4 3.3 11.1 2.7 10 12.8 16.1 23 14-1.8-2.3-2.8-5.3-2.6-8.3.1-2.2.8-4.4 0-6.4-1.1-2.6-4.3-3.6-5.9-5.8s-1.5-5.4-.7-8c.8-2.7 2.2-5.2 2.8-7.9.2-.8.4-1.6.6-2.4 1.1-3.2 4.6-5.1 7.9-5.9s6.8-.9 10.1-1.9c3.3-1.1 6.4-3.6 6.8-7-2.7 1.1-5.3-1.8-7.9-3.1-4.4-2.2-9.3-.1-13.8.4-5.1.6-9.9-1.5-15.1-1.2z" opacity=".1"/><path d="m521.3 391.9c-2.8.2-6 2.2-5.8 5 .1 1.6 1.2 2.9 1.6 4.4 1.1 3.6-1.4 7.2-3.6 10.3s-4.3 7.2-2.4 10.4c.5.8 1.1 1.5 1.7 2.3 2.3 3.1 2.3 7.4 3.3 11.1 2.7 10 12.8 16.1 23 14-1.8-2.3-2.8-5.3-2.6-8.3.1-2.2.8-4.4 0-6.4-1.1-2.6-4.3-3.6-5.9-5.8s-1.5-5.4-.7-8c.8-2.7 2.2-5.2 2.8-7.9.2-.8.4-1.6.6-2.4 1.1-3.2 4.6-5.1 7.9-5.9s6.8-.9 10.1-1.9 6.4-3.6 6.8-7c-2.7 1.1-5.3-1.8-7.9-3.1-4.4-2.2-9.3-.1-13.8.4-5 .6-9.9-1.6-15.1-1.2z" fill="#493545"/><path d="m549.6 440.8s5.1 4.6 6.2 6.6" opacity=".1"/><g opacity=".1"><path d="m556.4 447.1c-.6.3-1.2.5-1.8.7 1.6.4 3.3.1 4.7-.7 8.7-4.9-9.2-16.1-9.2-16.1h-3c.2 0 18 11.2 9.3 16.1z"/><path d="m591.9 378.6c0-.2 0-.3-.1-.4-1 .2-2 .4-3.1.5 1.1 0 2.1 0 3.2-.1z"/><path d="m528.5 496.8c5.2-4 2.2-26.5 2.2-26.5s-8.9-13.9-9.2-19c-.2-5.2-20.5-31.2-20.5-31.2-2.7-1.5-5.7-6.9-5.7-6.9s-16.8-27.5-19.3-28.4l16.3 28.4s3 5.5 5.7 6.9c0 0 20.3 26 20.5 31.2s9.1 19.1 9.1 19.1 3 22.5-2.2 26.5c0 0 17.8 4.6 28.4 4.1-10.5-.4-25.3-4.2-25.3-4.2z"/><path d="m533.8 433.5-.1-.2c-.2.1-.3.1-.5.1.2 0 .4 0 .6.1z"/></g><g opacity=".1"><path d="m591.8 378.1h-.2c-.3 7.6-5.5 25.4-5.5 25.4 0 3.2-3.5 8.2-3.5 8.2s-14.3 22-17.6 25c-3.2 3-2 8.9-2 8.9v.1c-.1-2 .1-5.1 2.2-7 3.2-3 17.6-25 17.6-25s3.5-4.9 3.5-8.2c.1.1 6.5-21.7 5.5-27.4z"/><path d="m560.4 466.4c.4 2.1.1-.1.2 2 0 0 6.1-7.1 4.4-15.9.5 7.8-4.6 13.9-4.6 13.9z"/></g></svg>