<svg enable-background="new 0 0 300 300" viewBox="0 0 300 300" xmlns="http://www.w3.org/2000/svg" xmlns:xlink="http://www.w3.org/1999/xlink"><linearGradient id="a"><stop offset="0" stop-color="#808080" stop-opacity=".25"/><stop offset=".54" stop-color="#808080" stop-opacity=".12"/><stop offset="1" stop-color="#808080" stop-opacity=".1"/></linearGradient><linearGradient id="b" gradientTransform="matrix(1 0 0 -1 -168.58 139)" gradientUnits="userSpaceOnUse" x1="282.8081" x2="282.8081" xlink:href="#a" y1="-80.5844" y2="44.2769"/><linearGradient id="c" gradientTransform="matrix(1 0 0 -1 -168.58 139)" gradientUnits="userSpaceOnUse" x1="188.9428" x2="215.933" xlink:href="#a" y1="-77.2965" y2="-77.2965"/><linearGradient id="d" gradientTransform="matrix(1 0 0 -1 -168.58 139)" gradientUnits="userSpaceOnUse" x1="367.0153" x2="367.0153" xlink:href="#a" y1="-100.5575" y2="-80.153"/><linearGradient id="e" gradientTransform="matrix(1 0 0 -1 0 302)" gradientUnits="userSpaceOnUse" x1="114.096" x2="114.096" xlink:href="#a" y1="63.3288" y2="116.2044"/><linearGradient id="f" gradientTransform="matrix(1 0 0 -1 0 302)" gradientUnits="userSpaceOnUse" x1="179.7541" x2="179.7541" xlink:href="#a" y1="203.6214" y2="235.1796"/><linearGradient id="g" gradientTransform="matrix(1 0 0 -1 0 302)" gradientUnits="userSpaceOnUse" x1="184.9179" x2="184.9179" xlink:href="#a" y1="196.3305" y2="227.8887"/><linearGradient id="h" gradientTransform="matrix(1 0 0 -1 0 302)" gradientUnits="userSpaceOnUse" x1="225.5746" x2="225.5746" xlink:href="#a" y1="205.0127" y2="223.1128"/><linearGradient id="i" gradientTransform="matrix(1 0 0 -1 -168.58 139)" gradientUnits="userSpaceOnUse" x1="394.1529" x2="394.1529" xlink:href="#a" y1="52.2835" y2="57.5275"/><linearGradient id="j" gradientTransform="matrix(1 0 0 -1 0 302)" gradientUnits="userSpaceOnUse" x1="264.1677" x2="264.1677" xlink:href="#a" y1="190.6851" y2="238.9521"/><linearGradient id="k" gradientTransform="matrix(1 0 0 -1 -168.58 139)" gradientUnits="userSpaceOnUse" x1="432.9401" x2="432.9401" xlink:href="#a" y1="62.0626" y2="68.9588"/><linearGradient id="l" gradientTransform="matrix(1 0 0 -1 0 302)" gradientUnits="userSpaceOnUse" x1="231.8621" x2="231.8621" xlink:href="#a" y1="157.0568" y2="177.1067"/><linearGradient id="m" gradientTransform="matrix(1 0 0 -1 0 302)" gradientUnits="userSpaceOnUse" x1="219.4994" x2="219.4994" xlink:href="#a" y1="159.6119" y2="184.4611"/><path d="m147.9 189.6c-2.2-8.1-14.7-14.1-24.4-15.7v-3.9l.5-.2c-.1-.8-.2-1.5-.5-2.3 4.1-1.7 7.7-4.5 10.3-8.2 10.1-10.6 9.7-27.4-.9-37.5-1.3-1.3-2.8-2.4-4.4-3.4 2.4-1.5 3.2-4.7 1.6-7.2-.9-1.4-2.3-2.3-4-2.4 2.2-5.2-.2-11.1-5.4-13.3-3.5-1.5-7.5-.9-10.4 1.5 5-2.6 11.1-.8 13.7 4.2.8 1.5 1.2 3.1 1.2 4.8v.3c-.2-5.6-4.8-10-10.5-9.9-5.6.2-10 4.8-9.9 10.5 0 1.1.2 2.2.6 3.2-2.7.6-4.5 3.3-3.9 6 .1.5.3 1 .5 1.4-13 6.8-18 22.9-11.2 35.8 1.2 2.3 2.8 4.5 4.7 6.4 2.5 3.3 5.8 5.9 9.6 7.6v6.5c-9.8 1.4-22.7 7.5-25 15.8-2 7.3-4.1 15.2-5.1 19.9 9 6.3 27.7 10 39.5 10 11.2 0 29.5-3.3 38.2-9.1-.6-5-2.7-13.3-4.8-20.8zm-17.9-75.1v.3c-.1-2.4-1.9-4.3-4.2-4.7.1-.2.2-.3.3-.5 2.3.5 3.9 2.5 3.9 4.9z" fill="url(#b)"/><path d="m114.9 217.8c10.9 0 28.6-3.2 37.1-8.8-.9-5-3-13.1-5-20.3-2.5-9.2-18.6-15.6-28.1-15.6h-9.2c-9.6 0-25.6 6.4-28.1 15.7-1.9 7.1-4 14.8-5 19.4 8.6 6 26.9 9.6 38.3 9.6z" fill="#8a3aff"/><circle cx="114.7" cy="141.5" fill="#f55f44" r="25.8"/><path d="m107.8 159.4h13.5c1.1 0 2 .9 2 2v13.8c0 4.6-3.7 8.3-8.3 8.3h-1c-4.6 0-8.3-3.7-8.3-8.3v-13.8c0-1.1.9-2 2.1-2z" fill="#fda57d"/><path d="m115.3 171.1c2.9 0 5.8-.6 8.5-1.6-.3-4.4-3.9-7.8-8.4-7.9h-.7c-4.3 0-8 3.3-8.4 7.6 2.9 1.3 5.9 1.9 9 1.9z" opacity=".05"/><circle cx="114.8" cy="146.1" fill="#fda57d" r="22.8"/><circle cx="107" cy="116.3" fill="#f55f44" r="4.9"/><circle cx="124.6" cy="116.3" fill="#f55f44" r="4.9"/><circle cx="115.3" cy="108" fill="#f55f44" r="9.9"/><path d="m125.7 110.2c-1 0-1.9.3-2.8.8 2.6-.9 5.4.4 6.3 3 .7 2.1 0 4.5-1.9 5.7 2.6-.9 3.9-3.7 3-6.3-.7-1.9-2.5-3.2-4.6-3.2z" fill="#f55f44"/><path d="m116.9 96.5c-2.3 0-4.5.8-6.3 2.3 4.8-2.6 10.8-.7 13.4 4.1 2.2 4.1 1.2 9.3-2.4 12.3 4.8-2.6 6.6-8.5 4.1-13.4-1.8-3.3-5.1-5.3-8.8-5.3z" fill="#f55f44"/><path d="m98.3 125.6s2.7 18.1 37.3 8.2l-17-14.8z" fill="#f55f44"/><path d="m47.2 209.7c.5-2.1-.3-4.3-2.1-5.6-.5-.3-.9-.6-1.4-.9-.7-.6-1.2-1.4-1.4-2.3-.7-2.1-.9-4.4-2.1-6.3-1.1-1.7-3.3-2.2-5.2-2.4-.7-.1-1.4 0-2.1.2-1.1.5-1.6 1.7-1.6 2.9-.1 1.2.3 2.3.3 3.5.1 1.2-.1 2.5-1 3.3s-2.1.9-3.3 1.1c-1.5.2-3 .6-4.4 1.1-1.2.4-2.5 1.2-2.6 2.5 0 1 .8 1.9 1.4 2.7 1.2 1.6 1.7 3.6 1.4 5.5-.4 1.9-1.8 3.6-2 5.6-.1.5 0 1 .2 1.5.2.3.4.6.7.8.7.6 1.6 1 2.3 1.7 1.5 1.3 2.3 3.2 2.9 5 .1.2.1.4.2.5h-1.4c-2.9 0-5.3 2.4-5.3 5.3 0 2.9 2.4 5.3 5.3 5.3h14.3c2.9 0 5.3-2.4 5.3-5.3 0-2.9-2.4-5.3-5.3-5.3h-3.9c.9-1.2 1.9-2.4 3.3-2.9s3.2-.2 4.3-1.2c.5-.5.9-1.2 1-1.9.2-1.3 0-2.7-.6-3.8-.5-.8-1.1-1.5-1.3-2.5-.1-.8.1-1.6.5-2.3 1.1-2.1 3-3.7 3.6-5.8z" fill="url(#c)" opacity=".7"/><path d="m34.9 193.3c-.7-.1-1.3 0-2 .2-1 .5-1.5 1.7-1.6 2.8 0 1.1.2 2.2.3 3.3s-.1 2.3-.9 3.1-2 .8-3.1 1c-1.4.2-2.8.5-4.2 1-1.1.4-2.4 1.2-2.5 2.4 0 1 .8 1.8 1.4 2.6 1.2 1.5 1.6 3.4 1.3 5.2-.4 1.8-1.7 3.4-1.9 5.3-.1.5 0 1 .2 1.4.2.3.4.6.7.8.7.5 1.5 1 2.2 1.6 1.4 1.2 2.1 3 2.7 4.8.6 1.7 1 3.5 1.3 5.3 1.2-.8 2.7-.8 4-1.4 2.7-1.3 3.6-5.2 6.5-6.2 1.4-.5 3-.2 4.1-1.1.5-.5.8-1.1.9-1.8.2-1.2 0-2.5-.6-3.6-.4-.8-1.1-1.5-1.2-2.3s.1-1.5.5-2.2c1-1.9 2.9-3.3 3.4-5.4.5-2-.3-4.1-2-5.3-.5-.3-.9-.5-1.3-.9-.6-.6-1.1-1.4-1.3-2.2-.7-2-.9-4.2-2-6-1-1.8-3-2.2-4.9-2.4z" fill="#4db6ac"/><path d="m34.9 193.4s2.5 33.9-4 39.7" fill="none" opacity=".6" stroke="#535461" stroke-miterlimit="10"/><path d="m26 229.3h14.2c2.6 0 4.8 2.1 4.8 4.8v.5c0 2.6-2.1 4.8-4.8 4.8h-14.2c-2.6 0-4.8-2.1-4.8-4.8v-.6c.1-2.6 2.2-4.7 4.8-4.7z" fill="#8a3aff"/><path d="m21 206.5s6.5-.8 14.4 4" fill="none" opacity=".6" stroke="#535461" stroke-miterlimit="10"/><path d="m35.2 214.6c2.6-3.8 6.7-6.4 11.3-7.1" fill="none" opacity=".6" stroke="#535461" stroke-miterlimit="10"/><path d="m21.6 220.3s9-1.5 13.1 1" fill="none" opacity=".6" stroke="#535461" stroke-miterlimit="10"/><path d="m34.2 224.8s4.7-2.1 10-.4" fill="none" opacity=".6" stroke="#535461" stroke-miterlimit="10"/><path d="m205.2 222.8v-3.6h-18.2v16.8c0 2 1.6 3.6 3.6 3.6h11.1c2 0 3.6-1.6 3.6-3.6v-3.7c2.6 0 4.7-2.1 4.7-4.7-.1-2.7-2.2-4.8-4.8-4.8zm0 7.7v-5.8c1.6-.1 3 1.2 3 2.8s-1.2 3-2.8 3c-.1-.1-.2-.1-.2 0z" fill="url(#d)" opacity=".7"/><path d="m204.6 223.4c-2.4 0-4.3 1.9-4.3 4.3s1.9 4.3 4.3 4.3 4.3-1.9 4.3-4.3c0-2.4-1.9-4.3-4.3-4.3zm0 7c-1.5 0-2.7-1.2-2.7-2.7s1.2-2.7 2.7-2.7 2.7 1.2 2.7 2.7-1.2 2.7-2.7 2.7z" fill="#8a3aff"/><path d="m204.6 223.4c-2.4 0-4.3 1.9-4.3 4.3s1.9 4.3 4.3 4.3 4.3-1.9 4.3-4.3c0-2.4-1.9-4.3-4.3-4.3zm0 7c-1.5 0-2.7-1.2-2.7-2.7s1.2-2.7 2.7-2.7 2.7 1.2 2.7 2.7-1.2 2.7-2.7 2.7z" opacity=".1"/><path d="m188 220h16.6v15.4c0 1.8-1.5 3.3-3.3 3.3h-10.1c-1.8 0-3.3-1.5-3.3-3.3v-15.4z" fill="#8a3aff"/><path d="m6.1 238.7h215.9v7.3h-215.9z" fill="#e0e0e0"/><path d="m73 185.8h82.1c2.7 0 4.8 2.2 4.8 4.8v43.2c0 2.7-2.2 4.8-4.8 4.8h-82.1c-2.7 0-4.8-2.2-4.8-4.8v-43.2c0-2.6 2.2-4.8 4.8-4.8z" fill="url(#e)" opacity=".7"/><path d="m78.8 186.8h70.5c5 0 9 4 9 9v33.9c0 5-4 9-9 9h-70.5c-5 0-9-4-9-9v-33.9c0-5 4.1-9 9-9z" fill="#535461"/><circle cx="114.1" cy="212.7" fill="#fff" r="3"/><path d="m15.3 246h197.6v3h-197.6z" fill="#e0e0e0"/><path d="m15.3 246h197.6v1h-197.6z" opacity=".1"/><path d="m201.6 220v15.4c0 1.8-1.5 3.2-3.2 3.2h1.7c1.8 0 3.2-1.5 3.2-3.2v-15.4z" opacity=".1"/><path d="m191.2 207.6c-.3 0-.6.1-.7.4-.2.4.2.8.5 1.1.7.5 1.4 1 1.8 1.7.5.7.6 1.7.1 2.3-.6.9-2.2 1.1-2.3 2.1-.1.7.5 1.3 1.1 1.6 1.5.9 3.4 1.1 4.5 2.4.4-.9 1.5-1.5 2.5-1.7s2-.2 3.1-.4c.3 0 .7-.2.8-.5.3-.6-.5-1.3-.2-1.8.2-.4.8-.4 1.3-.6.7-.3 1-1.2.8-2s-.8-1.4-1.4-1.9c-1.7-1.3-3.7-2.1-5.8-2.7-1-.3-2.1-.7-3.1-.7s-2 .6-3 .7z" fill="#eee"/><path d="m149.4 57h145.3v99.6h-145.3z" fill="#535461" opacity=".1"/><path d="m164.2 66.8h31.2c.8 0 1.5.7 1.5 1.5v28.5c0 .8-.7 1.5-1.5 1.5h-31.2c-.8 0-1.5-.7-1.5-1.5v-28.5c0-.8.6-1.5 1.5-1.5z" fill="url(#f)" opacity=".5"/><path d="m164.6 67.1h30.4c.8 0 1.5.7 1.5 1.5v27.8c0 .8-.7 1.5-1.5 1.5h-30.4c-.8 0-1.5-.7-1.5-1.5v-27.8c0-.9.6-1.5 1.5-1.5z" fill="#f5f5f5"/><path d="m167.1 72.1h2.6c.8 0 1.5.7 1.5 1.5v2.1c0 .8-.7 1.5-1.5 1.5h-2.6c-.8 0-1.5-.7-1.5-1.5v-2.1c0-.8.7-1.5 1.5-1.5z" fill="#8a3aff"/><g fill="#e0e0e0"><path d="m173.2 72.1h21.9c.1 0 .3.1.3.3 0 .1-.1.3-.3.3h-21.9c-.1 0-.3-.1-.3-.3.1-.1.2-.3.3-.3z"/><path d="m173.2 73.8h21.9c.1 0 .3.1.3.3 0 .1-.1.3-.3.3h-21.9c-.1 0-.3-.1-.3-.3.1-.2.2-.3.3-.3z"/><path d="m165.3 80h29.8c.1 0 .3.1.3.3 0 .1-.1.3-.3.3h-29.8c-.1 0-.3-.1-.3-.3.1-.2.2-.3.3-.3z"/><path d="m165.3 81.7h29.8c.1 0 .3.1.3.3 0 .1-.1.3-.3.3h-29.8c-.1 0-.3-.1-.3-.3.1-.2.2-.3.3-.3z"/><path d="m165.3 83.9h29.8c.1 0 .3.1.3.3 0 .1-.1.3-.3.3h-29.8c-.1 0-.3-.1-.3-.3.1-.2.2-.3.3-.3z"/><path d="m165.3 85.6h16.9c.1 0 .3.1.3.3 0 .1-.1.3-.3.3h-16.9c-.1 0-.3-.1-.3-.3.1-.2.2-.3.3-.3z"/><path d="m165.3 87.8h29.8c.1 0 .3.1.3.3 0 .1-.1.3-.3.3h-29.8c-.1 0-.3-.1-.3-.3.1-.1.2-.3.3-.3z"/><path d="m165.3 89.5h29.8c.1 0 .3.1.3.3 0 .1-.1.3-.3.3h-29.8c-.1 0-.3-.1-.3-.3.1-.1.2-.3.3-.3z"/><path d="m165.3 91.8h29.8c.1 0 .3.1.3.3 0 .1-.1.3-.3.3h-29.8c-.1 0-.3-.1-.3-.3.1-.2.2-.3.3-.3z"/><path d="m165.3 93.5h16.9c.1 0 .3.1.3.3 0 .1-.1.3-.3.3h-16.9c-.1 0-.3-.1-.3-.3.1-.2.2-.3.3-.3z"/></g><path d="m169.3 74.1h31.2c.8 0 1.5.7 1.5 1.5v28.5c0 .8-.7 1.5-1.5 1.5h-31.2c-.8 0-1.5-.7-1.5-1.5v-28.5c0-.8.7-1.5 1.5-1.5z" fill="url(#g)" opacity=".5"/><path d="m169.7 74.4h30.4c.8 0 1.5.7 1.5 1.5v27.8c0 .8-.7 1.5-1.5 1.5h-30.4c-.8 0-1.5-.7-1.5-1.5v-27.8c0-.9.7-1.5 1.5-1.5z" fill="#fff"/><path d="m172.3 79.4h2.6c.8 0 1.5.7 1.5 1.5v2.1c0 .8-.7 1.5-1.5 1.5h-2.6c-.8 0-1.5-.7-1.5-1.5v-2.1c0-.8.7-1.5 1.5-1.5z" fill="#8a3aff"/><path d="m178.4 79.4h21.9c.1 0 .3.1.3.3 0 .1-.1.3-.3.3h-21.9c-.1 0-.3-.1-.3-.3 0-.2.2-.3.3-.3z" fill="#e0e0e0"/><path d="m178.4 81.1h21.9c.1 0 .3.1.3.3 0 .1-.1.3-.3.3h-21.9c-.1 0-.3-.1-.3-.3 0-.2.2-.3.3-.3z" fill="#e0e0e0"/><path d="m170.5 87.3h29.8c.1 0 .3.1.3.3 0 .1-.1.3-.3.3h-29.8c-.1 0-.3-.1-.3-.3 0-.2.2-.3.3-.3z" fill="#e0e0e0"/><path d="m170.5 88.9h29.8c.1 0 .3.1.3.3 0 .1-.1.3-.3.3h-29.8c-.1 0-.3-.1-.3-.3 0-.1.2-.3.3-.3z" fill="#e0e0e0"/><path d="m170.5 91.2h29.8c.1 0 .3.1.3.3 0 .1-.1.3-.3.3h-29.8c-.1 0-.3-.1-.3-.3 0-.2.2-.3.3-.3z" fill="#e0e0e0"/><path d="m170.5 92.9h16.9c.1 0 .3.1.3.3 0 .1-.1.3-.3.3h-16.9c-.1 0-.3-.1-.3-.3 0-.2.2-.3.3-.3z" fill="#e0e0e0"/><path d="m170.5 95.1h29.8c.1 0 .3.1.3.3 0 .1-.1.3-.3.3h-29.8c-.1 0-.3-.1-.3-.3 0-.1.2-.3.3-.3z" fill="#e0e0e0"/><path d="m170.5 96.8h29.8c.1 0 .3.1.3.3 0 .1-.1.3-.3.3h-29.8c-.1 0-.3-.1-.3-.3 0-.2.2-.3.3-.3z" fill="#e0e0e0"/><path d="m170.5 99.1h29.8c.1 0 .3.1.3.3 0 .1-.1.3-.3.3h-29.8c-.1 0-.3-.1-.3-.3 0-.2.2-.3.3-.3z" fill="#e0e0e0"/><path d="m170.5 100.8h16.9c.1 0 .3.1.3.3 0 .1-.1.3-.3.3h-16.9c-.1 0-.3-.1-.3-.3 0-.2.2-.3.3-.3z" fill="#e0e0e0"/><path d="m216.2 78.9h18.8v18.1h-18.8z" fill="url(#h)"/><path d="m216.5 79.3h18.2v17.3h-18.2z" fill="#f5f5f5"/><path d="m227.2 82.4v-.9h-3.2v.9h-2.3v4.3h7.7v-4.3zm-2.8-.6h2.4v.6h-2.4z" fill="url(#i)" opacity=".5"/><path d="m222 82.5h7.1v4h-7.1z" fill="#8a3aff" opacity=".6"/><path d="m224.1 81.7v1h.4v-.7h2.2v.7h.4v-1z" fill="#8a3aff" opacity=".6"/><path d="m222.4 89.6h6.6v.9h-6.6z" fill="#8a3aff" opacity=".6"/><path d="m220 91.2h11.2v.9h-11.2z" fill="#bdbdbd"/><path d="m243.6 63h41.1v48.3h-41.1z" fill="url(#j)" opacity=".5"/><path d="m244.9 63.8h38.9v46.4h-38.9z" fill="#fff"/><path d="m266.5 71.2v-1.2h-4.2v1.2h-3v5.7h10.2v-5.7zm-3.7-.7h3.2v.7h-3.2z" fill="url(#k)" opacity=".5"/><path d="m259.7 71.4h9.3v5.2h-9.3z" fill="#8a3aff"/><path d="m262.4 70.3v1.4h.5v-1h2.9v1h.5v-1.4z" fill="#8a3aff"/><path d="m250.7 84.2h27.4v1.2h-27.4z" fill="#e0e0e0"/><path d="m250.7 91.9h27.4v1.2h-27.4z" fill="#e0e0e0"/><path d="m250.7 93.9h27.4v1.2h-27.4z" fill="#e0e0e0"/><path d="m250.7 89.8h11.6v1.2h-11.6z" fill="#e0e0e0"/><path d="m269.5 89.8h8.6v1.2h-8.6z" fill="#3ad29f" opacity=".6"/><path d="m260.3 98.7h8.6v1.2h-8.6z" fill="#8a3aff"/><path d="m219.7 124.9h24.4v20h-24.4z" fill="url(#l)" opacity=".5"/><path d="m219.9 125.3h23.8v19.3h-23.8z" fill="#f2f2f2"/><path d="m219.9 125.3h23.8v4.3h-23.8z" fill="#8a3aff"/><path d="m219.9 125.3h23.8v4.3h-23.8z" opacity=".1"/><path d="m221.8 131.1h20v2.5h-20z" fill="#e0e0e0"/><path d="m221.8 135.6h14.6v.9h-14.6z" fill="#e0e0e0"/><path d="m221.8 137h9.5v.9h-9.5z" fill="#e0e0e0"/><path d="m221.8 138.5h12.5v.9h-12.5z" fill="#e0e0e0"/><path d="m221.8 140h14.6v.9h-14.6z" fill="#e0e0e0"/><path d="m221.8 141.4h4.9v.9h-4.9z" fill="#e0e0e0"/><path d="m204.4 117.5h30.3v24.8h-30.3z" fill="url(#m)" opacity=".5"/><path d="m204.7 118h29.5v24h-29.5z" fill="#fff"/><path d="m204.7 118h29.5v5.3h-29.5z" fill="#8a3aff"/><path d="m207.1 125.3h24.8v3.1h-24.8z" fill="#f5f5f5"/><path d="m207.1 130.8h18.1v1.1h-18.1z" fill="#e0e0e0"/><path d="m207.1 132.6h11.7v1.1h-11.7z" fill="#e0e0e0"/><path d="m207.1 134.4h15.5v1.1h-15.5z" fill="#e0e0e0"/><path d="m207.1 136.2h18.1v1.1h-18.1z" fill="#e0e0e0"/><path d="m207.1 138h6.1v1.1h-6.1z" fill="#e0e0e0"/><path d="m208.4 126.4h7.1v.9h-7.1z" fill="#69f0ae"/><circle cx="163.1" cy="179.4" fill="#535461" opacity=".1" r="4.1"/><circle cx="170.7" cy="166.3" fill="#535461" opacity=".1" r="4.1"/></svg>