<svg enable-background="new 0 0 300 300" viewBox="0 0 300 300" xmlns="http://www.w3.org/2000/svg" xmlns:xlink="http://www.w3.org/1999/xlink"><linearGradient id="a" gradientTransform="matrix(1 0 0 -1 0 302)" gradientUnits="userSpaceOnUse" x1="180.1955" x2="180.1955" y1="67.8043" y2="118.3878"><stop offset="0" stop-color="#808080" stop-opacity=".25"/><stop offset=".54" stop-color="#808080" stop-opacity=".12"/><stop offset="1" stop-color="#808080" stop-opacity=".1"/></linearGradient><ellipse cx="135.9" cy="223.6" fill="#8a3aff" opacity=".1" rx="127.6" ry="30.2"/><path d="m39.5 141.2s11.9 11.9 5.2 29.5 11.5 47 11.5 47-.2 0-.6-.1c-24.4-4.3-36.5-32.2-23-53 5.1-7.7 9.3-16.7 6.9-23.4z" fill="#8a3aff"/><path d="m39.5 141.2s6.7 14.6 0 26.4-1.2 45.2 16.7 50" fill="none" stroke="#535461" stroke-miterlimit="10" stroke-width="2"/><path d="m18.4 189.3s13.6-2.2 14.8 10 26.1 13.8 26.1 13.8-.2.1-.5.3c-20.5 13.5-40.1 8.6-37.1-9.3 1-6.6.9-13.3-3.3-14.8z" fill="#8a3aff"/><path d="m18.4 189.3s13.6-2.2 14.8 10 26.1 13.8 26.1 13.8-.2.1-.5.3c-20.5 13.5-40.1 8.6-37.1-9.3 1-6.6.9-13.3-3.3-14.8z" fill="#f5f5f5" opacity=".2"/><path d="m18.4 189.3s10.5 2.3 9.7 11.9 15.6 21.1 31.2 11.9" fill="none" stroke="#535461" stroke-miterlimit="10" stroke-width="2"/><path d="m293.7 141.1c-1.7 8.5-10.7 12.8-15.7 19.2-9.4 12-5.8 29.5.2 43.6 2 4.7 4.3 9.7 3.4 14.7-1 6.2-6.5 10.7-12.3 13.1-10.5 4.4-23.1 3.3-32.8-2.7-8.4-5.2-14.4-13.7-22.9-18.6-14.2-8.3-32.4-5.2-47.8.6-10.9 4-22.9 9.3-33.8 5.1-7.6-3-12.9-10.2-15.8-17.9-1.4-3.7-2.4-7.7-5.1-10.7-1.6-1.8-3.6-3-5.7-4-19.3-9.6-43.6-4.4-62.3-15-12.6-7.2-20.7-20.7-24.3-34.7s-3.2-28.8-2.3-43.3c.7-10.6 1.9-21.6 8.5-29.5 7-8.4 18.9-11.5 29.7-9.9s20.6 7.3 29.2 14c10.8 8.4 20.7 18.8 34 22.2 9 2.3 18.5 1 27.8.6 15.5-.7 31 .9 46.5 2.7 7.5.9 15.1 1.8 22.5 3.1 1.7.3 3.3.6 5 1 .8.2 1.7.3 2.5.5.7.1 1.3.3 2 .4 1 .2 2 .5 3.1.8 2.9.8 5.8 1.6 8.7 2.6 10 3.4 17.9 9.6 27.4 13.9 6.1 2.8 12.8 3.6 18.6 7.2 7 4.3 13.5 12 11.7 21z" fill="#8a3aff" opacity=".1"/><path d="m160.3 212.1s10.3-.8 13.3 2.7 13.6 11.7 9.2 13.5-27.8-5.4-27.8-5.4z" fill="#ffb9b9"/><path d="m117.9 88.7c-.2-2.4-2-4.4-4.4-4.9-1.6-.3-3.3.2-4.7-.7-.6-.4-1-1-1.5-1.5-1.9-2.1-4.8-3-7.6-3.1s-5.6.6-8.3 1.4c-5.4 1.6-11.1 3.8-14 8.7-4.4 7.4-.3 17.3-3.8 25.1-1.5 3.4-4.4 6.2-5.3 9.8-1.3 4.8 1.2 9.7 3.1 14.4 1.7 4.1 3 8.4 3.9 12.8.8 3.9 1.2 7.9.3 11.8-.4 1.7-1 3.4-.7 5.1.5 2.6 3 4.2 5.2 5.5l.6.3c3.3 1.9 6.6 3.9 10.3 4.3 2.3.3 4.8 0 6.8-1.2s3.5-3.3 3.7-5.6c.2-2.6-1.3-5.1-1.6-7.7-.1-.4 0-.8.1-1.2.2-.5.7-.8 1.1-1.1 6.4-4.5 9.9-12.9 8.5-20.6-1-5.2-4-10.5-2.5-15.6.8-2.8 2.9-5.1 4-7.8 1.2-2.9 1.4-6.1.4-9.1-.7-2.1-1.9-4.1-1.5-6.3.7-3.8 5.8-5 7.7-8.3 1.4-2.5.6-6-1.8-7.6" fill="#b96b6b"/><path d="m117.9 88.7c-.2-2.4-2-4.4-4.4-4.9-1.6-.3-3.3.2-4.7-.7-.6-.4-1-1-1.5-1.5-1.9-2.1-4.8-3-7.6-3.1s-5.6.6-8.3 1.4c-5.4 1.6-11.1 3.8-14 8.7-4.4 7.4-.3 17.3-3.8 25.1-1.5 3.4-4.4 6.2-5.3 9.8-1.3 4.8 1.2 9.7 3.1 14.4 1.7 4.1 3 8.4 3.9 12.8.8 3.9 1.2 7.9.3 11.8-.4 1.7-1 3.4-.7 5.1.5 2.6 3 4.2 5.2 5.5l.6.3c3.3 1.9 6.6 3.9 10.3 4.3 2.3.3 4.8 0 6.8-1.2s3.5-3.3 3.7-5.6c.2-2.6-1.3-5.1-1.6-7.7-.1-.4 0-.8.1-1.2.2-.5.7-.8 1.1-1.1 6.4-4.5 9.9-12.9 8.5-20.6-1-5.2-4-10.5-2.5-15.6.8-2.8 2.9-5.1 4-7.8 1.2-2.9 1.4-6.1.4-9.1-.7-2.1-1.9-4.1-1.5-6.3.7-3.8 5.8-5 7.7-8.3 1.4-2.5.6-6-1.8-7.6" opacity=".1"/><path d="m128.3 220.1h-53.9v-28.9l30.1 11.6 23.8-11.6z" fill="#777b9b"/><path d="m128.3 220.1h-53.9v-28.9l30.1 11.6 23.8-11.6z" opacity=".1"/><path d="m121.8 222.8s-9.8 2.3-10.8 6.6 5.8 3.9 5.8 3.9 9.5-1.9 10.8-9.7-5.8-.8-5.8-.8z" fill="#ffb9b9"/><path d="m121.8 222.8s-9.8 2.3-10.8 6.6 5.8 3.9 5.8 3.9 9.5-1.9 10.8-9.7-5.8-.8-5.8-.8z" opacity=".1"/><path d="m95.5 235.9s-9.2.6-9.3 8.1c0 1 9.6 1.3 21-4.8s12.2-6.8 12.2-6.8-4.4-7.1-7.5-8.1c-3.2-1-16.4 11.6-16.4 11.6z" fill="#cbcdda"/><path d="m41.5 207.3s-10.5 8.8 9 21.1c19.6 12.3 38.4 10 38.4 10s20.4-2.4 23.5-12-15.2-17.6-15.2-17.6-20.1 0-29.1-5.8c-9-5.7-26.6 4.3-26.6 4.3z" fill="#777b9b"/><path d="m98.4 192.2s9 5.3 21.3 0c9.4-4.1 30.2-2.5 39.2-1.5 4.2.4 7.9 3.4 9 7.5.9 3.4.3 7.5-5.4 11.3-12.5 8.5-21.3 11-24.6 14.5s-12.5 5.3-12.5 5.3-11.8-1.8-11.8-4.3 10.8-14.8 10.8-14.8-15.8 14.5-32.1-5 6.1-13 6.1-13z" fill="#777b9b"/><path d="m93.9 156.9-31.8-21.8s15.3-10.4 16.6-19.6c.3-1.8-.1-3.7-1-5.2-6.3-10 22.1 0 22.1 0 .2 2.6.5 5.2 1.1 7.8 1.2 6.1 3.8 14.2 9.2 18.3 9.1 7-16.2 20.5-16.2 20.5z" fill="#ffb9b9"/><path d="m100.8 118c-7.1 4.1-16.1 3.1-22.1-2.6.3-1.8-.1-3.7-1-5.2-6.3-10 22.1 0 22.1 0 .1 2.7.4 5.3 1 7.8z" opacity=".1"/><circle cx="91.4" cy="101.5" fill="#ffb9b9" r="18.5"/><path d="m103 126.1s-3.8 22.1-10 20.8-25.8-23.3-25.8-23.3-20.3 6.8-17 23.3 6.5 30.6-.3 35.8c-6.8 5.3-11 29.8-11 29.8s21.6-9 32.8-5.5 22.8 1.8 25.6-1.5 6.8-10.3 6.8-10.3-5.8-8.5-3-12.8 6.3-4.5 8.3-16.5 17.8-16.3 14.8-23.1c-3.2-6.7-9-16.7-21.2-16.7z" opacity=".1"/><path d="m103 125.1s-3.8 22.1-10 20.8c-6.3-1.3-25.8-23.3-25.8-23.3s-20.3 6.8-17 23.3 6.5 30.6-.3 35.8c-6.8 5.3-11 29.8-11 29.8s21.6-9 32.8-5.5 22.8 1.8 25.6-1.5 6.8-10.3 6.8-10.3-5.8-8.5-3-12.8 6.3-4.5 8.3-16.5 17.8-16.3 14.8-23.1c-3.2-6.7-9-16.7-21.2-16.7z" fill="#cbcdda"/><path d="m118 215.6s10-2.5 13.5.5 15.3 9.3 11.3 11.8-28.3-.8-28.3-.8z" fill="#ffb9b9"/><g opacity=".05"><path d="m90.4 145.9c.6.1 1.2 0 1.7-.3-7-2.7-25-23.1-25-23.1s-.7.2-1.8.7c3.4 3.9 19.5 21.6 25.1 22.7z"/><path d="m121.5 141.9c6.9-2.7-12.8 11-14.8 23.1-2 12-5.5 12.3-8.3 16.5s3 12.8 3 12.8-4 7-6.8 10.3c-1.6 1.9-6 3.2-11.7 3.4 6.8.2 12.4-1.3 14.2-3.4 2.8-3.3 6.8-10.3 6.8-10.3s-5.8-8.5-3-12.8 6.3-4.5 8.3-16.5c2-12.1 10.7-22.5 12.3-23.1z"/><path d="m39 210.5c-.1.7-.2 1-.2 1s14-5.9 25.4-6.3c-8.8-.3-20.1 3.4-25.2 5.3z"/></g><path d="m122.3 140.6s2.3.3 4.5 12c2.3 11.8 11 23.1 11 23.1 3.5 4.6 6.2 9.8 8 15.3 3 9 16.4 20.9 21.2 21.4 0 0-9.1 9.1-8.1 11.7 1 2.5-1 0-1 0s-12.5-4.8-15.3-12.5c-2.8-7.8-14.8-20.3-14.8-20.3s-16-31.1-16.8-36.1c-.8-5.1 11.3-14.6 11.3-14.6z" fill="#cbcdda"/><path d="m53.2 182.8s19.3 2.3 23.6 8.3 24-3.5 24-3.5" opacity=".1"/><path d="m72.1 148.6s8.3 30.3 11.3 34.1 26.3 34.6 37.3 32.6c0 0-3.3 14-5.5 14.5 0 0-22.8-22.6-30.6-22.3 0 0-14.3-11.8-15.8-17.5-1.5-5.8-13.5-24.6-13.5-24.6s-6-13.3-3.5-19.1c2.5-5.7 15.8-3.2 20.3 2.3z" opacity=".1"/><path d="m72.4 148.1s8.3 30.3 11.3 34.1 26.3 34.6 37.3 32.6c0 0-3.3 14-5.5 14.5 0 0-22.8-22.6-30.6-22.3 0 0-14.3-11.8-15.8-17.5s-13.5-24.6-13.5-24.6-6-13.3-3.5-19.1 15.8-3.2 20.3 2.3z" fill="#cbcdda"/><path d="m104.9 83.9c-.2-2.4-2-4.4-4.4-4.9-1.6-.3-3.3.2-4.7-.7-.6-.4-1-1-1.5-1.5-1.9-2.1-4.8-3-7.6-3.1s-5.6.6-8.3 1.4c-5.4 1.6-11.1 3.8-14 8.7-4.4 7.4-.3 17.3-3.8 25.1-1.5 3.4-4.4 6.2-5.3 9.8-1.3 4.8 1.2 9.7 3.1 14.4 1.7 4.1 3 8.4 3.9 12.8.8 3.9 1.2 7.9.3 11.8-.4 1.7-1 3.4-.7 5.1.5 2.6 3 4.2 5.2 5.5l.6.3c3.3 1.9 6.6 3.9 10.3 4.3 2.3.3 4.8 0 6.8-1.2s3.5-3.3 3.7-5.6c.2-2.6-1.3-5.1-1.6-7.7-.1-.4 0-.8.1-1.2.2-.5.7-.8 1.1-1.1 6.4-4.5 9.9-12.9 8.5-20.6-1-5.2-4-10.5-2.5-15.6.8-2.8 2.9-5.1 4-7.8 1.2-2.9 1.4-6.1.4-9.1-.7-2.1-1.9-4.1-1.5-6.3.7-3.8 5.8-5 7.7-8.3 1.4-2.5.6-6-1.8-7.6" opacity=".1"/><path d="m104.4 83.7c-.2-2.4-2-4.4-4.4-4.9-1.6-.3-3.3.2-4.7-.7-.6-.4-1-1-1.5-1.5-1.9-2.1-4.8-3-7.6-3.1s-5.6.6-8.3 1.4c-5.4 1.6-11.1 3.8-14 8.7-4.4 7.4-.3 17.3-3.8 25.1-1.5 3.4-4.4 6.2-5.3 9.8-1.3 4.8 1.2 9.7 3.1 14.4 1.7 4.1 3 8.4 3.9 12.8.8 3.9 1.2 7.9.3 11.8-.4 1.7-1 3.4-.7 5.1.5 2.6 3 4.2 5.2 5.5l.6.3c3.3 1.9 6.6 3.9 10.3 4.3 2.3.3 4.8 0 6.8-1.2s3.5-3.3 3.7-5.6c.2-2.6-1.3-5.1-1.6-7.7-.1-.4 0-.8.1-1.2.2-.5.7-.8 1.1-1.1 6.4-4.5 9.9-12.9 8.5-20.6-1-5.2-4-10.5-2.5-15.6.8-2.8 2.9-5.1 4-7.8 1.2-2.9 1.4-6.1.4-9.1-.7-2.1-1.9-4.1-1.5-6.3.7-3.8 5.8-5 7.7-8.3 1.4-2.5.6-6-1.8-7.6" fill="#b96b6b"/><g fill="#8a3aff"><path d="m121.4 242.9c.5-.4.8-.9 1-1.4.1-.6-.1-1.3-.7-1.5s-1.3.2-1.8.6-1.1.9-1.7.8c.7-.6 1-1.6.8-2.5 0-.2-.1-.4-.2-.5-.3-.4-1-.2-1.4.1-1.3.9-1.7 2.7-1.7 4.3-.1-.6 0-1.2 0-1.8s-.2-1.3-.7-1.6c-.3-.2-.7-.2-1-.2-.6 0-1.2 0-1.6.5-.5.5-.4 1.4.1 2 .4.6 1.1 1 1.7 1.4.5.3.9.7 1.2 1.2 0 .1.1.1.1.2h3.7c.8-.4 1.5-.9 2.2-1.6z"/><path d="m155 107.6h79.7v5.5h-79.7z" opacity=".1"/><path d="m155 131.5h79.7v5.5h-79.7z" opacity=".1"/><path d="m155 156.3h79.7v5.5h-79.7z" opacity=".1"/><path d="m162 93.4h5v14.3h-5z" opacity=".1"/><path d="m162 95.6h5v1h-5z" opacity=".1"/><path d="m162 103.4h5v1h-5z" opacity=".1"/><path d="m169.5 93.4h5v14.3h-5z" opacity=".1"/><path d="m169.5 95.6h5v1h-5z" opacity=".1"/><path d="m169.5 103.4h5v1h-5z" opacity=".1"/><path d="m177 93.4h5v14.3h-5z" opacity=".1"/><path d="m177 95.6h5v1h-5z" opacity=".1"/><path d="m177 103.4h5v1h-5z" opacity=".1"/><path d="m184.5 93.4h5v14.3h-5z" opacity=".1"/><path d="m184.5 95.6h5v1h-5z" opacity=".1"/><path d="m184.5 103.4h5v1h-5z" opacity=".1"/><path d="m192.1 93.4h5v14.3h-5z" opacity=".1"/><path d="m192.1 95.6h5v1h-5z" opacity=".1"/><path d="m192.1 103.4h5v1h-5z" opacity=".1"/><path d="m199.6 93.4h5v14.3h-5z" opacity=".1"/><path d="m199.6 95.6h5v1h-5z" opacity=".1"/><path d="m199.6 103.4h5v1h-5z" opacity=".1"/><path d="m207.1 93.4h5v14.3h-5z" opacity=".1"/><path d="m207.1 95.6h5v1h-5z" opacity=".1"/><path d="m207.1 103.4h5v1h-5z" opacity=".1"/><path d="m207.6 142h5v14.3h-5z" opacity=".1" transform="matrix(-.8939 .4482 -.4482 -.8939 464.7723 188.2445)"/><path d="m205.6 144.7h5v1h-5z" opacity=".1" transform="matrix(-.8939 .4482 -.4482 -.8939 459.2931 181.6971)"/><path d="m209.1 151.6h5v1h-5z" opacity=".1" transform="matrix(-.8939 .4482 -.4482 -.8939 468.9995 193.2939)"/><path d="m162 117.4h5v14.3h-5z" opacity=".1"/><path d="m162 119.7h5v1h-5z" opacity=".1"/><path d="m162 127.4h5v1h-5z" opacity=".1"/><path d="m169.5 117.4h5v14.3h-5z" opacity=".1"/><path d="m169.5 119.7h5v1h-5z" opacity=".1"/><path d="m169.5 127.4h5v1h-5z" opacity=".1"/><path d="m177 117.4h5v14.3h-5z" opacity=".1"/><path d="m177 119.7h5v1h-5z" opacity=".1"/><path d="m177 127.4h5v1h-5z" opacity=".1"/><path d="m208.4 117.4h5v14.3h-5z" opacity=".1"/><path d="m208.4 119.7h5v1h-5z" opacity=".1"/><path d="m208.4 127.4h5v1h-5z" opacity=".1"/><path d="m215.9 117.4h5v14.3h-5z" opacity=".1"/><path d="m215.9 119.7h5v1h-5z" opacity=".1"/><path d="m215.9 127.4h5v1h-5z" opacity=".1"/><path d="m223.4 117.4h5v14.3h-5z" opacity=".1"/><path d="m223.4 119.7h5v1h-5z" opacity=".1"/><path d="m223.4 127.4h5v1h-5z" opacity=".1"/><path d="m162 142h5v14.3h-5z" opacity=".1"/><path d="m162 144.2h5v1h-5z" opacity=".1"/><path d="m162 152h5v1h-5z" opacity=".1"/><path d="m169.5 142h5v14.3h-5z" opacity=".1"/><path d="m169.5 144.2h5v1h-5z" opacity=".1"/><path d="m169.5 152h5v1h-5z" opacity=".1"/><path d="m177 142h5v14.3h-5z" opacity=".1"/><path d="m177 144.2h5v1h-5z" opacity=".1"/><path d="m177 152h5v1h-5z" opacity=".1"/><path d="m184.5 142h5v14.3h-5z" opacity=".1"/><path d="m184.5 144.2h5v1h-5z" opacity=".1"/><path d="m184.5 152h5v1h-5z" opacity=".1"/><path d="m192.1 142h5v14.3h-5z" opacity=".1"/><path d="m192.1 144.2h5v1h-5z" opacity=".1"/><path d="m192.1 152h5v1h-5z" opacity=".1"/><path d="m199.6 142h5v14.3h-5z" opacity=".1"/><path d="m199.6 144.2h5v1h-5z" opacity=".1"/><path d="m199.6 152h5v1h-5z" opacity=".1"/><path d="m219.6 94.6v13h-5v-14c1.7.4 3.4.7 5 1z" opacity=".1"/><path d="m214.6 95.6h5v1h-5z" opacity=".1"/><path d="m214.6 103.4h5v1h-5z" opacity=".1"/><path d="m227.2 96.4v11.3h-5v-12.5c.7.1 1.3.3 2 .4.9.3 1.9.5 3 .8z" opacity=".1"/><path d="m227.2 96.4v.3h-5v-1h2c.9.2 1.9.4 3 .7z" opacity=".1"/><path d="m222.1 103.4h5v1h-5z" opacity=".1"/><circle cx="45.1" cy="91.2" opacity=".1" r="9.4"/><circle cx="45.1" cy="91.2" opacity=".1" r="7.9"/><circle cx="45.1" cy="91.2" opacity=".1" r=".6"/></g><path d="m48.5 85.2-3.1 5.5" fill="none" opacity=".1" stroke="#8a3aff" stroke-miterlimit="10"/><path d="m48.6 93-3-1.6" fill="none" opacity=".1" stroke="#8a3aff" stroke-miterlimit="10"/><path d="m127.3 230h26.2c.9 0 1.6.7 1.6 1.6v.9c0 .9-.7 1.6-1.6 1.6h-26.2c-.9 0-1.6-.7-1.6-1.6v-.9c0-.9.7-1.6 1.6-1.6z" fill="#535461"/><path d="m150.7 183.6h59c3.9 0 7.1 3.2 7.1 7.1v36.4c0 3.9-3.2 7.1-7.1 7.1h-59c-3.9 0-7.1-3.2-7.1-7.1v-36.4c0-3.9 3.2-7.1 7.1-7.1z" fill="url(#a)" opacity=".7"/><path d="m151.7 184.5h55.8c3.7 0 6.7 3 6.7 6.7v36.2c0 3.7-3 6.7-6.7 6.7h-55.8c-3.7 0-6.7-3-6.7-6.7v-36.2c-.1-3.6 2.9-6.7 6.7-6.7z" fill="#3e3f49"/><path d="m152.6 184.5h55.8c3.7 0 6.7 3 6.7 6.7v36.2c0 3.7-3 6.7-6.7 6.7h-55.8c-3.7 0-6.7-3-6.7-6.7v-36.2c0-3.6 3-6.7 6.7-6.7z" fill="#535461"/><circle cx="183.8" cy="209" fill="#e0e0e0" r="2.2"/><path d="m64.1 231.2s-4-1.3-5.9 2.2c-1 1.9-1 4.3.1 6.2 1.3 2.3 3.9 5.2 8.8 5 4.2-.2 5.6-3.4 5.9-6.4.5-3.6-2.1-6.9-5.6-7.3-1-.1-2.1 0-3 .3z" fill="#8a3aff"/><path d="m59.1 239.8c-1.1-1.9-1.1-4.2-.1-6.2 1.9-3.5 5.9-2.2 5.9-2.2l.2-.1c1.5-.5 3.2-.5 4.7.1-1.7-1-3.7-1.2-5.5-.5l-.2.1s-4-1.3-5.9 2.2c-1 1.9-1 4.3.1 6.2.8 1.5 2.2 3.3 4.5 4.3-1.5-.9-2.8-2.3-3.7-3.9z" fill="#fff" opacity=".1"/><path d="m62.1 232.9s1.5 1.2 5.1 0" opacity=".2"/><path d="m61.7 224.5s2.5 6.9 2.3 8.6l2-.2s-3.4-6-2.5-8.4z" fill="#8a3aff"/><path d="m61.7 224.5s2.5 6.9 2.3 8.6l2-.2s-3.4-6-2.5-8.4z" opacity=".2"/><path d="m72.1 225s-4-2-5.8-.4c-1.8 1.7-2.1 6-2.1 6s6.5.9 7.9-5.6z" fill="#8a3aff"/><path d="m72.1 225s-4-2-5.8-.4c-1.8 1.7-2.1 6-2.1 6s6.5.9 7.9-5.6z" fill="#fff" opacity=".1"/><path d="m64.3 230.7s1-5 7.8-5.6" fill="none" stroke="#8a3aff" stroke-miterlimit="10"/><g fill="#8a3aff" opacity=".1"><path d="m192.2 126.5s-1.5-.5-2.3.8c-.4.7-.4 1.6 0 2.4.5.9 1.5 2 3.3 1.9 1.6-.1 2.1-1.3 2.3-2.4.2-1.4-.8-2.6-2.2-2.8-.3-.1-.7 0-1.1.1z"/><path d="m190.3 129.8c-.4-.7-.4-1.6 0-2.4.7-1.3 2.3-.8 2.3-.8h.1c.6-.2 1.2-.2 1.8 0-.6-.4-1.4-.5-2.1-.2h-.1s-1.5-.5-2.3.8c-.4.7-.4 1.6 0 2.4.4.7 1 1.3 1.7 1.6-.6-.3-1.1-.8-1.4-1.4z" opacity=".1"/><path d="m191.4 127.2s.6.4 1.9 0" opacity=".2"/><path d="m191.3 123.9s1 2.6.9 3.3l.8-.1s-1.3-2.3-1-3.2z"/><path d="m191.3 123.9s1 2.6.9 3.3l.8-.1s-1.3-2.3-1-3.2z" opacity=".2"/><path d="m195.2 124.2s-1.5-.8-2.2-.1c-.7.6-.8 2.3-.8 2.3s2.5.2 3-2.2z"/><path d="m195.2 124.2s-1.5-.8-2.2-.1c-.7.6-.8 2.3-.8 2.3s2.5.2 3-2.2z" opacity=".1"/><path d="m192.2 126.3s.4-1.9 3-2.2"/></g><g fill="#8a3aff" opacity=".1"><path d="m224.2 151.3s-1.5-.5-2.3.8c-.4.7-.4 1.6 0 2.4.5.9 1.5 2 3.3 1.9 1.6-.1 2.1-1.3 2.3-2.4.2-1.4-.8-2.6-2.2-2.8-.2-.1-.6 0-1.1.1z"/><path d="m222.4 154.6c-.4-.7-.4-1.6 0-2.4.7-1.3 2.3-.8 2.3-.8h.1c.6-.2 1.2-.2 1.8 0-.6-.4-1.4-.5-2.1-.2h-.1s-1.5-.5-2.3.8c-.4.7-.4 1.6 0 2.4.4.7 1 1.3 1.7 1.6-.6-.3-1.1-.8-1.4-1.4z" opacity=".1"/><path d="m223.5 152s.6.4 1.9 0" opacity=".2"/><path d="m223.3 148.8s1 2.6.9 3.3l.8-.1s-1.3-2.3-1-3.2z"/><path d="m223.3 148.8s1 2.6.9 3.3l.8-.1s-1.3-2.3-1-3.2z" opacity=".2"/><path d="m227.3 149s-1.5-.8-2.2-.1c-.7.6-.8 2.3-.8 2.3s2.5.3 3-2.2z"/><path d="m227.3 149s-1.5-.8-2.2-.1c-.7.6-.8 2.3-.8 2.3s2.5.3 3-2.2z" opacity=".1"/><path d="m224.3 151.1s.4-1.9 3-2.2"/></g></svg>