<svg height="1554.7" width="1880.5699" xmlns="http://www.w3.org/2000/svg" xmlns:xlink="http://www.w3.org/1999/xlink"><linearGradient id="a" gradientUnits="userSpaceOnUse" x1="1124.47214" x2="1124.47214" y1="1325.2603" y2="1567.2947"><stop offset="0" stop-color="#19181d"/><stop offset=".3413752" stop-color="#242328"/><stop offset=".67257553" stop-color="#1e1d22"/><stop offset=".77451015" stop-color="#2c2b30"/><stop offset=".91250002" stop-color="#2e2d32"/><stop offset="1" stop-color="#2e2d32"/></linearGradient><linearGradient id="b" gradientUnits="userSpaceOnUse" x1="1667.9099" x2="2113.6052" y1="-132.23711" y2="1457.5614"><stop offset="0" stop-color="#fff" stop-opacity=".196078"/><stop offset="1" stop-color="#fff" stop-opacity="0"/></linearGradient><clipPath id="c"><path d="m402.3125 22c-43.36659 0-62.3125 13.263877-62.3125 62.3125v64.71875 990.81255h1880v-990.81255-64.71875c0-49.04863-18.946-62.3125-62.3125-62.3125h-133.4687-10.0938-1482.40625z"/></clipPath><clipPath id="d"><path d="m1280 1269.2812-189.1875 5.875c1.4926 55.4493-3.8888 117.8485-11.5625 174.4376-1.6327 12.0158-3.2125 25.0932-6 37.8124-3.662 14.5826-9.5395 23.8105-17.875 30.625-6.9834 5.645-15.9967 9.3791-24.3438 14.0313-12.3476 6.7808-22.4742 13.5746-29.1874 18.9687-2.82255 2.2745-5.95235 4.8861-8.31255 8.0938-.3378.5287-.4717 1.0068-.4687 1.4375.012 1.744 2.4696 2.769 4.625 3.5625 6.95335 2.2628 19.96295 3.0294 35.59365 3.1562 8.4285.064 18.628-.1244 27.9376-.062h437.5624c9.3096-.062 19.5091.1261 27.9376.062 15.6306-.1268 28.6403-.8934 35.5937-3.1562 2.1554-.7935 4.6133-1.8185 4.625-3.5625 0-.4307-.1309-.9088-.4687-1.4375-2.3603-3.2077-5.49-5.8193-8.3126-8.0938-6.7131-5.3941-16.8398-12.1879-29.1874-18.9687-8.3471-4.6522-17.3604-8.3863-24.3438-14.0313-8.3355-6.8145-14.213-16.0424-17.875-30.625-2.7875-12.7192-4.3673-25.7966-6-37.8124-7.6737-56.5891-13.0551-118.9883-11.5625-174.4376z"/></clipPath><filter id="e" color-interpolation-filters="sRGB" height="1.601688" width="1.681839" x="-.34092" y="-.300844"><feGaussianBlur stdDeviation="15.692135"/></filter><clipPath id="f"><path d="m1280 1275.0977-148.8643 5.875c1.1745 55.4493-3.0599 117.8485-9.0981 174.4376-1.2847 12.0158-2.5277 25.0932-4.7211 37.8124-2.8815 14.5826-7.5063 23.8105-14.0652 30.625-5.4949 5.645-12.5871 9.3791-19.1552 14.0313-9.7158 6.7808-17.684 13.5746-22.9664 18.9687-2.2209 2.2745-4.6837 4.8861-6.5408 8.0938-.2658.5287-.3712 1.0068-.3688 1.4375.01 1.744 1.9432 2.769 3.6392 3.5625 5.4713 2.2628 15.7081 3.0294 28.0073 3.1562 6.632.064 14.6576-.1244 21.983-.062h344.3008c7.3254-.062 15.351.1261 21.983.062 12.2992-.1268 22.536-.8934 28.0073-3.1562 1.696-.7935 3.6301-1.8185 3.6393-3.5625 0-.4307-.103-.9088-.3688-1.4375-1.8573-3.2077-4.3199-5.8193-6.5409-8.0938-5.2823-5.3941-13.2506-12.1879-22.9664-18.9687-6.568-4.6522-13.6602-8.3863-19.1552-14.0313-6.5589-6.8145-11.1837-16.0424-14.0652-30.625-2.1933-12.7192-3.4364-25.7966-4.7211-37.8124-6.0382-56.5891-10.2726-118.9883-9.0981-174.4376z"/></clipPath><linearGradient id="g" gradientUnits="userSpaceOnUse" x1="171.46169" x2="1773.7581" y1="1201.6073" y2="1201.6073"><stop offset="0" stop-color="#201f24"/><stop offset="1" stop-color="#353439"/></linearGradient><clipPath id="h"><path d="m939.99927 1247.2803-189.1875 5.875c1.4926 55.4493-3.8888 117.8485-11.5625 174.4376-1.6327 12.0158-3.2125 25.0932-6 37.8124-3.662 14.5826-9.5395 23.8105-17.875 30.625-6.9834 5.645-15.9967 9.3791-24.3438 14.0313-12.3476 6.7808-22.4742 13.5746-29.1874 18.9687-2.82255 2.2745-5.95235 4.8861-8.31255 8.0938-.3378.5287-.4717 1.0068-.4687 1.4375.012 1.744 2.4696 2.769 4.625 3.5625 6.95335 2.2628 19.96295 3.0294 35.59365 3.1562 8.4285.064 18.628-.1244 27.9376-.062h437.56243c9.3096-.062 19.5091.1261 27.9376.062 15.6306-.1268 28.6403-.8934 35.5937-3.1562 2.1554-.7935 4.6133-1.8185 4.625-3.5625 0-.4307-.1309-.9088-.4687-1.4375-2.3603-3.2077-5.49-5.8193-8.3126-8.0938-6.7131-5.3941-16.8398-12.1879-29.1874-18.9687-8.3471-4.6522-17.3604-8.3863-24.3438-14.0313-8.3355-6.8145-14.213-16.0424-17.875-30.625-2.7875-12.7192-4.3673-25.7966-6-37.8124-7.6737-56.5891-13.0551-118.9883-11.5625-174.4376z"/></clipPath><filter id="i" color-interpolation-filters="sRGB" height="1.734534" width="1.049985" x="-.024992" y="-.367267"><feGaussianBlur stdDeviation="9.8047143"/></filter><filter id="j" color-interpolation-filters="sRGB" height="3.986591" width="1.3599" x="-.17995" y="-1.493295"><feGaussianBlur stdDeviation="29.844637"/></filter><clipPath id="k"><path d="m1280 1269.2812-189.1875 5.875c1.4926 55.4493-3.8888 117.8485-11.5625 174.4376-1.6327 12.0158-3.2125 25.0932-6 37.8124-3.662 14.5826-9.5395 23.8105-17.875 30.625-6.9834 5.645-15.9967 9.3791-24.3438 14.0313-12.3476 6.7808-22.4742 13.5746-29.1874 18.9687-2.82255 2.2745-5.95235 4.8861-8.31255 8.0938-.3378.5287-.4717 1.0068-.4687 1.4375.012 1.744 2.4696 2.769 4.625 3.5625 6.95335 2.2628 19.96295 3.0294 35.59365 3.1562 8.4285.064 18.628-.1244 27.9376-.062h437.5624c9.3096-.062 19.5091.1261 27.9376.062 15.6306-.1268 28.6403-.8934 35.5937-3.1562 2.1554-.7935 4.6133-1.8185 4.625-3.5625 0-.4307-.1309-.9088-.4687-1.4375-2.3603-3.2077-5.49-5.8193-8.3126-8.0938-6.7131-5.3941-16.8398-12.1879-29.1874-18.9687-8.3471-4.6522-17.3604-8.3863-24.3438-14.0313-8.3355-6.8145-14.213-16.0424-17.875-30.625-2.7875-12.7192-4.3673-25.7966-6-37.8124-7.6737-56.5891-13.0551-118.9883-11.5625-174.4376z"/></clipPath><linearGradient id="l" gradientUnits="userSpaceOnUse" x1="-1566.9408" x2="-1544.2991" y1="1565.2745" y2="1565.2745"><stop offset="0" stop-color="#a8a7ad" stop-opacity="0"/><stop offset=".20036393" stop-color="#a8a7ad"/><stop offset=".44106662" stop-color="#a8a7ad"/><stop offset="1" stop-color="#a8a7ad" stop-opacity="0"/></linearGradient><linearGradient id="m" gradientUnits="userSpaceOnUse" x1="955.2654" x2="955.2654" y1="1550.46295" y2="1555.43185"><stop offset="0" stop-color="#1f1f1f"/><stop offset="1" stop-color="#bebebe"/></linearGradient><clipPath id="n"><path d="m-1279.9995 1553.847v19.0977h-263.955c-4.3637 0-8.1922-.171-11.5528-.4688-2.0963-.1857-3.7058-.4948-5.4531-.7695-5.0593-2.8082-6.3477-6.649-5.9805-11.3867z"/></clipPath><clipPath id="o"><path d="m-1279.9995 1553.847v19.0977h-263.955c-4.3637 0-8.1922-.171-11.5528-.4688-2.0963-.1857-3.7058-.4948-5.4531-.7695-5.0593-2.8082-6.3477-6.649-5.9805-11.3867z"/></clipPath><linearGradient id="p" gradientUnits="userSpaceOnUse" x1="340" x2="2220" y1="580.9219" y2="580.9219"><stop offset="0" stop-color="#040404"/><stop offset="1" stop-color="#0a0a0a"/></linearGradient><path d="m674.68164 1541.6914c-2.0963-.1857-13.89528 8.2884-15.64258 8.0137 6.2961 3.4947 18.55835 5.3542 42.21485 4.9355h238.74609 238.7461c23.6565.4187 35.9187-1.4408 42.2148-4.9355-1.7473.2747-13.5462-8.1994-15.6425-8.0137-3.3606.2978-31.5448 5.3686-32.6348 5.3867l-245.72852-3.9199 6.29492 5.541-225.93555-1.6211c-1.09-.0181-29.27221-5.0889-32.63281-5.3867z" fill="url(#m)"/><path d="m946.45898 1526.877-293.40039 11.4414c-.3672 4.7378.92117 8.5786 5.98047 11.3867 1.7473.2748 3.35683.5838 5.45313.7695 3.3606.2978 7.18903.4688 11.55273.4688h263.95508 263.9551c4.3637 0 8.1921-.171 11.5527-.4688 2.0963-.1857 3.7058-.4947 5.4531-.7695 5.0593-2.8081 6.3477-6.6489 5.9805-11.3867l-281.84765-6.3575z" fill="#222126"/><path clip-path="url(#n)" d="m-1566.9408 1544.8093h74.815582v38.131763h-74.815582z" fill="url(#l)" transform="matrix(-1 0 0 1 -340.0002 -22.00075)"/><path clip-path="url(#o)" d="m-1566.9408 1544.8093h74.815582v38.131763h-74.815582z" fill="url(#l)" transform="translate(2219.9988 -22.00075)"/><path d="m1280 1269.2812-189.1875 5.875c1.4926 55.4493-3.8888 117.8485-11.5625 174.4376-1.6327 12.0158-3.2125 25.0932-6 37.8124-3.662 14.5826-9.5395 23.8105-17.875 30.625-6.9834 5.645-15.9967 9.3791-24.3438 14.0313-12.3476 6.7808-22.4742 13.5746-29.1874 18.9687-2.82255 2.2745-5.95235 4.8861-8.31255 8.0938-.3378.5287-.4717 1.0068-.4687 1.4375.012 1.744 2.4696 2.769 4.625 3.5625 6.95335 2.2628 19.96295 3.0294 35.59365 3.1562 8.4285.064 18.628-.1244 27.9376-.062h437.5624c9.3096-.062 19.5091.1261 27.9376.062 15.6306-.1268 28.6403-.8934 35.5937-3.1562 2.1554-.7935 4.6133-1.8185 4.625-3.5625 0-.4307-.1309-.9088-.4687-1.4375-2.3603-3.2077-5.49-5.8193-8.3126-8.0938-6.7131-5.3941-16.8398-12.1879-29.1874-18.9687-8.3471-4.6522-17.3604-8.3863-24.3438-14.0313-8.3355-6.8145-14.213-16.0424-17.875-30.625-2.7875-12.7192-4.3673-25.7966-6-37.8124-7.6737-56.5891-13.0551-118.9883-11.5625-174.4376z" fill="url(#a)" transform="translate(-340.00073 -22.000949)"/><path clip-path="url(#d)" d="m993.05907 1498.1348c31.35393-4.6892 58.17353 5.7427 82.88933 15.9892-98.90843 40.722 65.8782 50.5012 47.4667 64.3685-18.4116 13.8674-145.14609 33.5899-163.55763 44.0683l9.57123-93.6614z" fill="#807f85" filter="url(#e)" transform="translate(-340.00073 -22.000949)"/><rect clip-path="url(#f)" fill="#706f75" filter="url(#j)" height="47.965816" rx="199.01967" ry="23.982908" transform="matrix(1.2708723 0 0 1 -686.71732 -27.817419)" width="398.03934" x="1080.9803" y="1435.9877"/><rect clip-path="url(#h)" fill="#6c6b71" fill-opacity=".548544" filter="url(#i)" height="41.584538" rx="252.92859" ry="20.792269" transform="translate(-.000015)" width="941.54034" x="469.51483" y="1431.8102"/><path d="m340 1139.8438v45.1874 64.7188c0 49.0486 18.946 62.3125 62.3125 62.3125h133.46875 10.09375 1482.4062 129.4063c43.3665 0 62.3125-13.2639 62.3125-62.3125v-109.9062z" transform="translate(-340.00073 -22.000949)"/><path d="m-.00073 1115.4979v45.1874 64.7188c0 49.0486 18.95176 62.3125 62.33143 62.3125h133.50932 10.09682 1482.85676 129.4457c43.3797 0 62.3314-13.2639 62.3314-62.3125v-109.9062z" fill="url(#g)"/><path d="m1280.826 1199.7834c1.5986.0001 4.2097-.6216 7.8333-1.865 3.6234-1.2433 6.7674-1.865 9.4318-1.8651 4.3695.0001 8.2595 1.1724 11.67 3.517 1.9183 1.35 3.8188 3.1795 5.7017 5.4886-2.842 2.4157-4.9202 4.565-6.2346 6.4478-2.3802 3.4104-3.5703 7.1761-3.5702 11.2969-.0001 4.5117 1.261 8.5793 3.7834 12.2028 2.5222 3.6236 5.3997 5.915 8.6325 6.8741-1.35 4.3696-3.5881 8.9346-6.7142 13.6949-4.7249 7.1405-9.4142 10.7108-14.0679 10.7108-1.8473 0-4.3962-.5862-7.6467-1.7585-3.2506-1.1723-5.9949-1.7585-8.2329-1.7585-2.2382 0-4.8404.6128-7.8067 1.8384s-5.3731 1.8384-7.2204 1.8384c-5.5774 0-11.0483-4.7248-16.4125-14.1744-5.3643-9.3431-8.0465-18.5085-8.0465-27.4964 0-8.3483 2.0516-15.1513 6.1547-20.4091 4.1032-5.2576 9.2809-7.8864 15.5333-7.8865 2.6644.0001 5.8883.5507 9.6717 1.6519 3.7834 1.1014 6.2968 1.652 7.5402 1.6519zm16.679-22.0077c-.0001 2.2737-.533 4.7604-1.5987 7.4602-1.0658 2.7-2.7532 5.2045-5.0623 7.5136-1.9894 1.9539-3.961 3.2683-5.9149 3.9433-1.2434.3908-3.1262.6928-5.6484.9058.071-5.3997 1.4831-10.0712 4.2363-14.0146 2.7532-3.9432 7.3092-6.643 13.6682-8.0997.1421.462.2309.8705.2665 1.2257.035.3553.053.7105.053 1.0657z" fill="#010101" stroke-width="1.5" transform="translate(-340.00073 -22.000949)"/><path d="m402.3125 22c-43.36659 0-62.3125 13.263877-62.3125 62.3125v64.71875 990.81255h1880v-990.81255-64.71875c0-49.04863-18.946-62.3125-62.3125-62.3125h-133.4687-10.0938-1482.40625z" fill="url(#p)" transform="translate(-339.71503 -22.000949)"/><path d="m79.13208 74.380025h1721.7344v969.08185h-1721.7344z"/><path clip-path="url(#c)" d="m1420.0909 9.7717973 632.524 1414.047203 333.2581 21.2266 6.368-1511.335884z" fill="url(#b)" transform="translate(-64.536524 2097.3869)"/><path clip-path="url(#k)" d="m993.05907 1498.1348c31.35393-4.6892 58.17353 5.7427 82.88933 15.9892-98.90843 40.722 65.8782 50.5012 47.4667 64.3685-18.4116 13.8674-145.14609 33.5899-163.55763 44.0683l9.57123-93.6614z" fill="#807f85" filter="url(#e)" transform="matrix(-1 0 0 1 2219.9993 -22.000952)"/></svg>