<?xml version="1.0" encoding="utf-8"?>
<!-- Generator: Adobe Illustrator 22.1.0, SVG Export Plug-In . SVG Version: 6.00 Build 0)  -->
<svg version="1.1" id="Layer_1" xmlns="http://www.w3.org/2000/svg" xmlns:xlink="http://www.w3.org/1999/xlink" x="0px" y="0px"
	 viewBox="0 0 380 680" style="enable-background:new 0 0 380 680;" xml:space="preserve">
<style type="text/css">
	.st0{fill:#818284;}
	.st1{fill:#010101;}
	.st2{fill:#535353;}
	.st3{fill:#FFFFFF;}
	.st4{fill:none;stroke:#FFFFFF;stroke-width:0.75;stroke-linecap:round;stroke-linejoin:round;stroke-miterlimit:10;}
	.st5{fill:#3A3A3A;}
</style>
<path class="st0" d="M327.9,680H43.3c-15.6,0-28.2-12.6-28.2-28.2V28.2C15.1,12.6,27.7,0,43.3,0h284.6c15.6,0,28.2,12.6,28.2,28.2
	v623.7C356.1,667.4,343.5,680,327.9,680z"/>
<path class="st1" d="M326.1,674.8H45.9c-15.6,0-28.2-12.6-28.2-28.2V31.9c0-15.6,12.6-28.2,28.2-28.2h280.2
	c15.6,0,28.2,12.6,28.2,28.2v614.8C354.2,662.2,341.6,674.8,326.1,674.8z"/>
<path class="st2" d="M218.1,36.2H151c-1.3,0-2.4-1.1-2.4-2.4l0,0c0-1.3,1.1-2.4,2.4-2.4h67.1c1.3,0,2.4,1.1,2.4,2.4l0,0
	C220.5,35.1,219.4,36.2,218.1,36.2z"/>
<rect x="78.3" y="639.7" class="st3" width="12.8" height="1.7"/>
<rect x="181.7" y="640.7" class="st4" width="10" height="9.9"/>
<path class="st4" d="M281,640.1l-4.6,4.6c-0.7,0.7-0.7,1.8,0,2.5l4.6,4.6"/>
<line class="st5" x1="84.6" y1="238.4" x2="81.1" y2="241.9"/>
</svg>
