<svg enable-background="new 0 0 380 680" viewBox="0 0 380 680" xmlns="http://www.w3.org/2000/svg"><path d="m327.9 680h-284.6c-15.6 0-28.2-12.6-28.2-28.2v-623.6c0-15.6 12.6-28.2 28.2-28.2h284.6c15.6 0 28.2 12.6 28.2 28.2v623.7c0 15.5-12.6 28.1-28.2 28.1z" fill="#818284"/><path d="m326.1 674.8h-280.2c-15.6 0-28.2-12.6-28.2-28.2v-614.7c0-15.6 12.6-28.2 28.2-28.2h280.2c15.6 0 28.2 12.6 28.2 28.2v614.8c-.1 15.5-12.7 28.1-28.2 28.1z" fill="#010101"/><path d="m218.1 36.2h-67.1c-1.3 0-2.4-1.1-2.4-2.4 0-1.3 1.1-2.4 2.4-2.4h67.1c1.3 0 2.4 1.1 2.4 2.4 0 1.3-1.1 2.4-2.4 2.4z" fill="#535353"/><path d="m78.3 639.7h12.8v1.7h-12.8z" fill="#fff"/><path d="m181.7 640.7h10v9.9h-10z" style="fill:none;stroke:#fff;stroke-width:.75;stroke-linecap:round;stroke-linejoin:round;stroke-miterlimit:10"/><path d="m281 640.1-4.6 4.6c-.7.7-.7 1.8 0 2.5l4.6 4.6" style="fill:none;stroke:#fff;stroke-width:.75;stroke-linecap:round;stroke-linejoin:round;stroke-miterlimit:10"/><path d="m84.6 238.4-3.5 3.5" fill="#3a3a3a"/></svg>