<?xml version="1.0" encoding="UTF-8"?>
<svg width="342px" height="680px" viewBox="0 0 342 680" version="1.1" xmlns="http://www.w3.org/2000/svg" xmlns:xlink="http://www.w3.org/1999/xlink">
    <!-- Generator: Sketch 51.2 (57519) - http://www.bohemiancoding.com/sketch -->
    <title>mob</title>
    <desc>Created with Sketch.</desc>
    <defs></defs>
    <g id="Page-1" stroke="none" stroke-width="1" fill="none" fill-rule="evenodd">
        <g id="mob">
            <path d="M312.9,680 L28.3,680 C12.7,680 0.1,667.4 0.1,651.8 L0.1,28.2 C0.1,12.6 12.7,0 28.3,0 L312.9,0 C328.5,0 341.1,12.6 341.1,28.2 L341.1,651.9 C341.1,667.4 328.5,680 312.9,680 Z" id="Shape" fill="#818284" fill-rule="nonzero"></path>
            <path d="M311.1,674.8 L30.9,674.8 C15.3,674.8 2.7,662.2 2.7,646.6 L2.7,31.9 C2.7,16.3 15.3,3.7 30.9,3.7 L311.1,3.7 C326.7,3.7 339.3,16.3 339.3,31.9 L339.3,646.7 C339.2,662.2 326.6,674.8 311.1,674.8 Z" id="Shape" fill="#010101" fill-rule="nonzero"></path>
            <path d="M203.1,36.2 L136,36.2 C134.7,36.2 133.6,35.1 133.6,33.8 C133.6,32.5 134.7,31.4 136,31.4 L203.1,31.4 C204.4,31.4 205.5,32.5 205.5,33.8 C205.5,35.1 204.4,36.2 203.1,36.2 Z" id="Shape" fill="#535353" fill-rule="nonzero"></path>
            <rect id="Rectangle-path" fill="#FFFFFF" fill-rule="nonzero" x="63.3" y="639.7" width="12.8" height="1.7"></rect>
            <rect id="Rectangle-path" stroke="#FFFFFF" stroke-width="0.75" stroke-linecap="round" stroke-linejoin="round" x="166.7" y="640.7" width="10" height="9.9"></rect>
            <path d="M266,639.1 L261.4,643.7 C260.7,644.4 260.7,645.5 261.4,646.2 L266,650.8" id="Shape" stroke="#FFFFFF" stroke-width="0.75" stroke-linecap="round" stroke-linejoin="round"></path>
            <path d="M69.6,241.4 L66.1,244.9" id="Shape" fill="#3A3A3A" fill-rule="nonzero"></path>
        </g>
    </g>
</svg>