<svg height="680" viewBox="0 0 342 680" width="342" xmlns="http://www.w3.org/2000/svg"><g fill="none" fill-rule="evenodd"><g fill-rule="nonzero"><path d="m312.9 680h-284.6c-15.6 0-28.2-12.6-28.2-28.2v-623.6c0-15.6 12.6-28.2 28.2-28.2h284.6c15.6 0 28.2 12.6 28.2 28.2v623.7c0 15.5-12.6 28.1-28.2 28.1z" fill="#818284"/><path d="m311.1 674.8h-280.2c-15.6 0-28.2-12.6-28.2-28.2v-614.7c0-15.6 12.6-28.2 28.2-28.2h280.2c15.6 0 28.2 12.6 28.2 28.2v614.8c-.1 15.5-12.7 28.1-28.2 28.1z" fill="#010101"/><path d="m203.1 36.2h-67.1c-1.3 0-2.4-1.1-2.4-2.4s1.1-2.4 2.4-2.4h67.1c1.3 0 2.4 1.1 2.4 2.4s-1.1 2.4-2.4 2.4z" fill="#535353"/><path d="m63.3 639.7h12.8v1.7h-12.8z" fill="#fff"/></g><path d="m166.7 640.7h10v9.9h-10z" stroke="#fff" stroke-linecap="round" stroke-linejoin="round" stroke-width=".75"/><path d="m266 639.1-4.6 4.6c-.7.7-.7 1.8 0 2.5l4.6 4.6" stroke="#fff" stroke-linecap="round" stroke-linejoin="round" stroke-width=".75"/><path d="m69.6 241.4-3.5 3.5" fill="#3a3a3a" fill-rule="nonzero"/></g></svg>